<svg width="16" height="16" viewBox="0 0 16 16" fill="none" xmlns="http://www.w3.org/2000/svg">
<path d="M13.8447 0H2.15529C1.58383 0.000498445 1.03591 0.227733 0.631822 0.631822C0.227734 1.03591 0.000498445 1.58383 0 2.15529V10.8235C0.000498445 11.395 0.227734 11.9429 0.631822 12.347C1.03591 12.7511 1.58383 12.9783 2.15529 12.9788H8.36706L11.4005 15.7534C11.5745 15.9125 11.8019 16.0005 12.0376 16C12.1673 15.9999 12.2956 15.9727 12.4141 15.92C12.5817 15.8468 12.7244 15.7264 12.8247 15.5735C12.925 15.4206 12.9785 15.2417 12.9788 15.0588V12.9788H13.8447C14.4162 12.9783 14.9641 12.7511 15.3682 12.347C15.7723 11.9429 15.9995 11.395 16 10.8235V2.15529C15.9995 1.58383 15.7723 1.03591 15.3682 0.631822C14.9641 0.227733 14.4162 0.000498445 13.8447 0Z" fill="white"/>
</svg>
