<svg width="24" height="24" viewBox="0 0 24 24" fill="none" xmlns="http://www.w3.org/2000/svg">
<g clip-path="url(#clip0_810_14871)">
<path d="M20.0496 16.3441L12.0351 11.3018L3.98145 16.3445V16.7584L11.8656 11.8218C11.9696 11.7566 12.102 11.7568 12.2061 11.8222L20.0496 16.757V16.3441Z" fill="white"/>
<path d="M17.3271 15.8008V16.9535H17.861V16.1367L17.3271 15.8008Z" fill="white"/>
<path d="M5.95654 17.594H6.97081V18.021H5.95654V17.594Z" fill="white"/>
<path d="M17.399 18.6619L17.1704 22.9859H18.0706L17.8421 18.6619H17.399Z" fill="white"/>
<path d="M6.03467 22.9859H6.93467L6.70633 18.6619H6.263L6.03467 22.9859Z" fill="white"/>
<path d="M17.0601 17.594H18.1277V18.021H17.0601V17.594Z" fill="white"/>
<path d="M14.4418 2.56757C14.5584 2.55965 14.7033 2.51774 14.76 2.42432C14.8201 2.32527 14.7973 2.14176 14.6951 1.90801C14.3824 1.19026 15.0284 0.750691 15.3756 0.514641C15.4214 0.483362 15.4792 0.444159 15.529 0.407459C15.3455 0.324257 14.882 0.18246 13.7559 0.082159C13.2125 0.0339897 12.6864 0.0106348 12.3628 0V2.21454C12.9636 2.35967 14.045 2.59468 14.4418 2.56757Z" fill="white"/>
<path d="M7.93164 6.01001H16.1525V8.09193H7.93164V6.01001Z" fill="white"/>
<path d="M12.2067 10.6525L17.4872 13.9743V5.24627C17.4872 4.91722 17.2184 4.67554 16.8893 4.67554H7.21524C6.88639 4.67554 6.59717 4.91722 6.59717 5.24606V13.9374L11.8553 10.6521C11.9634 10.587 12.0987 10.587 12.2067 10.6525ZM7.29114 8.1454V5.90333C7.29114 5.60848 7.53011 5.36951 7.82496 5.36951H16.2594C16.5542 5.36951 16.7932 5.60848 16.7932 5.90333V8.1454C16.7932 8.44025 16.5542 8.67922 16.2594 8.67922H7.82496C7.53011 8.67922 7.29114 8.44025 7.29114 8.1454Z" fill="white"/>
<path d="M18.1279 14.3772L20.4914 15.8647C20.6156 15.9426 20.6909 16.0792 20.6903 16.226V17.1435C20.6903 17.2989 20.6058 17.4421 20.4697 17.5174C20.3337 17.5925 20.1675 17.5879 20.0357 17.5049L18.5016 16.5399V17.0384C18.6666 17.1337 18.7683 17.3095 18.7685 17.5001V18.1447C18.7683 18.344 18.6572 18.5265 18.4803 18.6182L18.7126 22.9779C18.962 23.0279 19.1418 23.2469 19.1422 23.5013V24.0001H22.1316V13.5377L18.1279 11.0413V14.3772Z" fill="white"/>
<path d="M7.34375 18.6067L7.57688 22.983C7.81606 23.0411 7.98476 23.2551 7.98517 23.5012V23.9999H9.69341V18.4109C9.69258 18.1131 9.92946 17.8689 10.2272 17.861H13.7505C14.0483 17.8689 14.2851 18.1131 14.2843 18.4109V23.9999H16.0459V23.5012C16.0463 23.2265 16.2549 22.9967 16.5285 22.97L16.7591 18.6413C16.5547 18.5612 16.42 18.3641 16.4196 18.1448V17.5C16.4198 17.3094 16.5216 17.1336 16.6865 17.0383V15.3977L12.0351 12.4714L7.34458 15.4083V17.0383C7.50953 17.1336 7.61129 17.3094 7.6115 17.5V18.1446C7.61129 18.3354 7.50911 18.5116 7.34375 18.6067Z" fill="white"/>
<path d="M6.22363 16.1103V16.9535H6.70408V15.8096L6.22363 16.1103Z" fill="white"/>
<path d="M10.334 18.5017H13.6437V24.0001H10.334V18.5017Z" fill="white"/>
<path d="M18.1279 9.77393V10.2863L23.7865 13.8143V13.397L18.1279 9.77393Z" fill="white"/>
<path d="M16.6865 23.6262H18.5015V23.9999H16.6865V23.6262Z" fill="white"/>
<path d="M5.95655 9.74902L0.244629 13.3976V13.8153L5.95655 10.2518V9.74902Z" fill="white"/>
<path d="M4.94254 23.5011C4.94296 23.239 5.13376 23.0159 5.39275 22.9746L5.62442 18.6277C5.43654 18.5401 5.31643 18.3518 5.31622 18.1445V17.5C5.31643 17.3094 5.41819 17.1336 5.58313 17.0383V16.5113L3.99479 17.5058C3.86322 17.5882 3.69723 17.5928 3.56127 17.5175C3.42531 17.4422 3.34107 17.2991 3.34107 17.1438V16.2261C3.33648 16.0805 3.40842 15.9431 3.53083 15.8641L5.95681 14.3383V11.0059L1.95312 13.5075V23.9999H4.94254V23.5011Z" fill="white"/>
<path d="M5.58301 23.6262H7.34463V23.9999H5.58301V23.6262Z" fill="white"/>
</g>
<defs>
<clipPath id="clip0_810_14871">
<rect width="24" height="24" fill="white"/>
</clipPath>
</defs>
</svg>
