<svg width="24" height="24" viewBox="0 0 24 24" fill="none" xmlns="http://www.w3.org/2000/svg">
<g clip-path="url(#clip0_810_14668)">
<path d="M18.9401 6.79943L23.4021 9.62506L15.1062 10.9825L11.9988 11.4829L10.8588 10.761L19.0715 9.43685C19.3694 9.38557 19.5066 9.03209 19.3656 8.81103C19.3613 8.80442 18.9556 8.10298 18.9172 7.15292C18.9124 7.03924 18.9236 6.91995 18.9401 6.79943ZM18.3959 8.69824C18.3959 8.69824 8.46506 10.3045 8.43867 10.3036C8.3843 10.3016 8.35116 10.193 8.35177 10.0953L8.35472 7.75198C8.3648 7.48113 8.49666 7.36507 8.57283 7.3579L18.336 5.78445C18.1948 6.1909 18.0618 6.71051 18.0806 7.18671C18.1059 7.80551 18.2571 8.33323 18.3959 8.69824ZM11.4308 0.928711L17.8568 4.99788L11.3352 6.06546L8.74645 6.48256L2.32744 2.4184L11.4308 0.928711ZM1.00383 5.5632C0.936094 5.51984 0.856406 5.39684 0.856922 5.19349L0.860203 3.23285C0.867094 2.99351 1.01681 2.77938 1.15416 2.66548L7.8427 6.9004C7.69486 7.02743 7.51552 7.42306 7.51828 7.75156C7.52044 8.01921 7.51148 9.68276 7.51148 9.68276L1.00383 5.5632ZM2.51077 10.3399C2.40309 10.2718 2.28853 10.0969 2.28853 9.81302C2.28853 9.81302 2.25061 7.45474 2.29992 7.37337C2.29992 7.37337 7.84256 10.9735 8.10272 11.0758C8.20641 11.1165 8.31637 11.1439 8.43075 11.1411C8.5178 11.1388 9.61247 10.9621 9.61247 10.9621L11.0431 11.8676C10.6773 12.1235 10.6108 12.6204 10.6108 12.9366L10.6027 15.4637L2.51077 10.3399ZM4.7985 12.7788C4.7985 12.7788 11.0903 16.8214 11.1898 16.8745C11.324 16.9457 11.4731 16.9836 11.6275 16.9836C11.6796 16.9836 13.7479 16.6542 13.7479 16.6542L12.0093 17.8791L0.516984 15.7962L4.7985 12.7788ZM12.39 23.0712L0 20.8515C0.157594 20.289 0.398625 19.3318 0.409313 18.7099C0.420844 18.0308 0.223359 17.1727 0.0606562 16.5876C0.0606562 16.5876 11.9435 18.6665 12.2142 18.7661C12.4849 18.8655 12.5696 19.2753 12.5696 19.453L12.5729 22.6382C12.5736 22.7944 12.5201 23.0718 12.39 23.0712ZM21.4894 16.6135L13.4146 22.3029L13.4062 19.4525C13.4062 19.1144 13.2517 18.4996 12.9292 18.2546L15.6299 16.3512L21.7265 15.3688L21.7272 15.975C21.7281 16.3214 21.599 16.5359 21.4894 16.6135ZM11.6499 16.1448C11.5881 16.1434 11.444 16.08 11.4432 15.7998L11.4473 12.9369C11.4473 12.7936 11.5284 12.4646 11.7921 12.3631L23.9256 10.4092C23.7745 10.9024 23.6167 11.5788 23.6587 12.1593C23.7221 13.0367 23.8783 13.7264 24 14.1553C24 14.1553 11.6854 16.1458 11.6499 16.1448Z" fill="white"/>
</g>
<defs>
<clipPath id="clip0_810_14668">
<rect width="24" height="24" fill="white"/>
</clipPath>
</defs>
</svg>
