<svg width="24" height="24" viewBox="0 0 24 24" fill="none" xmlns="http://www.w3.org/2000/svg">
<path d="M22.3095 9.02145V6.33445L23.5 5.93145L11.194 3.59595L0.5 6.52545L13.0075 9.48395L21.3075 6.67295V9.02295C21.1824 9.10541 21.0797 9.21766 21.0086 9.34961C20.9376 9.48156 20.9004 9.62909 20.9005 9.77895V10.4174C20.8977 10.5384 20.919 10.6587 20.9633 10.7712C21.0077 10.8838 21.074 10.9863 21.1586 11.0729C21.2431 11.1594 21.3441 11.2282 21.4556 11.2751C21.567 11.3221 21.6868 11.3462 21.8078 11.3462C21.9287 11.3462 22.0485 11.3221 22.16 11.2751C22.2714 11.2282 22.3724 11.1594 22.4569 11.0729C22.5415 10.9863 22.6078 10.8838 22.6522 10.7712C22.6965 10.6587 22.7178 10.5384 22.715 10.4174V9.77795C22.7152 9.62816 22.6783 9.48065 22.6075 9.34863C22.5368 9.21661 22.4344 9.1042 22.3095 9.02145Z" fill="white"/>
<path d="M5.46997 8.729V10.5595L14.243 13.691C14.6985 13.6735 15.1145 13.646 15.407 13.6025C16.982 13.368 18.0015 12.9325 18.0015 12.464V8.85L13.056 10.524L5.46997 8.729Z" fill="white"/>
<path d="M12.6999 16.6271C12.6199 16.7501 12.5414 16.8741 12.4719 17.0061C12.3096 17.313 12.1797 17.6361 12.0844 17.9701L6.34995 15.4146C6.07145 16.3456 6.06845 17.0101 6.19995 17.2146L11.6049 19.9001L12.2549 20.1086C12.389 19.1382 12.713 18.2037 13.2084 17.3586C13.2934 17.2116 13.3824 17.0691 13.4739 16.9316L12.6999 16.6271Z" fill="white"/>
<path d="M0.685928 13.5001C0.591928 13.9686 0.614928 14.4666 0.918428 14.5956L5.11443 16.6771C5.13967 16.1068 5.24469 15.5428 5.42643 15.0016L0.808428 12.9451L0.685928 13.5001Z" fill="white"/>
<path d="M7.22857 12.2499L2.21607 10.4589C1.74857 10.2589 1.07957 10.7894 0.710574 11.6589C0.692574 11.7019 0.680074 11.7444 0.663574 11.7874L5.78807 14.0714C6.12128 13.3612 6.61431 12.7378 7.22857 12.2499Z" fill="white"/>
<path d="M11.5395 16.6329C11.554 16.6034 11.569 16.5739 11.584 16.5449C12.0176 15.7074 12.6548 14.9923 13.437 14.4654L8.64445 12.7539C8.50149 12.7247 8.35284 12.7444 8.22245 12.8099C7.55146 13.1901 7.01839 13.7735 6.69995 14.4759L11.5395 16.6329Z" fill="white"/>
<path d="M15.0804 15.0566L14.9114 14.9936C14.5304 14.9436 13.9234 15.2666 13.3644 15.8131L15.0914 16.4871C14.7002 16.9022 14.3594 17.3621 14.0759 17.8571C13.6025 18.626 13.3169 19.4957 13.2424 20.3956C14.0229 20.4191 14.8924 19.5786 15.4319 18.5426C16.1779 17.1051 16.0204 15.5446 15.0804 15.0566Z" fill="white"/>
</svg>
