<svg width="18" height="18" viewBox="0 0 29 29" fill="none" xmlns="http://www.w3.org/2000/svg">
<g opacity="0.2">
<path d="M19.2181 4.46084C19.2181 3.82136 18.7009 3.30321 18.0614 3.30321H17.4128C17.4292 3.18188 17.4392 3.04778 17.4392 2.91551C17.4401 1.30815 16.1311 0 14.5237 0C12.9155 0 11.6082 1.30815 11.6082 2.91551C11.6082 3.04687 11.6173 3.18188 11.6338 3.30321H10.9979C10.3594 3.30321 9.8403 3.82136 9.8403 4.46084H6.37107C5.05927 4.46084 3.99561 5.5245 3.99561 6.8363V26.6236C3.99561 27.9354 5.05927 28.9991 6.37107 28.9991H22.6289C23.9407 28.9991 25.0044 27.9354 25.0044 26.6236V6.8363C25.0044 5.5245 23.9407 4.46084 22.6289 4.46084H19.2181ZM13.3579 2.91551C13.3579 2.27329 13.8806 1.74967 14.5237 1.74967C15.1669 1.74967 15.6905 2.27238 15.6905 2.91551C15.6905 3.05143 15.6668 3.18097 15.623 3.30321H13.4254C13.3834 3.18188 13.3579 3.05234 13.3579 2.91551ZM22.6892 25.3182C22.6892 26.0398 22.1026 26.6245 21.381 26.6245H7.67557C6.9549 26.6245 6.37016 26.0398 6.37016 25.3182V8.14171C6.37016 7.42013 6.9549 6.8363 7.67557 6.8363H9.84122V7.9921C9.84122 8.63158 10.3594 9.14973 10.9988 9.14973H18.0623C18.6999 9.14973 19.219 8.63158 19.219 7.9921V6.8363H21.3856C22.1053 6.8363 22.691 7.42104 22.691 8.14171L22.6892 25.3182Z" fill="black"/>
<path d="M9.29761 11.7067C8.65266 11.7067 8.13086 12.2203 8.13086 12.8644C8.13086 13.5084 8.65266 14.022 9.29761 14.022H19.7965C20.4415 14.022 20.9624 13.5093 20.9624 12.8644C20.9624 12.2203 20.4415 11.7067 19.7965 11.7067H9.29761Z" fill="black"/>
<path d="M19.7965 15.5427H9.29761C8.65266 15.5427 8.13086 16.0873 8.13086 16.7313C8.13086 17.3744 8.65266 17.9209 9.29761 17.9209H19.7965C20.4415 17.9209 20.9624 17.3744 20.9624 16.7313C20.9624 16.0854 20.4415 15.5427 19.7965 15.5427Z" fill="black"/>
<path d="M19.7965 19.4407H9.29761C8.65266 19.4407 8.13086 19.9533 8.13086 20.5983C8.13086 21.2414 8.65266 21.7559 9.29761 21.7559H19.7965C20.4415 21.7559 20.9624 21.2433 20.9624 20.5983C20.9624 19.9533 20.4415 19.4407 19.7965 19.4407Z" fill="black"/>
</g>
</svg>
