<svg width="19" height="19" viewBox="0 0 19 19" fill="none" xmlns="http://www.w3.org/2000/svg">
<g opacity="0.3">
<path d="M3.16675 9.49998C3.17051 7.66111 3.8143 5.8809 4.98759 4.46497C5.12196 4.3033 5.18661 4.09487 5.16731 3.88553C5.14801 3.6762 5.04634 3.4831 4.88467 3.34872C4.723 3.21435 4.51457 3.1497 4.30523 3.169C4.09589 3.1883 3.90279 3.28997 3.76842 3.45164C2.36299 5.15392 1.59424 7.29249 1.59424 9.49998C1.59424 11.7075 2.36299 13.846 3.76842 15.5483C3.84285 15.6377 3.93606 15.7095 4.04142 15.7588C4.14678 15.8081 4.2617 15.8335 4.378 15.8333C4.56298 15.8337 4.74224 15.7692 4.88467 15.6512C4.96483 15.5848 5.0311 15.5031 5.07967 15.411C5.12824 15.3189 5.15816 15.2181 5.16772 15.1145C5.17728 15.0108 5.16629 14.9062 5.13538 14.8068C5.10447 14.7073 5.05425 14.615 4.98759 14.535C3.8143 13.119 3.17051 11.3388 3.16675 9.49998Z" fill="black"/>
<path d="M9.50008 11.0833C10.3745 11.0833 11.0834 10.3744 11.0834 9.49996C11.0834 8.62551 10.3745 7.91663 9.50008 7.91663C8.62563 7.91663 7.91675 8.62551 7.91675 9.49996C7.91675 10.3744 8.62563 11.0833 9.50008 11.0833Z" fill="black"/>
<path d="M13.5058 6.71331C13.4601 6.61237 13.3938 6.52212 13.3112 6.44841C13.2285 6.3747 13.1312 6.31916 13.0257 6.28538C12.9202 6.2516 12.8088 6.24034 12.6987 6.25233C12.5886 6.26431 12.4822 6.29927 12.3864 6.35495C12.2907 6.41062 12.2077 6.48578 12.1428 6.57555C12.0779 6.66532 12.0325 6.76771 12.0097 6.8761C11.9868 6.9845 11.987 7.09648 12.0102 7.2048C12.0333 7.31313 12.0789 7.41539 12.1441 7.50498C12.4915 8.10672 12.6744 8.78931 12.6744 9.48414C12.6744 10.179 12.4915 10.8616 12.1441 11.4633C12.0895 11.5526 12.0532 11.6518 12.0371 11.7552C12.0211 11.8586 12.0258 11.9641 12.0508 12.0657C12.0758 12.1673 12.1208 12.2629 12.183 12.347C12.2452 12.4312 12.3235 12.5021 12.4133 12.5558C12.5392 12.6263 12.6806 12.6644 12.8249 12.6666C12.9616 12.6674 13.0961 12.6329 13.2154 12.5663C13.3347 12.4997 13.4347 12.4033 13.5058 12.2866C13.9875 11.4427 14.2409 10.4876 14.2409 9.51581C14.2409 8.54399 13.9875 7.58897 13.5058 6.74498V6.71331Z" fill="black"/>
<path d="M6.5867 6.44415C6.49744 6.38957 6.39824 6.35322 6.29485 6.33721C6.19145 6.32119 6.08591 6.32584 5.98431 6.35087C5.88272 6.3759 5.7871 6.42082 5.70298 6.48303C5.61885 6.54524 5.54789 6.62351 5.4942 6.71332C5.01243 7.55731 4.75903 8.51233 4.75903 9.48415C4.75903 10.456 5.01243 11.411 5.4942 12.255C5.56126 12.3776 5.65957 12.4803 5.77915 12.5526C5.89873 12.6249 6.03532 12.6642 6.17504 12.6667C6.31932 12.6644 6.46078 12.6263 6.5867 12.5558C6.67651 12.5021 6.75478 12.4312 6.81699 12.347C6.8792 12.2629 6.92412 12.1673 6.94915 12.0657C6.97418 11.9641 6.97883 11.8586 6.96282 11.7552C6.9468 11.6518 6.91045 11.5526 6.85587 11.4633C6.50845 10.8616 6.32556 10.179 6.32556 9.48415C6.32556 8.78932 6.50845 8.10673 6.85587 7.50498C6.95623 7.32752 6.98427 7.11818 6.93412 6.92056C6.88398 6.72295 6.75954 6.55229 6.5867 6.44415Z" fill="black"/>
<path d="M15.2398 3.45164C15.1733 3.37159 15.0916 3.30543 14.9995 3.25693C14.9074 3.20844 14.8066 3.17856 14.703 3.169C14.4937 3.1497 14.2852 3.21435 14.1236 3.34872C13.9619 3.4831 13.8602 3.6762 13.8409 3.88553C13.8216 4.09487 13.8863 4.3033 14.0206 4.46497C15.1891 5.88274 15.8281 7.66276 15.8281 9.49998C15.8281 11.3372 15.1891 13.1172 14.0206 14.535C13.954 14.615 13.9038 14.7073 13.8728 14.8068C13.8419 14.9062 13.8309 15.0108 13.8405 15.1145C13.8501 15.2181 13.88 15.3189 13.9286 15.411C13.9771 15.5031 14.0434 15.5848 14.1236 15.6512C14.266 15.7692 14.4452 15.8337 14.6302 15.8333C14.7465 15.8335 14.8614 15.8081 14.9668 15.7588C15.0722 15.7095 15.1654 15.6377 15.2398 15.5483C16.6452 13.846 17.414 11.7075 17.414 9.49998C17.414 7.29249 16.6452 5.15392 15.2398 3.45164Z" fill="black"/>
</g>
</svg>
