<svg width="23" height="23" viewBox="0 0 23 23" fill="none" xmlns="http://www.w3.org/2000/svg">
<path d="M14.9676 5.16756C13.6692 2.51628 10.9531 0.763428 7.90641 0.763428C3.54698 0.763428 0.000346179 4.28994 0.000346179 8.62457C0.000346179 9.80258 0.25325 10.9317 0.75241 11.9844L0.0134181 15.6798C-0.080646 16.1502 0.334332 16.566 0.804833 16.4729L4.54579 15.7333C5.04949 15.9722 5.57057 16.1539 6.10598 16.2791C4.90583 10.5948 9.21445 5.2591 14.9676 5.16756Z" fill="white"/>
<path d="M22.2476 17.7343C22.3767 17.4621 22.4889 17.1846 22.585 16.9027H22.5603C24.2425 11.9651 20.7048 6.77567 15.4823 6.52299C15.4822 6.52272 15.4821 6.52245 15.482 6.52218C10.9883 6.3151 7.25488 9.91308 7.25488 14.3745C7.25488 18.7055 10.7749 22.2292 15.1045 22.2355C16.2788 22.234 17.4045 21.9811 18.4541 21.4832C22.5512 22.2932 22.2317 22.2357 22.3258 22.2357C22.7516 22.2357 23.0697 21.8455 22.9866 21.4297L22.2476 17.7343Z" fill="white"/>
</svg>
