<svg width="19" height="19" viewBox="0 0 19 19" fill="none" xmlns="http://www.w3.org/2000/svg">
<g opacity="0.3">
<path d="M12.3646 4.26887C11.292 2.07869 9.04819 0.630676 6.53138 0.630676C2.93011 0.630676 0.000285974 3.54388 0.000285974 7.12466C0.000285974 8.0978 0.209207 9.03052 0.621556 9.90016L0.0110845 12.9529C-0.0666206 13.3415 0.276188 13.685 0.664862 13.6081L3.75522 12.9971C4.17132 13.1945 4.60177 13.3446 5.04407 13.448C4.05264 8.75224 7.61194 4.3445 12.3646 4.26887Z" fill="black"/>
<path d="M18.3784 14.65C18.4851 14.4251 18.5778 14.1959 18.6571 13.963H18.6368C20.0264 9.88416 17.104 5.59723 12.7897 5.3885C12.7896 5.38828 12.7896 5.38805 12.7895 5.38783C9.07733 5.21676 5.99316 8.189 5.99316 11.8745C5.99316 15.4523 8.90102 18.3632 12.4776 18.3684C13.4477 18.3671 14.3776 18.1583 15.2447 17.747C18.6293 18.4161 18.3653 18.3685 18.4431 18.3685C18.7948 18.3685 19.0576 18.0462 18.9889 17.7028L18.3784 14.65Z" fill="black"/>
</g>
</svg>
