<svg width="18" height="18" viewBox="0 0 18 18" fill="none" xmlns="http://www.w3.org/2000/svg">
<g opacity="0.3">
<path d="M15.8571 18H3.85707C3.17509 18 2.52104 17.7155 2.0388 17.2092C1.55656 16.7028 1.28564 16.016 1.28564 15.3V2.7C1.28564 1.98391 1.55656 1.29716 2.0388 0.790812C2.52104 0.284463 3.17509 0 3.85707 0H15.8571C16.0844 0 16.3024 0.0948241 16.4632 0.263601C16.6239 0.432387 16.7142 0.661302 16.7142 0.9V17.1C16.7142 17.3387 16.6239 17.5676 16.4632 17.7364C16.3024 17.9051 16.0844 18 15.8571 18ZM14.9999 16.2V14.4H3.85707C3.62974 14.4 3.41173 14.4949 3.25098 14.6636C3.09024 14.8324 2.99993 15.0613 2.99993 15.3C2.99993 15.5387 3.09024 15.7676 3.25098 15.9364C3.41173 16.1051 3.62974 16.2 3.85707 16.2H14.9999ZM8.99993 7.2C9.45456 7.2 9.89059 7.01036 10.2121 6.67279C10.5336 6.33523 10.7142 5.87739 10.7142 5.4C10.7142 4.92261 10.5336 4.46477 10.2121 4.12721C9.89059 3.78964 9.45456 3.6 8.99993 3.6C8.5453 3.6 8.10927 3.78964 7.78776 4.12721C7.46624 4.46477 7.28564 4.92261 7.28564 5.4C7.28564 5.87739 7.46624 6.33523 7.78776 6.67279C8.10927 7.01036 8.5453 7.2 8.99993 7.2ZM6.4285 10.8H11.5714C11.5714 10.084 11.3004 9.39717 10.8182 8.89083C10.336 8.38449 9.68187 8.1 8.99993 8.1C8.31799 8.1 7.6639 8.38449 7.18166 8.89083C6.69942 9.39717 6.4285 10.084 6.4285 10.8Z" fill="black"/>
</g>
</svg>
