<svg width="23" height="23" viewBox="0 0 23 23" fill="none" xmlns="http://www.w3.org/2000/svg">
<g opacity="0.2">
<path d="M14.9531 3C13.9221 3 12.9769 3.33112 12.1437 3.98419C11.3449 4.6103 10.8131 5.40776 10.5 5.98764C10.1869 5.40772 9.65509 4.6103 8.85631 3.98419C8.02313 3.33112 7.07788 3 6.04688 3C3.16971 3 1 5.38515 1 8.54809C1 11.9652 3.70687 14.3031 7.80471 17.8424C8.50058 18.4434 9.28934 19.1247 10.1092 19.8513C10.2172 19.9472 10.356 20 10.5 20C10.644 20 10.7828 19.9472 10.8908 19.8513C11.7107 19.1246 12.4995 18.4434 13.1957 17.842C17.2931 14.3031 20 11.9652 20 8.54809C20 5.38515 17.8303 3 14.9531 3Z" fill="black"/>
</g>
</svg>
