<svg width="18" height="18" viewBox="0 0 18 18" fill="none" xmlns="http://www.w3.org/2000/svg">

    <path d="M1.1296 11.9482V6.34961L2.18429 6.70117V11.9482C2.84013 12.1691 3.31396 12.7894 3.31396 13.5187V16.3429C3.31396 16.6341 3.07786 16.8703 2.78662 16.8703H0.527271C0.236037 16.8703 -7.24792e-05 16.6341 -7.24792e-05 16.3429V13.5187C-7.24792e-05 12.7894 0.473763 12.1691 1.1296 11.9482Z" fill="black"/>
<path d="M9.5 8.80638L14.6108 7.10278V10.6946C14.6108 10.8344 14.5553 10.9686 14.4564 11.0675C12.9987 12.5249 11.0608 13.3276 8.99965 13.3276C6.93848 13.3276 5.00073 12.5249 3.5434 11.0674C3.44451 10.9685 3.38896 10.8344 3.38896 10.6946V7.10278L8.49963 8.80635C8.84897 8.92268 9.20064 8.90612 9.5 8.80638Z" fill="black"/>
<path d="M9 7.83282C8.94368 7.83282 8.88736 7.82378 8.83325 7.80575L0.360598 4.98154C0.145266 4.90975 0 4.70824 0 4.48127C0 4.2543 0.145229 4.05278 0.360598 3.98099L8.83325 1.15679C8.94146 1.12075 9.05853 1.12075 9.16675 1.15679L17.6394 3.98099C17.8548 4.05275 18 4.25426 18 4.48127C18 4.70827 17.8548 4.90975 17.6394 4.98154L9.16675 7.80575C9.11264 7.82378 9.05632 7.83282 9 7.83282Z" fill="black"/>
</svg>
