<svg width="18" height="18" viewBox="0 0 18 18" fill="none" xmlns="http://www.w3.org/2000/svg">
<g opacity="0.3">
<path d="M2.75321 2.12427C2.75272 2.12427 2.75218 2.12427 2.75169 2.12427C2.58145 2.12427 2.42133 2.19063 2.30042 2.31124C2.17817 2.43318 2.11084 2.59554 2.11084 2.76839V12.4269C2.11084 12.7811 2.40011 13.0699 2.75575 13.0709C4.25503 13.0744 6.76692 13.3869 8.49977 15.2003V5.0924C8.49977 4.97234 8.4691 4.85955 8.41123 4.76622C6.98898 2.47578 4.25588 2.12778 2.75321 2.12427Z" fill="black"/>
<path d="M15.8889 12.4268V2.76827C15.8889 2.59542 15.8215 2.43306 15.6993 2.31112C15.5784 2.19051 15.4181 2.12415 15.2481 2.12415C15.2475 2.12415 15.247 2.12415 15.2465 2.12415C13.7439 2.12772 11.0108 2.47572 9.58848 4.76615C9.53061 4.85949 9.5 4.97228 9.5 5.09234V15.2002C11.2329 13.3868 13.7447 13.0743 15.244 13.0707C15.5996 13.0698 15.8889 12.781 15.8889 12.4268Z" fill="black"/>
<path d="M17.3559 4.35156H16.8889V12.4268C16.8889 13.3311 16.1521 14.0685 15.2464 14.0708C13.9747 14.0738 11.8779 14.3225 10.3928 15.728C12.9612 15.0991 15.6687 15.5079 17.2118 15.8596C17.4044 15.9034 17.6035 15.8581 17.7579 15.7351C17.9117 15.6123 17.9999 15.4289 17.9999 15.232V4.99557C18 4.64047 17.711 4.35156 17.3559 4.35156Z" fill="black"/>
<path d="M1.11103 12.4268V4.35156H0.644002C0.288971 4.35156 0 4.64047 0 4.99557V15.2318C0 15.4288 0.0882427 15.6122 0.242061 15.7349C0.396304 15.8579 0.595214 15.9034 0.788185 15.8594C2.33122 15.5077 5.03881 15.0989 7.60706 15.7278C6.12208 14.3223 4.02523 14.0737 2.75352 14.0707C1.84789 14.0685 1.11103 13.3311 1.11103 12.4268Z" fill="black"/>
</g>
</svg>
