<svg width="18" height="18" viewBox="0 0 18 18" fill="none" xmlns="http://www.w3.org/2000/svg">
<g opacity="0.3">
<path d="M14.625 6.75V2.23312C14.6246 1.79018 14.4484 1.36551 14.1352 1.05231C13.822 0.739102 13.3973 0.562947 12.9544 0.5625H2.23312C1.79018 0.562947 1.36551 0.739102 1.05231 1.05231C0.739102 1.36551 0.562947 1.79018 0.5625 2.23312V10.1813C0.563095 10.6241 0.739298 11.0487 1.05247 11.3619C1.36565 11.6751 1.79023 11.8513 2.23312 11.8519H3.33562V14.0625C3.33579 14.1718 3.3678 14.2787 3.42774 14.3701C3.48767 14.4615 3.57295 14.5335 3.67313 14.5772C3.74396 14.6087 3.82061 14.625 3.89812 14.625C4.03892 14.625 4.17461 14.5722 4.27837 14.4771L6.75 12.2124V9.16313C6.75149 8.52358 7.0062 7.91066 7.45843 7.45843C7.91066 7.0062 8.52358 6.75149 9.16313 6.75H14.625Z" fill="black"/>
<path d="M16.1494 7.875H9.16313C8.82158 7.8753 8.49412 8.01111 8.25261 8.25261C8.01111 8.49412 7.8753 8.82158 7.875 9.16313V14.3438C7.8753 14.6853 8.01111 15.0128 8.25261 15.2543C8.49412 15.4958 8.82158 15.6316 9.16313 15.6319H12.8756L14.6886 17.2901C14.7926 17.3852 14.9285 17.4378 15.0694 17.4375C15.1469 17.4375 15.2235 17.4212 15.2944 17.3897C15.3946 17.346 15.4798 17.274 15.5398 17.1826C15.5997 17.0912 15.6317 16.9843 15.6319 16.875V15.6319H16.1494C16.4909 15.6316 16.8184 15.4958 17.0599 15.2543C17.3014 15.0128 17.4372 14.6853 17.4375 14.3438V9.16313C17.4372 8.82158 17.3014 8.49412 17.0599 8.25261C16.8184 8.01111 16.4909 7.8753 16.1494 7.875Z" fill="black"/>
</g>
</svg>
