<svg width="26" height="26" viewBox="0 0 26 26" fill="none" xmlns="http://www.w3.org/2000/svg">
<g opacity="0.2">
<path d="M23.7148 12.2891H2.28516C1.02507 12.2891 0 13.3141 0 14.5742V23.7148C0 24.9749 1.02507 26 2.28516 26H23.7148C24.9749 26 26 24.9749 26 23.7148V14.5742C26 13.3141 24.975 12.2891 23.7148 12.2891ZM6.90625 22.9531H3.85938C3.43835 22.9531 3.09766 22.6124 3.09766 22.1914V16.0977C3.09766 15.6766 3.43835 15.3359 3.85938 15.3359C4.2804 15.3359 4.62109 15.6766 4.62109 16.0977V21.4297H6.90625C7.32728 21.4297 7.66797 21.7704 7.66797 22.1914C7.66797 22.6124 7.32728 22.9531 6.90625 22.9531ZM10.7148 22.1914C10.7148 22.6124 10.3742 22.9531 9.95312 22.9531C9.5321 22.9531 9.19141 22.6124 9.19141 22.1914V16.0977C9.19141 15.6766 9.5321 15.3359 9.95312 15.3359C10.3742 15.3359 10.7148 15.6766 10.7148 16.0977V22.1914ZM16.7855 16.2821L15.2621 22.3759C15.1773 22.7151 14.8731 22.9531 14.5234 22.9531C14.1738 22.9531 13.8696 22.7151 13.7848 22.3759L12.2613 16.2821C12.1587 15.8745 12.4071 15.4609 12.8155 15.359C13.2224 15.2534 13.6367 15.5048 13.7387 15.9132L14.5234 19.0508L15.3082 15.9132C15.4094 15.5048 15.823 15.2527 16.2314 15.359C16.6397 15.4609 16.8882 15.8745 16.7855 16.2821ZM22.1406 18.3828C22.5617 18.3828 22.9023 18.7235 22.9023 19.1445C22.9023 19.5656 22.5617 19.9062 22.1406 19.9062H19.8555V21.4297H22.1406C22.5617 21.4297 22.9023 21.7704 22.9023 22.1914C22.9023 22.6124 22.5617 22.9531 22.1406 22.9531H19.0938C18.6727 22.9531 18.332 22.6124 18.332 22.1914V16.0977C18.332 15.6766 18.6727 15.3359 19.0938 15.3359H22.1406C22.5617 15.3359 22.9023 15.6766 22.9023 16.0977C22.9023 16.5187 22.5617 16.8594 22.1406 16.8594H19.8555V18.3828H22.1406Z" fill="black"/>
<path d="M6.29642 10.3599C4.07372 7.39925 4.07372 3.26485 6.29642 0.304251C6.5486 -0.0312103 7.0269 -0.100425 7.36313 0.152516C7.69935 0.405458 7.76704 0.883005 7.51486 1.21923C5.69613 3.64053 5.69613 7.02363 7.51486 9.44488C7.76704 9.7811 7.69935 10.2586 7.36313 10.5116C7.02833 10.7628 6.54981 10.6976 6.29642 10.3599Z" fill="black"/>
<path d="M18.6372 10.5117C18.3009 10.2589 18.2332 9.78126 18.4854 9.44504C20.3042 7.02374 20.3042 3.64064 18.4854 1.21939C18.2332 0.883166 18.3009 0.405619 18.6372 0.152678C18.9734 -0.0995022 19.4524 -0.031049 19.7039 0.304412C21.9266 3.26501 21.9266 7.39942 19.7039 10.36C19.4509 10.6973 18.9726 10.7633 18.6372 10.5117Z" fill="black"/>
<path d="M9.02582 8.88699C7.21079 6.86072 7.21079 3.80343 9.02582 1.77711C9.30699 1.46394 9.79053 1.43865 10.1015 1.71759C10.4146 1.99801 10.4414 2.48007 10.161 2.79324C8.86515 4.24081 8.86515 6.42329 10.161 7.87086C10.4414 8.18402 10.4146 8.66604 10.1015 8.9465C9.78937 9.22656 9.30654 9.20107 9.02582 8.88699Z" fill="black"/>
<path d="M15.899 8.94634C15.5859 8.66593 15.5591 8.18386 15.8395 7.87069C17.1354 6.42312 17.1354 4.24065 15.8395 2.79308C15.5591 2.47991 15.5859 1.99789 15.899 1.71743C16.2114 1.43772 16.6942 1.46301 16.9747 1.77694C18.7897 3.80322 18.7897 6.8605 16.9747 8.88683C16.6941 9.20081 16.2112 9.22645 15.899 8.94634Z" fill="black"/>
<path d="M13 7.61719C11.7399 7.61719 10.7148 6.59212 10.7148 5.33203C10.7148 4.07195 11.7399 3.04688 13 3.04688C14.2601 3.04688 15.2852 4.07195 15.2852 5.33203C15.2852 6.59212 14.2601 7.61719 13 7.61719Z" fill="black"/>
</g>
</svg>
