<svg width="18" height="18" viewBox="0 0 18 18" fill="none" xmlns="http://www.w3.org/2000/svg">
<g opacity="0.3">
<path d="M17.4998 0.515625H4.49988C4.22376 0.515625 3.99982 0.739563 3.99982 1.01569V16.0157C3.99799 16.5582 3.81799 17.0854 3.4873 17.5157H15.4999C16.88 17.5142 17.9984 16.3958 17.9999 15.0156V1.01569C17.9999 0.739563 17.7759 0.515625 17.4998 0.515625V0.515625ZM14.4998 13.5156H7.49988C7.22376 13.5156 6.99982 13.2918 6.99982 13.0157C6.99982 12.7396 7.22376 12.5156 7.49988 12.5156H14.4998C14.7759 12.5156 14.9999 12.7396 14.9999 13.0157C14.9999 13.2918 14.7759 13.5156 14.4998 13.5156ZM14.4998 10.5156H7.49988C7.22376 10.5156 6.99982 10.2918 6.99982 10.0157C6.99982 9.73956 7.22376 9.51562 7.49988 9.51562H14.4998C14.7759 9.51562 14.9999 9.73956 14.9999 10.0157C14.9999 10.2918 14.7759 10.5156 14.4998 10.5156ZM14.4998 7.51556H7.49988C7.22376 7.51556 6.99982 7.29181 6.99982 7.01568C6.99982 6.73956 7.22376 6.51562 7.49988 6.51562H14.4998C14.7759 6.51562 14.9999 6.73956 14.9999 7.01568C14.9999 7.29181 14.7759 7.51556 14.4998 7.51556ZM14.4998 4.51556H7.49988C7.22376 4.51556 6.99982 4.29181 6.99982 4.01568C6.99982 3.73956 7.22376 3.51562 7.49988 3.51562H14.4998C14.7759 3.51562 14.9999 3.73956 14.9999 4.01568C14.9999 4.29181 14.7759 4.51556 14.4998 4.51556Z" fill="black"/>
<path d="M2.49994 2.51562H0.500061C0.223938 2.51562 0 2.73938 0 3.0155V16.0156C0 16.844 0.671631 17.5156 1.5 17.5156C2.32837 17.5156 3 16.844 3 16.0156V3.0155C3 2.73938 2.77606 2.51562 2.49994 2.51562Z" fill="black"/>
</g>
</svg>
