<svg width="18" height="18" viewBox="0 0 18 18" fill="none" xmlns="http://www.w3.org/2000/svg">
<g opacity="0.3">
<g clip-path="url(#clip0_128_911)">
<path d="M16.0343 12.6847C14.9003 11.7262 14.25 10.3252 14.25 8.841V6.75C14.25 4.11075 12.2895 1.926 9.75 1.56V0.75C9.75 0.33525 9.414 0 9 0C8.586 0 8.25 0.33525 8.25 0.75V1.56C5.70975 1.926 3.75 4.11075 3.75 6.75V8.841C3.75 10.3252 3.09975 11.7262 1.959 12.6907C1.66725 12.9405 1.5 13.3035 1.5 13.6875C1.5 14.4112 2.08875 15 2.8125 15H15.1875C15.9113 15 16.5 14.4112 16.5 13.6875C16.5 13.3035 16.3328 12.9405 16.0343 12.6847Z" fill="black"/>
<path d="M8.99988 18C10.3581 18 11.4944 17.0318 11.7554 15.75H6.24438C6.50538 17.0318 7.64163 18 8.99988 18Z" fill="black"/>
</g>
</g>
<defs>
<clipPath id="clip0_128_911">
<rect width="18" height="18" fill="white"/>
</clipPath>
</defs>
</svg>
