<svg width="18" height="18" viewBox="0 0 18 18" fill="none" xmlns="http://www.w3.org/2000/svg">
<g opacity="0.3">
<g clip-path="url(#clip0_128_788)">
<path d="M8.87186 8.67065C10.063 8.67065 11.0945 8.24342 11.9373 7.4005C12.7801 6.55771 13.2073 5.52651 13.2073 4.33519C13.2073 3.14427 12.7801 2.11294 11.9372 1.26988C11.0943 0.427229 10.0629 0 8.87186 0C7.68053 0 6.64932 0.427229 5.80653 1.27001C4.96375 2.1128 4.53638 3.14414 4.53638 4.33519C4.53638 5.52651 4.96375 6.55785 5.80667 7.40064C6.6496 8.24328 7.68094 8.67065 8.87186 8.67065V8.67065Z" fill="black"/>
<path d="M16.4577 13.8411C16.4333 13.4904 16.3842 13.1078 16.3118 12.7037C16.2388 12.2967 16.1447 11.9119 16.0321 11.5602C15.9158 11.1967 15.7576 10.8377 15.562 10.4937C15.359 10.1367 15.1206 9.82574 14.8531 9.5699C14.5734 9.30224 14.2309 9.08705 13.8348 8.93008C13.4401 8.77394 13.0027 8.69484 12.5349 8.69484C12.3511 8.69484 12.1734 8.77023 11.8302 8.99367C11.619 9.13141 11.3719 9.29071 11.0962 9.4669C10.8604 9.61714 10.541 9.7579 10.1464 9.88534C9.76149 10.0099 9.37065 10.0731 8.98489 10.0731C8.59914 10.0731 8.20844 10.0099 7.82309 9.88534C7.42896 9.75804 7.10953 9.61728 6.87401 9.46704C6.60086 9.29249 6.35367 9.13319 6.1393 8.99353C5.79652 8.7701 5.61868 8.6947 5.43494 8.6947C4.96692 8.6947 4.52966 8.77394 4.13512 8.93022C3.73933 9.08691 3.3967 9.30211 3.11668 9.57003C2.8493 9.82601 2.61076 10.1368 2.40807 10.4937C2.21265 10.8377 2.05444 11.1966 1.93799 11.5603C1.82552 11.912 1.73145 12.2967 1.65839 12.7037C1.58601 13.1072 1.53685 13.4899 1.51254 13.8415C1.48865 14.1859 1.47656 14.5434 1.47656 14.9044C1.47656 15.844 1.77525 16.6047 2.36426 17.1657C2.94598 17.7192 3.71571 18.0001 4.65175 18.0001H13.3189C14.2549 18.0001 15.0244 17.7194 15.6062 17.1657C16.1954 16.6051 16.494 15.8443 16.494 14.9043C16.4939 14.5416 16.4817 14.1839 16.4577 13.8411V13.8411Z" fill="black"/>
</g>
</g>
<defs>
<clipPath id="clip0_128_788">
<rect width="18" height="18" fill="white"/>
</clipPath>
</defs>
</svg>
