<svg width="19" height="20" viewBox="0 0 19 20" fill="none" xmlns="http://www.w3.org/2000/svg">
<path d="M9.00001 18C9.95913 18 10.7851 17.4207 11.1475 16.5938H6.85254C7.21495 17.4207 8.04091 18 9.00001 18Z" fill="#C5C5C5"/>
<path d="M13.8438 9.74569V8.71875C13.8438 6.53681 12.3934 4.68747 10.4063 4.08344V3.40625C10.4063 2.63084 9.77544 2 9.00003 2C8.22463 2 7.59378 2.63084 7.59378 3.40625V4.08344C5.6066 4.68747 4.15629 6.53678 4.15629 8.71875V9.74569C4.15629 11.6623 3.42572 13.4797 2.09919 14.8631C1.96919 14.9986 1.93266 15.1987 2.00635 15.3714C2.08004 15.5442 2.24972 15.6562 2.43754 15.6562H15.5625C15.7503 15.6562 15.92 15.5442 15.9937 15.3714C16.0674 15.1987 16.0308 14.9986 15.9009 14.8631C14.5743 13.4797 13.8438 11.6623 13.8438 9.74569ZM9.46878 3.89775C9.3145 3.88287 9.15816 3.875 9.00003 3.875C8.84191 3.875 8.68557 3.88287 8.53128 3.89775V3.40625C8.53128 3.14778 8.74157 2.9375 9.00003 2.9375C9.2585 2.9375 9.46878 3.14778 9.46878 3.40625V3.89775Z" fill="#C5C5C5"/>
<path d="M15.094 8.71878C15.094 8.97765 15.3039 9.18753 15.5627 9.18753C15.8216 9.18753 16.0315 8.97765 16.0315 8.71878C16.0315 6.84065 15.3001 5.07494 13.9721 3.7469C13.789 3.56387 13.4922 3.56384 13.3092 3.7469C13.1261 3.92997 13.1261 4.22675 13.3092 4.40981C14.4601 5.56078 15.094 7.09106 15.094 8.71878Z" fill="white"/>
<path d="M2.4375 9.18751C2.69637 9.18751 2.90625 8.97763 2.90625 8.71876C2.90625 7.09107 3.54012 5.56079 4.69106 4.40982C4.87412 4.22676 4.87412 3.92998 4.69106 3.74692C4.50803 3.56385 4.21122 3.56385 4.02816 3.74692C2.70012 5.07495 1.96875 6.84063 1.96875 8.71876C1.96875 8.97763 2.17862 9.18751 2.4375 9.18751Z" fill="#C5C5C5"/>
<path d="M18.5 5C18.5 7.48528 16.4853 9.5 14 9.5C11.5147 9.5 9.5 7.48528 9.5 5C9.5 2.51472 11.5147 0.5 14 0.5C16.4853 0.5 18.5 2.51472 18.5 5Z" fill="#FF0000" stroke="white"/>
<path d="M16 5C16 6.10457 15.1046 7 14 7C12.8954 7 12 6.10457 12 5C12 3.89543 12.8954 3 14 3C15.1046 3 16 3.89543 16 5Z" fill="white"/>
</svg>
