<svg width="18" height="18" viewBox="0 0 18 18" fill="none" xmlns="http://www.w3.org/2000/svg">
<g opacity="0.3">
<path d="M7.04324 14.0467L7.4999 12.4533C7.54972 12.2764 7.65925 12.1221 7.8099 12.0167C14.9633 4.86683 14.5666 5.2111 14.8999 5.03333V1C14.8991 0.735021 14.7935 0.481116 14.6062 0.293747C14.4188 0.106378 14.1649 0.000772995 13.8999 0H1.8999C1.63492 0.000772995 1.38102 0.106378 1.19365 0.293747C1.00628 0.481116 0.900675 0.735021 0.899902 1V17C0.900679 17.265 1.00629 17.5189 1.19365 17.7062C1.38102 17.8936 1.63492 17.9992 1.8999 18H13.8999C14.1649 17.9992 14.4188 17.8936 14.6062 17.7062C14.7935 17.5189 14.8991 17.265 14.8999 17V12.17L14.7832 12.2867C14.5927 12.468 14.3396 12.5692 14.0766 12.5692C13.8135 12.5692 13.5605 12.468 13.3699 12.2867C13.2886 12.2054 13.2221 12.1107 13.1732 12.0067L10.4866 14.6933C10.3773 14.8481 10.2166 14.9591 10.0332 15.0067L8.45657 15.46L8.2799 15.64C8.1871 15.7332 8.07685 15.8073 7.95543 15.8579C7.83401 15.9085 7.70381 15.9348 7.57226 15.9351C7.44071 15.9354 7.31039 15.9098 7.18873 15.8597C7.06708 15.8097 6.95647 15.7361 6.86324 15.6433C6.67493 15.4559 6.56879 15.2014 6.56817 14.9357C6.56786 14.8041 6.59346 14.6738 6.64352 14.5522C6.69357 14.4305 6.7671 14.3199 6.8599 14.2267L7.04324 14.0467ZM3.1399 2.66667H11.8066C11.8944 2.66755 11.9783 2.70305 12.0401 2.76547C12.1019 2.82788 12.1366 2.91217 12.1366 3C12.1366 3.08783 12.1019 3.17212 12.0401 3.23453C11.9783 3.29695 11.8944 3.33246 11.8066 3.33333H3.1399C3.05207 3.33246 2.96814 3.29695 2.90635 3.23453C2.84455 3.17212 2.80989 3.08783 2.80989 3C2.80989 2.91217 2.84455 2.82788 2.90635 2.76547C2.96814 2.70305 3.05207 2.66755 3.1399 2.66667ZM3.1399 4.33333H11.8066C11.8944 4.33421 11.9783 4.36972 12.0401 4.43213C12.1019 4.49455 12.1366 4.57883 12.1366 4.66667C12.1366 4.7545 12.1019 4.83878 12.0401 4.9012C11.9783 4.96362 11.8944 4.99912 11.8066 5H3.1399C3.05207 4.99912 2.96814 4.96362 2.90635 4.9012C2.84455 4.83878 2.80989 4.7545 2.80989 4.66667C2.80989 4.57883 2.84455 4.49455 2.90635 4.43213C2.96814 4.36972 3.05207 4.33421 3.1399 4.33333ZM3.1399 6H11.8066C11.8944 6.00088 11.9783 6.03638 12.0401 6.0988C12.1019 6.16122 12.1366 6.2455 12.1366 6.33333C12.1366 6.42117 12.1019 6.50545 12.0401 6.56787C11.9783 6.63028 11.8944 6.66579 11.8066 6.66667H3.1399C3.05207 6.66579 2.96814 6.63028 2.90635 6.56787C2.84455 6.50545 2.80989 6.42117 2.80989 6.33333C2.80989 6.2455 2.84455 6.16122 2.90635 6.0988C2.96814 6.03638 3.05207 6.00088 3.1399 6ZM3.1399 8.33333C3.05207 8.33246 2.96814 8.29695 2.90635 8.23453C2.84455 8.17212 2.80989 8.08783 2.80989 8C2.80989 7.91217 2.84455 7.82788 2.90635 7.76547C2.96814 7.70305 3.05207 7.66755 3.1399 7.66667H6.80657C6.8944 7.66755 6.97833 7.70305 7.04013 7.76547C7.10192 7.82788 7.13659 7.91217 7.13659 8C7.13659 8.08783 7.10192 8.17212 7.04013 8.23453C6.97833 8.29695 6.8944 8.33246 6.80657 8.33333H3.1399Z" fill="black"/>
<path d="M8.08641 12.8233L9.67974 14.4166L8.10641 14.8666L7.80641 15.17C7.74348 15.232 7.6586 15.2666 7.57026 15.2662C7.48193 15.2659 7.39731 15.2307 7.33485 15.1682C7.27239 15.1057 7.23715 15.0211 7.23682 14.9328C7.23649 14.8444 7.27109 14.7596 7.33308 14.6966L7.63641 14.3966L8.08641 12.8233Z" fill="black"/>
<path d="M15.1263 9.11004L14.8997 9.33671L10.2197 14.0167L8.48633 12.2834L13.393 7.37671C14.0018 7.98553 13.5627 7.54638 15.1263 9.11004Z" fill="black"/>
<path d="M17.6535 8.47669L14.3135 11.8167C14.2506 11.8784 14.1658 11.9127 14.0777 11.9121C13.9896 11.9116 13.9053 11.8762 13.8432 11.8136C13.7811 11.7511 13.7463 11.6666 13.7463 11.5784C13.7464 11.4903 13.7813 11.4058 13.8435 11.3434L16.4835 8.70336L16.0068 8.23002L15.5968 8.64002C15.1921 8.23536 14.2514 7.29465 13.8635 6.90669L14.9535 5.81669C15.1833 5.58683 15.4951 5.4577 15.8201 5.4577C16.1452 5.4577 16.4569 5.58683 16.6868 5.81669C16.9166 6.04654 17.0458 6.35829 17.0458 6.68335C17.0458 7.00842 16.9166 7.32017 16.6868 7.55002L16.4801 7.75669L16.9535 8.23336L17.1801 8.00336C17.2431 7.94162 17.3279 7.90723 17.4161 7.90767C17.5043 7.90811 17.5888 7.94334 17.6511 8.00571C17.7135 8.06807 17.7487 8.15253 17.7492 8.24072C17.7496 8.32891 17.7152 8.41371 17.6535 8.47669Z" fill="black"/>
</g>
</svg>
