<svg width="23" height="22" viewBox="0 0 23 22" fill="none" xmlns="http://www.w3.org/2000/svg">
<g opacity="0.3" clip-path="url(#clip0_128_923)">
<g clip-path="url(#clip1_128_923)">
<path d="M18.5633 14.6443C18.4081 14.5472 18.2254 14.5345 18.0432 14.5921C17.3431 14.8782 16.586 15.0524 15.8067 15.0793C15.0696 15.1199 14.3103 15.0132 13.55 14.7661C11.8394 14.21 10.5031 13.0051 9.74757 11.5219C8.99208 10.0388 8.80314 8.24941 9.35919 6.53874C9.59259 5.82068 9.94585 5.16493 10.363 4.6C10.815 3.99969 11.352 3.49707 11.9671 3.11324C12.2327 2.94271 12.3003 2.59107 12.1297 2.32549C12.0162 2.17184 11.861 2.07468 11.6783 2.062C9.72528 1.96424 7.81234 2.53333 6.22621 3.60561C4.68918 4.6705 3.48582 6.21747 2.86799 8.11821C2.11972 10.4202 2.36936 12.8131 3.39569 14.828C4.42202 16.8428 6.18966 18.4448 8.51279 19.2C10.4558 19.8315 12.4706 19.7392 14.2705 19.0867C16.0985 18.4199 17.683 17.137 18.7307 15.4226C18.9112 15.1544 18.8384 14.8038 18.5633 14.6443Z" fill="black"/>
</g>
</g>
<defs>
<clipPath id="clip0_128_923">
<rect width="17.3666" height="17.3666" fill="white" transform="translate(5.50684) rotate(18.0066)"/>
</clipPath>
<clipPath id="clip1_128_923">
<rect width="17.3666" height="17.3666" fill="white" transform="translate(5.50684) rotate(18.0066)"/>
</clipPath>
</defs>
</svg>
