<svg width="27" height="27" viewBox="0 0 27 27" fill="none" xmlns="http://www.w3.org/2000/svg">
<g opacity="0.2">
<path d="M25.1208 23.2714H23.3539V21.7915H3.81695V23.2714H2.10675V24.6946H0.797852V26.1762H26.3747V24.6946H25.1208V23.2714Z" fill="black"/>
<path d="M8.03192 20.5944V13.188H8.88617V12.2152C8.88617 11.62 8.40444 11.1375 7.8084 11.1375H4.03834C3.44316 11.1375 2.96143 11.62 2.96143 12.2152V13.188H3.87325V20.5944H8.03192Z" fill="black"/>
<path d="M23.3533 20.5944V13.188H24.2643V12.2169C24.2643 11.6217 23.7825 11.1392 23.1882 11.1392H19.4198C18.8246 11.1392 18.3438 11.6217 18.3438 12.2169V13.1889H19.2547V20.5944H23.3533Z" fill="black"/>
<path d="M15.6636 20.5944V13.188H16.5754V12.2152C16.5754 11.62 16.0937 11.1375 15.4993 11.1375H11.7293C11.1341 11.1375 10.6523 11.62 10.6523 12.2152V13.188H11.5058V20.5944H15.6636Z" fill="black"/>
<path d="M14.4851 1.07787C13.8687 0.738367 13.1271 0.738367 12.5132 1.07787L1.18359 7.34719C0.452949 7.75019 0 8.51893 0 9.35456V10.0573H27V9.35456C27 8.51978 26.5471 7.74934 25.8181 7.34634L14.4851 1.07787ZM9.20291 6.9806C9.09031 6.9806 8.99294 6.90525 8.96501 6.79603C8.93707 6.68766 8.98532 6.57421 9.08438 6.51918L12.5082 4.62188C13.1228 4.28322 13.8679 4.28322 14.4825 4.62188L17.9046 6.51918C18.0037 6.57337 18.0545 6.68682 18.0265 6.79603C17.9986 6.90525 17.9021 6.9806 17.7895 6.9806H9.20291Z" fill="black"/>
</g>
</svg>
