<svg width="375" height="425" viewBox="0 0 375 425" fill="none" xmlns="http://www.w3.org/2000/svg">
<path d="M228.297 337.707C222.286 336.908 218.054 331.429 218.847 325.47C219.64 319.513 225.157 315.331 231.17 316.132C237.181 316.933 241.412 322.41 240.618 328.369C239.826 334.327 234.31 338.507 228.297 337.707ZM252.275 333.343L249.657 331.522C249.236 331.228 249.015 330.72 249.101 330.217C249.193 329.684 249.263 329.152 249.309 328.62C249.355 328.114 249.696 327.68 250.178 327.503L253.166 326.405C253.754 326.189 254.113 325.598 254.028 324.979L253.683 322.468C253.598 321.849 253.095 321.371 252.469 321.317L249.282 321.035C248.767 320.989 248.323 320.656 248.141 320.175C247.956 319.677 247.748 319.187 247.52 318.706C247.303 318.242 247.374 317.694 247.704 317.298L249.739 314.859C250.14 314.379 250.15 313.689 249.766 313.196L248.2 311.187C247.816 310.694 247.138 310.531 246.568 310.792L243.678 312.123C243.209 312.339 242.657 312.271 242.259 311.943C241.848 311.607 241.419 311.285 240.977 310.979C240.552 310.685 240.336 310.174 240.423 309.667L240.952 306.544C241.057 305.93 240.717 305.327 240.136 305.089L237.769 304.123C237.188 303.887 236.518 304.079 236.159 304.589L234.328 307.18C234.033 307.598 233.521 307.816 233.013 307.729C232.477 307.635 231.94 307.566 231.403 307.518C230.891 307.472 230.454 307.132 230.274 306.655L229.159 303.69C228.939 303.105 228.341 302.75 227.719 302.831L225.184 303.168C224.562 303.249 224.081 303.749 224.026 304.37L223.751 307.527C223.705 308.035 223.374 308.477 222.893 308.654C222.386 308.839 221.888 309.045 221.398 309.271C220.932 309.485 220.382 309.409 219.986 309.082L217.519 307.059C217.034 306.661 216.337 306.649 215.841 307.029L213.82 308.576C213.322 308.956 213.158 309.628 213.424 310.192L214.775 313.062C214.993 313.526 214.925 314.073 214.597 314.468C214.257 314.876 213.934 315.297 213.626 315.736C213.33 316.158 212.813 316.368 212.303 316.283L209.151 315.75C208.533 315.646 207.924 315.981 207.686 316.555L206.717 318.9C206.479 319.476 206.676 320.139 207.191 320.498L209.809 322.318C210.231 322.611 210.452 323.119 210.365 323.622C210.273 324.154 210.204 324.686 210.156 325.219C210.112 325.725 209.77 326.159 209.289 326.335L206.301 327.434C205.712 327.651 205.354 328.243 205.439 328.86L205.782 331.373C205.867 331.99 206.372 332.467 206.998 332.523L210.183 332.804C210.697 332.85 211.142 333.18 211.322 333.657C211.511 334.161 211.72 334.655 211.948 335.14C212.167 335.602 212.091 336.148 211.763 336.54L209.728 338.98C209.327 339.459 209.316 340.151 209.701 340.644L211.266 342.652C211.65 343.145 212.329 343.31 212.897 343.046L215.788 341.715C216.256 341.499 216.81 341.569 217.208 341.895C217.619 342.232 218.046 342.555 218.49 342.861C218.915 343.155 219.13 343.667 219.044 344.173L218.515 347.295C218.41 347.908 218.75 348.514 219.331 348.75L221.697 349.715C222.279 349.953 222.947 349.76 223.307 349.25L225.138 346.659C225.434 346.242 225.946 346.023 226.452 346.111C226.99 346.203 227.527 346.275 228.064 346.322C228.576 346.366 229.013 346.706 229.193 347.184L230.308 350.151C230.527 350.734 231.126 351.091 231.748 351.007L234.283 350.673C234.905 350.589 235.386 350.089 235.44 349.471L235.716 346.312C235.762 345.802 236.096 345.362 236.581 345.183C237.082 345 237.577 344.796 238.062 344.573C238.529 344.355 239.082 344.428 239.481 344.757L241.948 346.78C242.432 347.177 243.129 347.191 243.626 346.81L245.647 345.263C246.143 344.884 246.308 344.213 246.043 343.648L244.692 340.779C244.474 340.313 244.542 339.765 244.87 339.371C245.21 338.965 245.533 338.541 245.841 338.103C246.137 337.683 246.653 337.47 247.163 337.557L250.314 338.089C250.934 338.195 251.543 337.86 251.781 337.283L252.75 334.939C252.988 334.364 252.79 333.7 252.275 333.343Z" fill="#002BFF"/>
<path d="M265.083 318.337C261.141 316.846 259.145 312.47 260.622 308.564C262.101 304.659 266.494 302.7 270.436 304.193C274.377 305.684 276.375 310.06 274.897 313.966C273.418 317.871 269.025 319.829 265.083 318.337ZM281.998 319.173L280.514 317.528C280.274 317.262 280.205 316.883 280.344 316.557C280.49 316.212 280.621 315.863 280.737 315.51C280.847 315.173 281.146 314.935 281.5 314.891L283.696 314.621C284.13 314.568 284.465 314.223 284.506 313.793L284.669 312.037C284.71 311.607 284.443 311.204 284.03 311.068L281.918 310.372C281.577 310.26 281.328 309.964 281.282 309.611C281.235 309.244 281.172 308.88 281.094 308.519C281.019 308.169 281.155 307.81 281.441 307.595L283.203 306.267C283.55 306.005 283.666 305.539 283.484 305.145L282.743 303.538C282.559 303.144 282.127 302.926 281.701 303.013L279.533 303.457C279.183 303.53 278.819 303.396 278.602 303.112C278.377 302.818 278.139 302.532 277.888 302.257C277.646 301.99 277.582 301.609 277.719 301.281L278.571 299.251C278.739 298.853 278.605 298.389 278.25 298.137L276.8 297.111C276.444 296.857 275.961 296.883 275.637 297.17L273.989 298.634C273.723 298.87 273.342 298.936 273.012 298.797C272.663 298.651 272.312 298.518 271.956 298.401C271.616 298.289 271.375 297.99 271.329 297.638L271.042 295.455C270.986 295.026 270.637 294.69 270.204 294.647L268.436 294.474C268.002 294.431 267.597 294.693 267.463 295.105L266.776 297.197C266.666 297.534 266.372 297.78 266.018 297.823C265.646 297.869 265.275 297.93 264.91 298.005C264.56 298.078 264.199 297.939 263.983 297.655L262.633 295.895C262.368 295.55 261.899 295.431 261.503 295.61L259.891 296.337C259.494 296.516 259.278 296.944 259.368 297.369L259.828 299.523C259.903 299.873 259.771 300.232 259.485 300.448C259.191 300.669 258.905 300.903 258.628 301.152C258.361 301.39 257.979 301.452 257.647 301.313L255.599 300.455C255.196 300.286 254.732 300.415 254.479 300.767L253.453 302.2C253.202 302.552 253.229 303.032 253.521 303.356L255.006 305.002C255.245 305.267 255.313 305.646 255.176 305.973C255.029 306.318 254.899 306.668 254.783 307.02C254.672 307.357 254.372 307.595 254.018 307.639L251.823 307.909C251.39 307.963 251.055 308.307 251.014 308.739L250.851 310.493C250.81 310.923 251.075 311.326 251.49 311.464L253.601 312.157C253.941 312.27 254.191 312.562 254.237 312.914C254.285 313.284 254.348 313.652 254.426 314.017C254.501 314.364 254.363 314.721 254.079 314.935L252.316 316.265C251.969 316.525 251.854 316.99 252.036 317.385L252.777 318.991C252.959 319.386 253.392 319.603 253.819 319.517L255.985 319.073C256.337 319 256.699 319.134 256.918 319.418C257.143 319.712 257.381 319.998 257.632 320.275C257.874 320.54 257.938 320.921 257.8 321.251L256.949 323.279C256.78 323.678 256.915 324.141 257.27 324.392L258.718 325.421C259.075 325.672 259.558 325.647 259.883 325.36L261.53 323.896C261.797 323.66 262.178 323.593 262.508 323.733C262.856 323.881 263.208 324.013 263.563 324.129C263.902 324.241 264.145 324.54 264.191 324.892L264.476 327.075C264.532 327.505 264.881 327.84 265.316 327.882L267.084 328.056C267.518 328.098 267.922 327.836 268.056 327.425L268.743 325.332C268.854 324.994 269.151 324.749 269.507 324.705C269.876 324.661 270.241 324.601 270.605 324.527C270.957 324.453 271.319 324.591 271.536 324.875L272.886 326.635C273.15 326.98 273.621 327.099 274.017 326.92L275.628 326.193C276.024 326.014 276.242 325.586 276.152 325.161L275.691 323.007C275.616 322.658 275.749 322.298 276.035 322.084C276.329 321.861 276.614 321.626 276.891 321.378C277.158 321.14 277.541 321.079 277.872 321.217L279.921 322.075C280.324 322.245 280.788 322.114 281.039 321.762L282.066 320.329C282.318 319.977 282.289 319.498 281.998 319.173Z" fill="#002BFF"/>
<path d="M220.175 240.183L156.12 230.612C155.705 230.612 155.567 230.998 155.567 231.368V285.867C155.567 291.084 119.173 304.642 118.818 303.953L118.773 309.719C118.771 310.794 119.666 311.521 120.919 311.746L175.442 321.72C177.934 321.72 180.396 321.162 182.653 320.217L212.182 307.783C217.498 305.544 220.85 300.737 220.85 295.494V240.939C220.85 240.569 220.59 240.183 220.175 240.183Z" fill="#002BFF"/>
<path d="M149.08 227.438V281.948C149.08 287.322 145.622 292.218 140.189 294.537L120.269 303.04C118.968 303.595 119.276 305.096 120.854 305.339L175.585 315.311C178.046 315.311 180.477 314.825 182.703 313.888L204.774 304.596C210.248 302.291 213.74 297.376 213.74 291.975V237.41C213.74 237.187 213.537 237.006 213.287 237.006L149.534 227.033C149.284 227.033 149.08 227.214 149.08 227.438Z" fill="white"/>
<path d="M149.466 227.443V281.949C149.466 287.445 145.884 292.526 140.34 294.891L120.42 303.394C120.021 303.564 119.806 303.85 119.845 304.157C119.883 304.457 120.185 304.848 120.912 304.958L175.62 314.927C178.002 314.922 180.399 314.441 182.553 313.535L204.624 304.241C209.928 302.009 213.355 297.194 213.355 291.975V237.41C213.352 237.41 213.289 237.395 213.228 237.386L149.513 227.419C149.486 227.424 149.471 227.436 149.466 227.443ZM175.584 315.695C175.562 315.695 175.539 315.694 175.516 315.69L120.785 305.716C119.848 305.573 119.175 304.997 119.082 304.253C118.999 303.595 119.396 302.995 120.118 302.685L140.038 294.183C145.297 291.939 148.696 287.137 148.696 281.949V227.438C148.696 227.003 149.071 226.649 149.534 226.649C149.554 226.649 149.573 226.651 149.593 226.653L213.321 236.621C213.766 236.638 214.125 236.987 214.125 237.41V291.975C214.125 297.504 210.513 302.597 204.923 304.951L182.852 314.243C180.593 315.194 178.08 315.695 175.584 315.695Z" fill="#002BFF"/>
<path d="M319.753 283.864L312.608 290.535L53.846 245.757C50.2735 245.138 47.6837 242.01 47.7437 238.386L50.4783 73.1595L59.0524 68.5559C60.6263 67.7178 62.437 67.4339 64.1924 67.7501L315.687 113.123C319.461 113.805 322.206 117.089 322.206 120.924L322.261 278.079C322.261 280.271 321.353 282.365 319.753 283.864Z" fill="#002BFF"/>
<path d="M306.848 291.405L53.2147 245.607C50.0619 245.04 47.7686 242.294 47.7686 239.09V79.6297C47.7686 75.5021 51.5053 72.3792 55.5685 73.1119L309.203 118.91C312.355 119.479 314.648 122.223 314.648 125.428V284.888C314.648 289.015 310.911 292.138 306.848 291.405Z" fill="white"/>
<path d="M306.917 291.026C308.743 291.356 310.604 290.863 312.027 289.673C313.448 288.485 314.264 286.741 314.264 284.888V125.428C314.264 122.407 312.107 119.824 309.134 119.287L55.5004 73.491C53.6763 73.1612 51.8141 73.6542 50.3917 74.8442C48.9694 76.0325 48.1535 77.7767 48.1535 79.6297V239.09C48.1535 242.111 50.311 244.693 53.2835 245.23L306.917 291.026ZM308.032 291.895C307.617 291.895 307.197 291.858 306.781 291.783L53.1468 245.987C49.8078 245.383 47.3843 242.483 47.3843 239.09V79.6297C47.3843 77.5489 48.3007 75.5888 49.8984 74.2526C51.4961 72.9181 53.5871 72.3639 55.6371 72.7345L309.271 118.531C312.61 119.134 315.034 122.034 315.034 125.428V284.888C315.034 286.968 314.118 288.929 312.52 290.265C311.247 291.327 309.661 291.895 308.032 291.895Z" fill="#002BFF"/>
<path d="M283.433 195.413C285.151 195.716 286.772 195.32 287.989 194.298C289.228 193.256 289.911 191.689 289.911 189.887V134.331C289.911 130.58 286.945 127.01 283.3 126.369L229.247 116.883C227.528 116.581 225.908 116.977 224.691 117.999C223.452 119.041 222.768 120.606 222.768 122.41V177.966C222.768 181.716 225.735 185.286 229.38 185.926L283.433 195.413ZM284.548 196.282C284.14 196.282 283.722 196.245 283.3 196.171L229.247 186.684C225.25 185.982 222 182.072 222 177.966V122.41C222 120.375 222.78 118.6 224.196 117.41C225.59 116.239 227.431 115.784 229.38 116.125L283.433 125.613C287.429 126.313 290.68 130.223 290.68 134.331V189.887C290.68 191.921 289.9 193.696 288.483 194.886C287.392 195.803 286.025 196.282 284.548 196.282Z" fill="#002BFF"/>
<path d="M260.768 132.792V150.695C260.768 150.882 260.632 151.043 260.447 151.074C255.576 151.88 250.398 156.529 250.398 163.557C250.398 171.807 257.01 179.68 265.137 181.106C268.989 181.783 272.621 180.888 275.361 178.587C278.123 176.266 279.647 172.8 279.647 168.825C279.647 162.211 275.356 155.547 269.214 152.619C269.079 152.556 268.995 152.42 268.995 152.272V134.235L260.768 132.792ZM267.618 182.097C266.761 182.097 265.887 182.021 265.003 181.864C256.527 180.377 249.63 172.164 249.63 163.557C249.63 156.261 254.912 151.378 260 150.373V132.333C260 132.221 260.049 132.112 260.136 132.039C260.224 131.966 260.338 131.935 260.45 131.956L269.445 133.533C269.63 133.566 269.765 133.725 269.765 133.912V152.033C276.046 155.135 280.415 162.005 280.415 168.825C280.415 173.031 278.797 176.706 275.856 179.175C273.571 181.094 270.71 182.097 267.618 182.097Z" fill="#002BFF"/>
<path d="M268.526 177.466C268.342 177.466 268.179 177.334 268.147 177.147C268.111 176.938 268.252 176.739 268.461 176.703C272.058 176.089 274.678 173.218 275.135 169.39C275.161 169.179 275.35 169.028 275.562 169.053C275.773 169.079 275.924 169.271 275.899 169.48C275.401 173.657 272.531 176.788 268.59 177.461C268.57 177.465 268.548 177.466 268.526 177.466Z" fill="#002BFF"/>
<path d="M249.77 157.522V142.859L242.934 141.659V156.322L229.483 175.911L263.82 181.937L249.77 157.522Z" fill="white"/>
<path d="M254.445 165.5L239.024 162.794L229.483 175.911L263.82 181.937L254.445 165.5Z" fill="#002BFF"/>
<path d="M230.146 175.452L263.079 181.232L250.334 158.996C249.831 158.12 249.565 157.155 249.565 156.206V143.029L243.498 141.964V155.026C243.498 155.975 243.233 156.852 242.73 157.568L230.146 175.452ZM263.82 182.138C263.798 182.138 263.776 182.136 263.754 182.131L229.417 176.105C229.288 176.083 229.179 175.994 229.128 175.873C229.079 175.751 229.094 175.612 229.169 175.505L242.101 157.124C242.512 156.541 242.73 155.815 242.73 155.026V141.506C242.73 141.392 242.779 141.285 242.866 141.212C242.954 141.139 243.068 141.108 243.18 141.127L250.016 142.327C250.201 142.36 250.336 142.519 250.336 142.706V156.206C250.336 157.02 250.565 157.853 251.002 158.613L264.155 181.562C264.228 181.691 264.221 181.852 264.134 181.973C264.063 182.077 263.944 182.138 263.82 182.138Z" fill="#002BFF"/>
<path d="M245.56 135.85C245.56 136.843 244.778 137.51 243.813 137.34C242.847 137.17 242.063 136.228 242.063 135.237C242.063 134.244 242.847 133.576 243.813 133.746C244.778 133.916 245.56 134.858 245.56 135.85Z" fill="#002BFF"/>
<path d="M151.549 103.516C150.25 103.516 149.055 103.933 148.104 104.732C146.865 105.774 146.182 107.34 146.182 109.143V164.699C146.182 168.448 149.147 172.02 152.793 172.659L206.845 182.147C208.567 182.449 210.183 182.053 211.401 181.031C212.64 179.989 213.323 178.424 213.323 176.62V121.062C213.323 117.314 210.358 113.744 206.712 113.103L152.66 103.617C152.283 103.55 151.912 103.516 151.549 103.516ZM207.961 183.015C207.552 183.015 207.135 182.978 206.712 182.905L152.66 173.417C148.664 172.715 145.412 168.805 145.412 164.699V109.143C145.412 107.108 146.192 105.334 147.61 104.144C149.004 102.972 150.845 102.517 152.793 102.858L206.845 112.346C210.841 113.047 214.093 116.957 214.093 121.062V176.62C214.093 178.653 213.311 180.43 211.895 181.62C210.804 182.536 209.437 183.015 207.961 183.015Z" fill="#002BFF"/>
<path d="M179.77 143.783C178.558 145.989 176.487 147.018 175.144 146.081C173.801 145.144 173.694 142.596 174.905 140.391C176.117 138.185 178.187 137.156 179.53 138.093C180.873 139.029 180.981 141.578 179.77 143.783ZM190.582 135.527C187.779 135.147 183.202 135.354 182.558 134.48C181.912 133.605 185.807 129.739 186.278 126.446C186.75 123.155 185.717 116.712 176.008 116.117C168.037 115.627 151.188 121.734 150.651 140.529C149.551 179.051 191.911 171.207 194.807 149.029C196.112 139.026 193.387 135.908 190.582 135.527Z" fill="white"/>
<path d="M178.405 138.132C178.254 138.132 178.099 138.151 177.941 138.186C176.945 138.419 175.937 139.313 175.243 140.576C174.143 142.577 174.199 144.954 175.364 145.767C175.745 146.032 176.217 146.108 176.734 145.988C177.73 145.755 178.738 144.86 179.432 143.599C180.532 141.598 180.476 139.22 179.311 138.409C179.048 138.224 178.74 138.132 178.405 138.132ZM176.265 146.814C175.775 146.814 175.32 146.673 174.924 146.397C173.402 145.335 173.246 142.615 174.568 140.206C175.366 138.754 176.561 137.72 177.766 137.438C178.5 137.265 179.187 137.384 179.752 137.777C181.275 138.839 181.429 141.559 180.107 143.968C179.31 145.42 178.114 146.455 176.909 146.736C176.69 146.788 176.474 146.814 176.265 146.814ZM171.401 167.926C170.716 167.926 170.033 167.897 169.356 167.836C163.785 167.338 159.074 164.871 155.732 160.703C151.861 155.875 150.022 149.083 150.267 140.519C150.472 133.278 153.177 127.08 158.085 122.594C163.724 117.439 171.16 115.433 176.032 115.733C180.061 115.979 183.026 117.237 184.843 119.468C187.011 122.128 186.835 125.273 186.659 126.5C186.393 128.357 185.125 130.331 184.105 131.917C183.546 132.785 182.781 133.977 182.873 134.263C183.18 134.676 185.555 134.8 187.289 134.89C188.076 134.931 188.891 134.973 189.637 135.038C189.85 135.057 190.006 135.244 189.987 135.454C189.969 135.667 189.782 135.827 189.571 135.805C188.838 135.74 188.031 135.697 187.249 135.658C184.478 135.514 182.752 135.391 182.249 134.708C181.793 134.091 182.421 133.115 183.458 131.5C184.437 129.977 185.656 128.081 185.897 126.392C186.059 125.263 186.222 122.378 184.246 119.954C182.57 117.895 179.791 116.734 175.984 116.501C171.427 116.219 164.047 118.186 158.604 123.162C153.786 127.566 151.239 133.413 151.035 140.541C150.591 156.082 157.466 166 169.424 167.069C180.039 168.018 192.597 161.119 194.375 149.335C194.407 149.126 194.603 148.985 194.814 149.012C195.023 149.044 195.167 149.24 195.137 149.45C194.302 154.972 191.002 159.939 185.843 163.436C181.564 166.337 176.401 167.926 171.401 167.926Z" fill="#002BFF"/>
<path d="M182.3 126.871C182.3 128.77 180.792 130.043 178.934 129.717C177.074 129.39 175.566 127.587 175.566 125.689C175.566 123.791 177.074 122.517 178.934 122.844C180.792 123.17 182.3 124.972 182.3 126.871Z" fill="#002BFF"/>
<path d="M171.76 126.13C171.76 128.029 170.252 129.302 168.394 128.976C166.534 128.649 165.028 126.847 165.028 124.948C165.028 123.049 166.534 121.776 168.394 122.102C170.252 122.429 171.76 124.231 171.76 126.13Z" fill="#002BFF"/>
<path d="M163.491 132.454C163.491 134.353 161.985 135.626 160.125 135.3C158.267 134.973 156.759 133.17 156.759 131.272C156.759 129.373 158.267 128.1 160.125 128.426C161.985 128.753 163.491 130.555 163.491 132.454Z" fill="#002BFF"/>
<path d="M160.861 142.453C160.861 144.352 159.353 145.625 157.495 145.301C155.635 144.974 154.127 143.171 154.127 141.272C154.127 139.375 155.635 138.1 157.495 138.426C159.353 138.752 160.861 140.556 160.861 142.453Z" fill="#002BFF"/>
<path d="M191.822 139.492L195.137 144.347L168.651 159.123L163.651 160.189C163.651 160.189 166.616 156.385 166.81 156.249L191.822 139.492Z" fill="white"/>
<path d="M191.821 139.492L195.136 144.347L189.271 147.62L186.233 143.237L191.821 139.492Z" fill="white"/>
<path d="M186.772 143.339L189.387 147.113L194.58 144.216L191.719 140.024L186.772 143.339ZM189.271 148.004C189.149 148.004 189.028 147.944 188.953 147.837L185.917 143.454C185.858 143.371 185.836 143.266 185.856 143.164C185.875 143.063 185.933 142.973 186.019 142.917L191.607 139.172C191.782 139.055 192.02 139.101 192.139 139.276L195.454 144.129C195.514 144.219 195.536 144.33 195.51 144.435C195.485 144.541 195.417 144.629 195.323 144.682L189.458 147.954C189.399 147.988 189.334 148.004 189.271 148.004Z" fill="#002BFF"/>
<path d="M195.587 133.491C192.617 135.431 191.577 137.522 191.771 139.497C191.771 139.499 191.771 139.5 191.771 139.5L195.137 144.381C195.137 144.381 195.143 144.384 195.147 144.386C196.974 145.33 199.387 145.195 202.387 143.235C206.843 140.323 209.699 131.362 209.699 131.362C209.699 131.362 200.043 130.579 195.587 133.491Z" fill="#002BFF"/>
<path d="M191.822 139.492L195.137 144.347L168.651 159.123L163.651 160.189C163.651 160.189 166.616 156.385 166.81 156.249L191.822 139.492Z" fill="white"/>
<path d="M167.046 156.555C166.84 156.76 165.628 158.289 164.606 159.593L168.513 158.76L194.581 144.216L191.72 140.024L167.046 156.555ZM163.651 160.573C163.52 160.573 163.398 160.505 163.326 160.392C163.239 160.256 163.248 160.079 163.348 159.953C165.339 157.398 166.429 156.046 166.588 155.934L191.607 139.172C191.782 139.055 192.02 139.101 192.139 139.276L195.454 144.129C195.514 144.219 195.536 144.33 195.51 144.435C195.485 144.541 195.417 144.629 195.323 144.682L168.838 159.46C168.804 159.479 168.768 159.492 168.73 159.499L163.732 160.565C163.705 160.57 163.678 160.573 163.651 160.573Z" fill="#002BFF"/>
<path d="M127.463 246.73C129.184 247.032 130.802 246.636 132.019 245.614C133.258 244.572 133.941 243.007 133.941 241.203V185.647C133.941 181.897 130.975 178.327 127.33 177.687L73.2776 168.2C71.5575 167.897 69.9386 168.293 68.7217 169.315C67.4817 170.357 66.799 171.923 66.799 173.726V229.282C66.799 233.033 69.7648 236.603 73.4105 237.244L127.463 246.73ZM128.578 247.598C128.169 247.598 127.752 247.563 127.33 247.488L73.2776 238C69.2812 237.3 66.0298 233.388 66.0298 229.282V173.726C66.0298 171.692 66.8101 169.917 68.227 168.727C69.6209 167.555 71.4614 167.1 73.4105 167.442L127.463 176.929C131.459 177.631 134.71 181.541 134.71 185.647V241.203C134.71 243.238 133.93 245.013 132.513 246.203C131.421 247.119 130.055 247.598 128.578 247.598Z" fill="#002BFF"/>
<path d="M93.4793 188.148L93.0329 224.905C93.0178 226.139 94.0367 227.365 95.256 227.577L104.998 229.288C106.111 229.483 106.989 228.759 107.002 227.632L107.449 190.873C107.464 189.64 106.445 188.414 105.226 188.2L95.4839 186.492C94.3704 186.296 93.4931 187.02 93.4793 188.148Z" fill="white"/>
<path d="M80.0462 199.505L79.961 209.146C79.9501 210.377 80.9679 211.597 82.1843 211.812L118.443 218.175C119.559 218.372 120.437 217.643 120.448 216.512L120.533 206.871C120.544 205.641 119.526 204.42 118.31 204.206L82.051 197.843C80.9348 197.647 80.0562 198.375 80.0462 199.505Z" fill="#002BFF"/>
<path d="M95.3025 178.57C89.6677 178.57 84.4699 180.385 80.3284 183.864C74.9378 188.391 71.969 195.179 71.969 202.978C71.969 218.999 84.6484 234.258 100.233 236.994C107.688 238.301 114.71 236.574 120.005 232.127C125.396 227.599 128.365 220.811 128.365 213.012C128.365 196.991 115.685 181.732 100.1 178.996C98.4761 178.711 96.8723 178.57 95.3025 178.57ZM105.036 238.189C103.42 238.189 101.771 238.044 100.1 237.752C84.1646 234.954 71.1997 219.356 71.1997 202.978C71.1997 194.948 74.266 187.949 79.8337 183.274C85.3063 178.679 92.5516 176.89 100.233 178.238C116.169 181.035 129.134 196.634 129.134 213.012C129.134 221.043 126.067 228.04 120.5 232.716C116.217 236.312 110.849 238.189 105.036 238.189Z" fill="#002BFF"/>
<path d="M283.693 274.13C285.413 274.433 287.032 274.036 288.249 273.015C289.488 271.973 290.171 270.405 290.171 268.603V213.046C290.171 209.297 287.205 205.727 283.56 205.086L229.509 195.6C227.788 195.298 226.17 195.694 224.953 196.715C223.712 197.758 223.03 199.323 223.03 201.127V256.683C223.03 260.433 225.995 264.003 229.641 264.642L283.693 274.13ZM284.808 274.999C284.4 274.999 283.982 274.961 283.56 274.888L229.509 265.4C225.512 264.698 222.26 260.788 222.26 256.683V201.127C222.26 199.092 223.04 197.317 224.458 196.127C225.852 194.956 227.693 194.5 229.641 194.842L283.693 204.33C287.689 205.03 290.94 208.94 290.94 213.046V268.603C290.94 270.636 290.16 272.413 288.743 273.603C287.652 274.519 286.285 274.999 284.808 274.999Z" fill="#002BFF"/>
<path d="M283.46 224.948C283.373 224.948 283.285 224.919 283.213 224.857L271.942 215.344C271.779 215.206 271.759 214.963 271.896 214.802C272.032 214.639 272.276 214.618 272.437 214.756L283.708 224.269C283.871 224.407 283.892 224.648 283.756 224.812C283.679 224.902 283.57 224.948 283.46 224.948Z" fill="#002BFF"/>
<path d="M282.01 226.986C281.922 226.986 281.835 226.955 281.762 226.894L270.768 217.614C270.605 217.478 270.584 217.235 270.722 217.071C270.858 216.91 271.101 216.888 271.264 217.027L282.258 226.308C282.422 226.444 282.442 226.687 282.304 226.85C282.228 226.94 282.119 226.986 282.01 226.986Z" fill="#002BFF"/>
<path d="M280.56 229.024C280.471 229.024 280.383 228.993 280.312 228.932L269.42 219.739C269.258 219.603 269.238 219.36 269.376 219.196C269.512 219.035 269.753 219.013 269.916 219.152L280.808 228.346C280.97 228.482 280.99 228.725 280.854 228.886C280.777 228.976 280.669 229.024 280.56 229.024Z" fill="#002BFF"/>
<path d="M279.108 231.061C279.022 231.061 278.933 231.032 278.86 230.971L268.124 221.906C267.961 221.77 267.941 221.527 268.079 221.366C268.215 221.202 268.458 221.18 268.621 221.32L279.357 230.382C279.52 230.52 279.54 230.761 279.402 230.925C279.328 231.015 279.219 231.061 279.108 231.061Z" fill="#002BFF"/>
<path d="M277.658 233.099C277.569 233.099 277.483 233.068 277.409 233.007L266.353 223.674C266.191 223.538 266.171 223.295 266.307 223.132C266.444 222.97 266.686 222.948 266.849 223.088L277.906 232.421C278.069 232.557 278.089 232.8 277.952 232.963C277.875 233.051 277.766 233.099 277.658 233.099Z" fill="#002BFF"/>
<path d="M276.206 235.135C276.119 235.135 276.031 235.107 275.959 235.045L264.722 225.561C264.561 225.423 264.54 225.18 264.676 225.019C264.814 224.857 265.056 224.835 265.219 224.973L276.456 234.457C276.617 234.595 276.638 234.836 276.5 234.999C276.425 235.09 276.316 235.135 276.206 235.135Z" fill="#002BFF"/>
<path d="M274.756 237.174C274.669 237.174 274.581 237.143 274.508 237.082L263.607 227.88C263.444 227.744 263.424 227.501 263.561 227.339C263.697 227.178 263.939 227.156 264.104 227.293L275.004 236.496C275.167 236.632 275.188 236.875 275.05 237.038C274.974 237.128 274.867 237.174 274.756 237.174Z" fill="#002BFF"/>
<path d="M273.306 239.212C273.218 239.212 273.129 239.182 273.058 239.12L262.149 229.913C261.986 229.775 261.965 229.532 262.103 229.371C262.239 229.209 262.482 229.187 262.645 229.325L273.554 238.532C273.716 238.67 273.736 238.913 273.6 239.074C273.524 239.165 273.415 239.212 273.306 239.212Z" fill="#002BFF"/>
<path d="M285.512 221.682L286.149 220.786C286.483 220.32 286.338 219.592 285.828 219.162L274.851 209.897C273.707 208.932 272.177 208.996 271.434 210.04L238.844 255.814C238.14 256.806 238.446 258.349 239.53 259.264C240.613 260.178 242.063 260.117 242.769 259.128L259.16 236.105C259.5 235.625 260.202 235.596 260.728 236.038L268.9 242.937C269.41 243.369 270.093 243.34 270.425 242.874L271.062 241.978C271.394 241.512 271.249 240.785 270.739 240.355L262.9 233.736C262.191 233.138 261.991 232.128 262.452 231.481L273.996 215.266C274.476 214.593 275.463 214.55 276.203 215.174L283.989 221.746C284.499 222.176 285.18 222.148 285.512 221.682Z" fill="#002BFF"/>
<path d="M285.512 221.682H285.517H285.512ZM273.09 209.598C273.012 209.598 272.933 209.603 272.855 209.612C272.393 209.671 272.009 209.896 271.747 210.265L239.158 256.037C238.566 256.867 238.845 258.182 239.777 258.97C240.27 259.384 240.866 259.583 241.419 259.514C241.851 259.459 242.209 259.248 242.454 258.903L258.846 235.882C259.056 235.586 259.374 235.397 259.742 235.351C260.165 235.297 260.617 235.442 260.976 235.746L269.148 242.643C269.336 242.803 269.562 242.877 269.763 242.854C269.865 242.84 270.008 242.794 270.111 242.65L270.749 241.754C270.963 241.453 270.846 240.946 270.492 240.649L262.654 234.031C261.795 233.308 261.566 232.064 262.139 231.258L273.683 215.043C273.953 214.664 274.363 214.421 274.834 214.362C275.39 214.294 275.978 214.481 276.451 214.88L284.237 221.452C284.424 221.61 284.65 221.689 284.85 221.661C284.952 221.649 285.097 221.604 285.199 221.459L285.836 220.563C286.051 220.262 285.933 219.756 285.578 219.456L274.603 210.192C274.149 209.807 273.608 209.598 273.09 209.598ZM241.2 260.297C240.532 260.297 239.848 260.035 239.282 259.558C238.05 258.519 237.713 256.739 238.531 255.592L271.12 209.818C271.505 209.279 272.087 208.934 272.76 208.849C273.557 208.748 274.412 209.024 275.099 209.603L286.076 218.868C286.744 219.434 286.916 220.374 286.464 221.009L285.826 221.904C285.619 222.195 285.306 222.379 284.947 222.425C284.533 222.477 284.092 222.336 283.74 222.04L275.954 215.468C275.645 215.206 275.273 215.082 274.931 215.125C274.749 215.149 274.494 215.23 274.309 215.49L262.766 231.703C262.424 232.183 262.599 232.98 263.15 233.444L270.987 240.06C271.657 240.625 271.828 241.565 271.376 242.201L270.737 243.097C270.531 243.386 270.219 243.571 269.86 243.617C269.442 243.668 269.003 243.528 268.651 243.231L260.479 236.332C260.284 236.167 260.049 236.089 259.838 236.115C259.731 236.128 259.58 236.176 259.473 236.329L243.082 259.35C242.714 259.867 242.157 260.195 241.514 260.277C241.41 260.29 241.305 260.297 241.2 260.297Z" fill="#002BFF"/>
<path d="M266.123 255.248C265.222 255.248 264.396 255.536 263.738 256.088C262.88 256.809 262.407 257.895 262.407 259.148C262.407 261.769 264.48 264.267 267.028 264.714C268.221 264.925 269.345 264.649 270.186 263.942C271.045 263.221 271.517 262.135 271.517 260.882C271.517 258.261 269.445 255.763 266.895 255.316C266.633 255.27 266.375 255.248 266.123 255.248ZM267.805 265.552C267.507 265.552 267.203 265.526 266.895 265.472C263.997 264.964 261.637 262.126 261.637 259.148C261.637 257.664 262.208 256.368 263.244 255.498C264.262 254.643 265.607 254.31 267.028 254.558C269.928 255.068 272.288 257.905 272.288 260.882C272.288 262.366 271.716 263.661 270.681 264.532C269.882 265.202 268.884 265.552 267.805 265.552Z" fill="#002BFF"/>
<path d="M265.763 254.879C262.813 247.903 237.613 203.048 237.915 203.796C246.108 224.074 261.399 251.546 263.694 255.636C264.277 255.209 264.984 254.942 265.763 254.879Z" fill="white"/>
<path d="M240.844 209.748C248.962 228.261 260.85 249.767 263.828 255.088C264.25 254.84 264.716 254.665 265.207 254.568C262.273 248.049 247.486 221.556 240.844 209.748ZM263.694 256.02C263.667 256.02 263.64 256.018 263.612 256.012C263.504 255.989 263.412 255.92 263.357 255.825C260.471 250.677 245.659 223.989 237.558 203.941C237.48 203.745 237.572 203.512 237.766 203.432C237.946 203.357 238.027 203.323 238.262 203.657L238.272 203.653C238.277 203.665 238.282 203.677 238.287 203.691C238.488 203.983 238.797 204.525 239.35 205.498C240.045 206.717 241.035 208.468 242.228 210.593C244.98 215.492 248.219 221.304 251.112 226.537C256.012 235.402 264.478 250.852 266.118 254.73C266.166 254.842 266.156 254.973 266.093 255.078C266.028 255.184 265.918 255.252 265.795 255.262C265.103 255.318 264.456 255.554 263.92 255.947C263.854 255.995 263.774 256.02 263.694 256.02Z" fill="#002BFF"/>
<path d="M272.177 248.139L272.19 248.113C272.19 248.113 246.075 225.826 226.279 213.109C225.587 212.663 266.618 247.321 271.164 249.953C271.354 249.242 271.706 248.625 272.177 248.139Z" fill="white"/>
<path d="M272.177 248.139H272.18H272.177ZM231.482 217.032C242.014 225.935 266.152 246.196 270.951 249.366C271.123 248.926 271.358 248.516 271.648 248.158C268.993 245.908 248.926 229.002 231.482 217.032ZM271.164 250.339C271.098 250.339 271.031 250.322 270.972 250.286C268.563 248.892 256.486 238.972 246.779 230.896C240.392 225.581 235.029 221.065 232.402 218.846C228.008 215.135 226.575 213.925 226.109 213.455C226.097 213.447 226.083 213.44 226.071 213.432L226.076 213.423C225.883 213.224 225.884 213.173 225.886 213.098C225.888 212.957 225.966 212.831 226.088 212.765C226.212 212.699 226.371 212.709 226.486 212.784C246.079 225.371 272.179 247.598 272.441 247.821C272.577 247.938 272.614 248.134 272.531 248.292C272.514 248.324 272.48 248.379 272.454 248.406C272.022 248.851 271.704 249.421 271.536 250.053C271.506 250.169 271.422 250.262 271.312 250.31C271.264 250.328 271.215 250.339 271.164 250.339Z" fill="#002BFF"/>
<path d="M275.103 247.316C274.203 247.316 273.376 247.605 272.719 248.157C271.861 248.877 271.388 249.965 271.388 251.217C271.388 253.839 273.461 256.334 276.009 256.782C277.204 256.992 278.324 256.717 279.167 256.011C280.026 255.291 280.499 254.203 280.499 252.951C280.499 250.328 278.425 247.833 275.876 247.386C275.614 247.338 275.356 247.316 275.103 247.316ZM276.786 257.621C276.488 257.621 276.184 257.594 275.876 257.54C272.976 257.031 270.618 254.194 270.618 251.217C270.618 249.733 271.188 248.438 272.225 247.568C273.243 246.712 274.588 246.379 276.009 246.627C278.909 247.136 281.267 249.973 281.267 252.951C281.267 254.434 280.697 255.731 279.662 256.6C278.863 257.271 277.865 257.621 276.786 257.621Z" fill="#002BFF"/>
<path d="M275.103 247.316C274.203 247.316 273.376 247.605 272.719 248.157C271.861 248.877 271.388 249.965 271.388 251.217C271.388 253.839 273.461 256.334 276.009 256.782C277.204 256.992 278.324 256.717 279.167 256.011C280.026 255.291 280.499 254.203 280.499 252.951C280.499 250.328 278.425 247.833 275.876 247.386C275.614 247.338 275.356 247.316 275.103 247.316ZM276.786 257.621C276.488 257.621 276.184 257.594 275.876 257.54C272.976 257.031 270.618 254.194 270.618 251.217C270.618 249.733 271.188 248.438 272.225 247.568C273.243 246.712 274.588 246.379 276.009 246.627C278.909 247.136 281.267 249.973 281.267 252.951C281.267 254.434 280.697 255.731 279.662 256.6C278.863 257.271 277.865 257.621 276.786 257.621Z" fill="#002BFF"/>
<path d="M282.717 252.385C282.132 252.385 281.43 252.278 280.597 251.994C280.396 251.926 280.289 251.707 280.357 251.506C280.425 251.306 280.645 251.197 280.845 251.267C283.567 252.193 284.529 250.996 284.57 250.946C284.697 250.779 284.937 250.743 285.107 250.871C285.275 250.996 285.311 251.233 285.187 251.403C285.15 251.455 284.444 252.385 282.717 252.385Z" fill="#002BFF"/>
<path d="M150.418 181.523C149.119 181.523 147.924 181.939 146.974 182.738C145.733 183.778 145.051 185.346 145.051 187.15V242.706C145.051 246.454 148.016 250.026 151.662 250.665L205.714 260.151C207.436 260.453 209.053 260.057 210.27 259.036C211.509 257.995 212.193 256.428 212.193 254.624V199.068C212.193 195.32 209.228 191.748 205.581 191.109L151.528 181.621C151.152 181.555 150.78 181.523 150.418 181.523ZM206.831 261.021C206.421 261.021 206.005 260.984 205.581 260.909L151.528 251.423C147.533 250.721 144.281 246.811 144.281 242.706V187.15C144.281 185.115 145.061 183.338 146.479 182.148C147.873 180.979 149.714 180.523 151.662 180.863L205.714 190.351C209.711 191.053 212.963 194.963 212.963 199.068V254.624C212.963 256.659 212.182 258.436 210.765 259.626C209.673 260.542 208.306 261.021 206.831 261.021Z" fill="#002BFF"/>
<path d="M159.338 247.255L154.275 246.366C153.629 246.252 153.105 245.621 153.105 244.956V237.704C153.105 237.039 153.629 236.592 154.275 236.706L159.338 237.595C159.984 237.708 160.507 238.338 160.507 239.003V246.257C160.507 246.922 159.984 247.367 159.338 247.255Z" fill="#002BFF"/>
<path d="M170.287 249.176L165.226 248.289C164.58 248.175 164.055 247.544 164.055 246.879V232.376C164.055 231.712 164.58 231.265 165.226 231.379L170.287 232.268C170.933 232.38 171.459 233.011 171.459 233.675V248.178C171.459 248.843 170.933 249.29 170.287 249.176Z" fill="#002BFF"/>
<path d="M181.484 251.141L176.421 250.252C175.775 250.14 175.251 249.509 175.251 248.844V228.252C175.251 227.587 175.775 227.142 176.421 227.254L181.484 228.143C182.13 228.257 182.653 228.888 182.653 229.553V250.143C182.653 250.808 182.13 251.255 181.484 251.141Z" fill="#002BFF"/>
<path d="M192.678 253.106L187.617 252.217C186.971 252.105 186.448 251.474 186.448 250.81V224.084C186.448 223.419 186.971 222.972 187.617 223.086L192.678 223.975C193.326 224.087 193.85 224.718 193.85 225.383V252.108C193.85 252.773 193.326 253.22 192.678 253.106Z" fill="#002BFF"/>
<path d="M204.398 255.163L199.336 254.274C198.69 254.162 198.166 253.531 198.166 252.866V214.725C198.166 214.06 198.69 213.615 199.336 213.727L204.398 214.616C205.044 214.73 205.568 215.361 205.568 216.024V254.165C205.568 254.83 205.044 255.277 204.398 255.163Z" fill="#002BFF"/>
<path d="M153.956 225.893L153.949 229.272C167.129 229.437 190.468 217.189 198.473 202.249L201.712 205.331L201.158 192.639L192.234 196.603L195.354 199.447C185.825 212.509 175.709 221.564 153.956 225.893Z" fill="#002BFF"/>
<path d="M73.81 90.6355C72.5117 90.6355 71.3162 91.052 70.3654 91.851C69.1258 92.8914 68.4431 94.4571 68.4431 96.2608V151.817C68.4431 155.567 71.4089 159.137 75.0542 159.778L129.107 169.264C130.827 169.567 132.445 169.17 133.662 168.149C134.902 167.107 135.585 165.541 135.585 163.737V108.181C135.585 104.433 132.619 100.861 128.974 100.22L74.9213 90.7341C74.5451 90.6678 74.1733 90.6355 73.81 90.6355ZM130.222 170.133C129.813 170.133 129.396 170.095 128.974 170.022L74.9213 160.534C70.9249 159.832 67.6738 155.922 67.6738 151.817V96.2608C67.6738 94.2259 68.454 92.4511 69.8707 91.2611C71.2647 90.0898 73.106 89.6342 75.0542 89.9759L129.107 99.4636C133.103 100.166 136.354 104.076 136.354 108.181V163.737C136.354 165.772 135.574 167.547 134.157 168.737C133.065 169.653 131.699 170.133 130.222 170.133Z" fill="#002BFF"/>
<path d="M80.1818 151.57L118.113 158.227V106.231L80.1818 99.5741V151.57ZM118.497 159.071C118.475 159.071 118.453 159.069 118.431 159.064L79.7308 152.272C79.5467 152.24 79.4126 152.08 79.4126 151.893V99.1151C79.4126 99.0029 79.4629 98.8941 79.55 98.821C79.637 98.7479 79.7521 98.7173 79.8638 98.7377L118.564 105.529C118.748 105.561 118.882 105.721 118.882 105.908V158.685C118.882 158.799 118.832 158.907 118.744 158.981C118.675 159.038 118.587 159.071 118.497 159.071Z" fill="#002BFF"/>
<path d="M107.368 109.669C107.346 109.669 107.324 109.667 107.301 109.664L91.1131 106.823C90.9038 106.785 90.7639 106.587 90.8008 106.377C90.8374 106.168 91.0361 106.029 91.2461 106.065L107.434 108.905C107.643 108.943 107.783 109.142 107.746 109.351C107.714 109.538 107.552 109.669 107.368 109.669Z" fill="#002BFF"/>
<path d="M114.324 116.481C114.301 116.481 114.278 116.477 114.255 116.474L84.2819 111.083C84.0728 111.046 83.9339 110.845 83.9715 110.636C84.0092 110.427 84.2081 110.287 84.4182 110.325L114.392 115.717C114.601 115.755 114.74 115.954 114.702 116.163C114.669 116.35 114.507 116.481 114.324 116.481Z" fill="#002BFF"/>
<path d="M114.324 121.939C114.301 121.939 114.278 121.938 114.255 121.933L84.2819 116.542C84.0728 116.504 83.9339 116.306 83.9715 116.096C84.0089 115.887 84.2081 115.748 84.4182 115.785L114.392 121.176C114.601 121.213 114.74 121.414 114.702 121.623C114.669 121.808 114.507 121.939 114.324 121.939Z" fill="#002BFF"/>
<path d="M114.324 127.14C114.301 127.14 114.278 127.138 114.255 127.133L84.2819 121.742C84.0728 121.705 83.9339 121.504 83.9715 121.295C84.0092 121.086 84.2081 120.947 84.4182 120.986L114.392 126.376C114.601 126.414 114.74 126.614 114.702 126.822C114.669 127.009 114.507 127.14 114.324 127.14Z" fill="#002BFF"/>
<path d="M114.83 149.066C114.807 149.066 114.785 149.065 114.761 149.059L84.7877 143.669C84.5788 143.631 84.4398 143.431 84.4773 143.223C84.5151 143.014 84.7128 142.873 84.9241 142.912L114.898 148.303C115.107 148.34 115.246 148.541 115.208 148.75C115.175 148.935 115.013 149.066 114.83 149.066Z" fill="#002BFF"/>
<path d="M114.83 140.746C114.807 140.746 114.785 140.745 114.761 140.741L84.7877 135.351C84.5788 135.313 84.4398 135.113 84.4773 134.903C84.5149 134.694 84.7128 134.555 84.9241 134.592L114.898 139.983C115.107 140.021 115.246 140.221 115.208 140.43C115.175 140.617 115.013 140.746 114.83 140.746Z" fill="white"/>
<path d="M127.24 161.949L100.449 157.247V119.852L127.24 124.554V161.949Z" fill="white"/>
<path d="M100.834 156.924L126.856 161.49V124.877L100.834 120.311V156.924ZM127.241 162.333C127.219 162.333 127.196 162.331 127.174 162.328L100.383 157.626C100.199 157.593 100.065 157.432 100.065 157.247V119.852C100.065 119.738 100.115 119.631 100.202 119.558C100.289 119.485 100.404 119.454 100.516 119.473L127.307 124.175C127.491 124.207 127.625 124.367 127.625 124.554V161.949C127.625 162.063 127.575 162.17 127.488 162.243C127.418 162.301 127.33 162.333 127.241 162.333Z" fill="#002BFF"/>
<path d="M105.072 130.64L122.618 133.72V128.712L105.072 125.633V130.64ZM123.003 134.563C122.981 134.563 122.959 134.562 122.936 134.557L104.621 131.342C104.437 131.31 104.303 131.15 104.303 130.963V125.174C104.303 125.06 104.353 124.953 104.44 124.88C104.527 124.807 104.642 124.777 104.754 124.795L123.07 128.012C123.253 128.042 123.388 128.204 123.388 128.389V134.179C123.388 134.293 123.337 134.4 123.25 134.473C123.18 134.531 123.093 134.563 123.003 134.563Z" fill="#002BFF"/>
<path d="M105.391 141.743L110.622 142.661V137.652L105.391 136.734V141.743ZM111.007 143.504C110.985 143.504 110.963 143.502 110.94 143.499L104.94 142.445C104.756 142.412 104.622 142.253 104.622 142.066V136.277C104.622 136.163 104.673 136.056 104.759 135.983C104.847 135.91 104.961 135.879 105.073 135.898L111.074 136.952C111.258 136.984 111.392 137.144 111.392 137.329V143.12C111.392 143.233 111.341 143.341 111.254 143.414C111.184 143.471 111.097 143.504 111.007 143.504Z" fill="#002BFF"/>
<path d="M116.577 143.706L121.808 144.624V139.618L116.577 138.698V143.706ZM122.193 145.467C122.171 145.467 122.148 145.466 122.126 145.461L116.126 144.408C115.942 144.376 115.808 144.216 115.808 144.029V138.241C115.808 138.127 115.859 138.02 115.945 137.947C116.033 137.873 116.147 137.843 116.259 137.862L122.259 138.916C122.443 138.948 122.577 139.108 122.577 139.293V145.081C122.577 145.195 122.527 145.304 122.44 145.377C122.37 145.435 122.283 145.467 122.193 145.467Z" fill="#002BFF"/>
<path d="M105.391 152.912L110.622 153.83V148.821L105.391 147.903V152.912ZM111.007 154.673C110.985 154.673 110.963 154.671 110.94 154.668L104.94 153.614C104.756 153.581 104.622 153.422 104.622 153.235V147.446C104.622 147.332 104.673 147.223 104.759 147.152C104.847 147.079 104.961 147.047 105.073 147.067L111.074 148.119C111.258 148.152 111.392 148.313 111.392 148.498V154.287C111.392 154.401 111.341 154.51 111.254 154.583C111.184 154.641 111.097 154.673 111.007 154.673Z" fill="#002BFF"/>
<path d="M116.577 154.875L121.808 155.793V150.785L116.577 149.867V154.875ZM122.193 156.636C122.171 156.636 122.148 156.633 122.126 156.629L116.126 155.577C115.942 155.545 115.808 155.385 115.808 155.198V149.41C115.808 149.296 115.859 149.189 115.945 149.116C116.033 149.042 116.147 149.012 116.259 149.031L122.259 150.083C122.443 150.115 122.577 150.275 122.577 150.462V156.25C122.577 156.364 122.527 156.473 122.44 156.546C122.37 156.604 122.283 156.636 122.193 156.636Z" fill="#002BFF"/>
<path d="M84.1456 340.627C84.1456 340.627 81.5585 352.446 84.4193 355.822L85.3068 357.269L82.5396 358.45C79.0243 359.951 74.9487 359.281 72.11 356.736L71.7275 356.393L72.3999 354.9C73.596 352.243 75.6534 343.997 75.4555 341.19L84.1456 340.627Z" fill="white"/>
<path d="M72.1936 356.295L72.3665 356.451C75.0866 358.887 79.0199 359.535 82.3881 358.097L84.7459 357.09L84.1062 356.046C81.4938 352.907 83.2011 343.368 83.666 341.044L75.8525 341.549C75.8691 344.709 73.922 352.456 72.7503 355.059L72.1936 356.295ZM78.6808 359.622C76.2029 359.622 73.7538 358.727 71.8531 357.024L71.4707 356.681C71.346 356.568 71.3079 356.388 71.3767 356.235L72.0491 354.743C73.2143 352.153 75.2626 343.927 75.0715 341.217C75.0644 341.114 75.0982 341.013 75.1655 340.937C75.2328 340.859 75.3282 340.813 75.4304 340.806L84.1204 340.243C84.2418 340.242 84.3584 340.286 84.437 340.378C84.5155 340.468 84.5468 340.592 84.5211 340.709C84.4955 340.826 82.007 352.38 84.7124 355.572C84.7251 355.587 84.7367 355.603 84.7469 355.62L85.6346 357.066C85.6929 357.162 85.707 357.279 85.673 357.384C85.6392 357.491 85.5605 357.578 85.4575 357.622L82.6902 358.804C81.4021 359.353 80.0369 359.622 78.6808 359.622Z" fill="#002BFF"/>
<path d="M85.1518 351.773L86.71 353.156C89.8173 355.915 93.5428 357.872 97.5657 358.855L98.3329 359.043C98.6253 359.115 98.8635 359.327 98.9692 359.611L99.0231 359.756C99.6208 361.361 98.1899 365.366 92.3617 367.392C90.8485 367.918 86.8003 367.525 80.7855 367.52C78.1767 367.518 75.4873 367.513 73.9284 367.508C72.3979 367.504 70.8827 367.093 69.6139 366.228C68.1961 365.264 66.912 363.644 67.4466 361.026C67.9709 358.459 70.0369 353.433 71.154 351.541C71.37 351.176 71.8404 351.094 72.1804 351.346L73.3385 354.185C74.1225 356.108 76.0869 357.342 78.1231 357.029C78.2508 357.01 78.38 356.985 78.5102 356.954C79.817 356.655 80.9431 355.822 81.7326 354.731L83.7569 351.929C84.0862 351.473 84.7322 351.4 85.1518 351.773Z" fill="white"/>
<path d="M71.7486 351.585C71.728 351.585 71.7072 351.587 71.6868 351.591C71.6273 351.602 71.5439 351.638 71.4856 351.737C70.343 353.671 68.3232 358.656 67.8236 361.102C67.4141 363.107 68.0891 364.725 69.8304 365.912C70.99 366.7 72.4076 367.12 73.9297 367.124C75.4882 367.129 78.1775 367.134 80.7858 367.136C82.8319 367.137 84.6303 367.183 86.2171 367.224C89.1691 367.299 91.3021 367.353 92.2356 367.028C96.2401 365.636 97.7696 363.45 98.3247 362.272C98.8291 361.201 98.8299 360.339 98.6628 359.89L98.6089 359.746C98.5475 359.581 98.4102 359.458 98.2417 359.416L97.4745 359.229C93.4069 358.234 89.5964 356.235 86.4546 353.445L84.8965 352.061C84.7762 351.954 84.6225 351.905 84.4635 351.922C84.3039 351.939 84.1638 352.022 84.0688 352.153L82.0443 354.955C81.1594 356.179 79.9347 357.024 78.5962 357.33C78.4573 357.362 78.3192 357.388 78.1825 357.41C75.9963 357.746 73.8589 356.478 72.9826 354.329L71.873 351.609C71.8327 351.594 71.7909 351.585 71.7486 351.585ZM89.368 368.05C88.4682 368.05 87.4127 368.023 86.1975 367.992C84.6152 367.952 82.8217 367.907 80.7854 367.906C78.1763 367.904 75.4863 367.897 73.9276 367.894C72.2512 367.889 70.6847 367.423 69.3973 366.546C67.4039 365.189 66.5991 363.253 67.0698 360.949C67.5924 358.391 69.6271 353.371 70.8231 351.346C70.981 351.079 71.2336 350.899 71.5344 350.837C71.8376 350.776 72.1564 350.849 72.4099 351.036C72.4663 351.079 72.5102 351.135 72.5367 351.201L73.6949 354.039C74.4245 355.829 76.2615 356.925 78.0649 356.65C78.1829 356.631 78.3029 356.607 78.4239 356.58C79.5811 356.315 80.6452 355.577 81.4209 354.504L83.4454 351.703C83.6661 351.397 84.0067 351.2 84.3797 351.157C84.7532 351.116 85.1267 351.237 85.4074 351.485L86.9654 352.869C90.0137 355.577 93.7109 357.517 97.6571 358.481L98.4245 358.669C98.8408 358.771 99.1793 359.072 99.3297 359.477L99.3836 359.621C99.6709 360.393 99.5352 361.507 99.0208 362.598C98.4141 363.887 96.7585 366.27 92.4879 367.754C91.8339 367.982 90.7979 368.05 89.368 368.05Z" fill="#002BFF"/>
<path d="M76.8409 365.112C71.9549 365.112 69.5445 362.532 69.4403 362.418C69.2971 362.261 69.3084 362.017 69.4653 361.874C69.6223 361.731 69.8648 361.743 70.0081 361.899C70.0322 361.925 72.4967 364.538 77.4174 364.33C81.0931 364.172 86.509 364.237 89.4102 364.29C91.1383 364.32 92.7629 363.856 94.1112 362.946C94.5585 362.646 94.8968 362.345 95.1168 362.054C95.2448 361.886 95.4858 361.852 95.6555 361.981C95.825 362.108 95.8583 362.35 95.7301 362.518C95.459 362.877 95.059 363.235 94.5413 363.584C93.061 364.584 91.2811 365.09 89.3963 365.06C86.5041 365.007 81.1055 364.942 77.4503 365.099C77.2433 365.107 77.0398 365.112 76.8409 365.112Z" fill="#002BFF"/>
<path d="M45.4567 339.941C45.4567 339.941 41.8968 347.166 43.0053 351.266L43.2075 352.896L31.6553 345.688L32.9301 344.865C35.458 343.193 37.948 340.49 38.7847 337.906L45.4567 339.941Z" fill="white"/>
<path d="M32.3728 345.683L42.7263 352.143L42.6269 351.341C41.6536 347.665 44.1761 341.787 44.9183 340.178L39.0251 338.382C38.1251 340.756 35.8571 343.39 33.1422 345.185L32.3728 345.683ZM43.2076 353.28C43.1369 353.28 43.0663 353.262 43.0039 353.223L31.4516 346.015C31.3399 345.945 31.2717 345.824 31.2705 345.692C31.2697 345.561 31.336 345.437 31.4466 345.365L32.7213 344.542C35.4333 342.749 37.6712 340.097 38.4189 337.788C38.4835 337.588 38.696 337.475 38.8967 337.538L45.5689 339.573C45.6768 339.606 45.7651 339.685 45.8096 339.787C45.8547 339.891 45.8518 340.01 45.8018 340.11C45.7668 340.182 42.3188 347.252 43.3766 351.166C43.3812 351.184 43.3847 351.201 43.3868 351.22L43.5891 352.849C43.6076 352.997 43.5396 353.141 43.4145 353.221C43.3514 353.26 43.2795 353.28 43.2076 353.28Z" fill="#002BFF"/>
<path d="M44.3173 348.869L44.5274 350.861C44.9435 354.807 46.3044 358.59 48.4921 361.887L50.1732 364.419C50.3332 364.66 50.3647 364.966 50.2569 365.235L50.2021 365.372C49.5934 366.894 46.0169 368.781 40.6126 366.403C37.2692 364.93 33.8942 360.425 24.2692 351.353C23.7718 350.883 23.9302 350.027 24.3628 349.496C25.9396 347.562 29.8844 343.082 33.4077 342.001C33.7997 341.88 34.2103 342.117 34.2891 342.523L35.0468 346.424C35.3867 348.175 37.0727 349.314 38.8065 348.964L43.2354 348.068C43.7595 347.961 44.2606 348.333 44.3173 348.869Z" fill="white"/>
<path d="M33.6164 342.354C33.5848 342.354 33.5527 342.358 33.5209 342.368C30.0882 343.424 26.1813 347.874 24.6608 349.739C24.3375 350.135 24.209 350.766 24.5332 351.072C28.0649 354.402 30.7524 357.112 32.9116 359.292C36.6545 363.067 38.7161 365.146 40.7676 366.051C44.4758 367.681 46.9493 367.14 48.0936 366.675C49.1279 366.251 49.6767 365.651 49.8455 365.23L49.8999 365.094C49.9609 364.941 49.9432 364.769 49.8528 364.631L48.1718 362.1C45.9586 358.765 44.5661 354.892 44.1449 350.902L43.9347 348.91C43.9188 348.758 43.8429 348.624 43.721 348.536C43.6014 348.447 43.4562 348.415 43.3119 348.446L38.8832 349.34C37.9473 349.528 36.9955 349.34 36.2011 348.809C35.3984 348.272 34.8544 347.451 34.6694 346.497L33.9119 342.596C33.8954 342.511 33.8463 342.441 33.7737 342.397C33.7256 342.368 33.6717 342.354 33.6164 342.354ZM45.4654 367.917C44.1324 367.917 42.4557 367.633 40.4577 366.755C38.2727 365.792 36.1746 363.676 32.3654 359.832C30.21 357.658 27.5275 354.953 24.0055 351.631C23.3403 351.004 23.5132 349.93 24.0648 349.253C25.6295 347.334 29.6612 342.749 33.295 341.634C33.5891 341.544 33.908 341.581 34.1694 341.737C34.4278 341.892 34.6092 342.152 34.6669 342.45L35.4245 346.351C35.5701 347.101 35.9979 347.747 36.629 348.17C37.2515 348.587 37.9973 348.735 38.7307 348.587L43.1594 347.691C43.5135 347.619 43.8841 347.701 44.176 347.915C44.4706 348.131 44.6613 348.464 44.6999 348.83L44.91 350.82C45.3184 354.69 46.6678 358.442 48.8127 361.675L50.4937 364.206C50.7239 364.553 50.7689 364.992 50.614 365.379L50.5596 365.515C50.265 366.251 49.4521 366.95 48.3845 367.387C47.7604 367.64 46.7799 367.917 45.4654 367.917Z" fill="#002BFF"/>
<path d="M46.4552 364.662C46.4365 364.662 46.4174 364.66 46.3986 364.657L45.493 364.524C42.4765 364.079 39.628 362.637 37.4722 360.463L27.4194 350.319C27.27 350.168 27.2712 349.925 27.4218 349.775C27.5729 349.625 27.8162 349.627 27.966 349.778L38.0188 359.921C40.0579 361.978 42.7522 363.343 45.605 363.763L46.5108 363.897C46.7209 363.928 46.8661 364.123 46.8351 364.334C46.8071 364.524 46.6427 364.662 46.4552 364.662Z" fill="#002BFF"/>
<path d="M90.8335 221.501C98.7408 223.696 103.639 225.039 103.639 225.039C103.639 225.039 87.8869 281.557 83.3261 295.718C79.1922 308.555 52.1002 336.517 47.2963 342.176C46.8001 342.761 45.3913 343.351 45.3913 343.351C42.6279 344.019 39.7393 342.931 38.0867 340.598C38.0867 340.598 37.2165 338.64 37.4207 337.642L38.9243 330.301C44.6358 307.003 55.5585 295.474 60.1867 271.152C67.172 234.443 72.3936 226.154 73.5606 223.366C77.1755 214.729 90.8335 221.501 90.8335 221.501Z" fill="#002BFF"/>
<path d="M117.057 222.547C118.457 235.8 117.629 258.67 116.343 269.001C112.804 297.439 89.2952 337.447 84.9605 345.569C84.4056 346.61 83.3826 347.317 82.2194 347.449C78.8876 347.829 77.6517 346.999 75.9473 346.127C74.7236 345.5 74.0094 344.216 73.9804 342.832C73.3956 314.974 79.3304 291.118 85.4867 275.922C87.861 270.06 90.4595 236.713 90.1372 224.694L117.057 222.547Z" fill="#002BFF"/>
<path d="M74.6561 314.949C74.6329 314.949 74.6093 314.947 74.5855 314.942C74.3768 314.903 74.2389 314.702 74.2775 314.493C77.0595 299.504 79.3952 290.214 82.0878 283.427C85.8511 273.941 87.8289 264.068 87.9662 254.079L88.0346 249.122C88.0375 248.909 88.2257 248.739 88.4244 248.742C88.6367 248.746 88.8066 248.919 88.8038 249.132L88.7355 254.089C88.5968 264.172 86.6008 274.137 82.803 283.711C80.1296 290.448 77.8062 299.696 75.034 314.634C74.9996 314.819 74.838 314.949 74.6561 314.949Z" fill="white"/>
<path d="M52.7838 233.509C52.5813 234.083 53.0907 235.214 53.0182 235.685C52.7546 237.398 50.2041 239.807 48.3281 241.371C46.8362 242.617 45.9561 244.467 45.9503 246.422C45.949 246.881 45.9717 247.382 45.9991 247.923C46.0615 249.16 45.6652 249.817 45.1299 250.15C44.0783 250.803 42.7099 250.039 42.5768 248.8C42.2855 246.09 41.8044 240.477 42.5632 238.496C43.0622 237.196 44.6702 235.492 46.1764 234.097C47.6568 232.725 48.4762 230.778 48.4675 228.75C48.4376 221.736 52.3284 201.26 56.8956 186.884L68.3162 193.23C68.3162 193.23 60.2839 212.223 52.7838 233.509Z" fill="white"/>
<path d="M52.7836 233.509H52.7874H52.7836ZM57.1201 187.45C52.4922 202.181 48.8228 221.989 48.8517 228.749C48.861 230.896 47.981 232.949 46.4375 234.379C44.5262 236.149 43.3106 237.621 42.9221 238.634C42.1807 240.567 42.7008 246.359 42.9588 248.759C43.0108 249.242 43.3031 249.659 43.7407 249.871C44.1354 250.063 44.5672 250.046 44.9266 249.822C45.4303 249.509 45.6618 248.877 45.6147 247.942C45.5879 247.411 45.5641 246.896 45.5653 246.42C45.5714 244.353 46.4885 242.406 48.0813 241.077C50.832 238.782 52.4503 236.846 52.6378 235.625C52.6571 235.499 52.5813 235.173 52.5205 234.909C52.3958 234.372 52.2668 233.816 52.4208 233.379C59.3131 213.819 66.7445 195.983 67.8274 193.4L57.1201 187.45ZM44.2969 250.772C43.9946 250.772 43.6893 250.702 43.4035 250.563C42.7266 250.233 42.2744 249.589 42.1942 248.841C41.8662 245.791 41.4314 240.373 42.2039 238.359C42.6406 237.22 43.8889 235.691 45.9146 233.815C47.3006 232.529 48.0908 230.685 48.0825 228.752C48.053 221.869 51.8139 201.606 56.5287 186.769C56.5636 186.658 56.646 186.57 56.7533 186.527C56.8606 186.487 56.9811 186.493 57.0821 186.549L68.5027 192.896C68.6742 192.991 68.7466 193.2 68.6699 193.382C68.5897 193.57 60.5562 212.605 53.1464 233.636C53.0668 233.86 53.1792 234.347 53.2698 234.736C53.3611 235.13 53.44 235.47 53.3982 235.742C53.1211 237.544 50.6217 239.958 48.5741 241.667C47.1563 242.85 46.3399 244.584 46.3345 246.422C46.3331 246.879 46.3568 247.384 46.3828 247.902C46.4454 249.138 46.0919 250.004 45.3327 250.476C45.0167 250.672 44.6588 250.772 44.2969 250.772Z" fill="#002BFF"/>
<path d="M123.085 170.913L138.815 188.986C139.931 190.267 141.862 190.429 143.173 189.349C147.676 185.637 157.113 177.806 157.762 176.86C158.617 175.612 162.794 169.215 165.125 167.164C167.313 165.238 169.086 163.061 170.114 161.697C170.735 160.874 171.554 160.703 172.134 161.068C172.642 161.39 172.817 161.974 171.911 163.21C170.864 164.638 169.852 166.095 168.97 167.323C168.693 167.708 168.343 168.037 168.776 167.865C169.783 167.464 171 167.171 171.602 167.742C172.732 168.817 172.183 173.971 169.172 176.928C166.162 179.884 164.03 178.471 162.893 179.986C161.755 181.501 150.925 202.832 146.93 205.209C137.775 210.656 120.662 193.542 120.662 193.542L123.085 170.913Z" fill="white"/>
<path d="M121.064 193.397C122.658 194.949 138.351 209.863 146.732 204.879C149.633 203.153 156.455 190.754 160.118 184.093C161.422 181.723 162.282 180.159 162.585 179.756C163.159 178.993 163.957 178.852 164.8 178.704C165.893 178.512 167.253 178.272 168.902 176.652C170.889 174.704 171.777 171.688 171.76 169.711C171.753 168.899 171.595 168.268 171.336 168.021C170.978 167.68 170.097 167.754 168.917 168.222C168.807 168.266 168.47 168.4 168.268 168.13C168.066 167.856 168.263 167.605 168.474 167.34C168.531 167.267 168.596 167.183 168.659 167.098C168.984 166.644 169.327 166.16 169.684 165.657C170.301 164.786 170.939 163.885 171.602 162.983C172.158 162.224 172.19 161.847 172.159 161.689C172.146 161.611 172.105 161.505 171.928 161.393C171.481 161.111 170.876 161.327 170.422 161.929C169.31 163.402 167.534 165.558 165.378 167.454C163.35 169.239 159.821 174.488 158.493 176.463C158.316 176.725 158.177 176.934 158.08 177.077C157.453 177.992 149.76 184.418 143.418 189.645C141.936 190.868 139.787 190.689 138.525 189.239L123.374 171.829L121.064 193.397ZM142.754 206.671C133.371 206.671 120.996 194.421 120.39 193.814C120.308 193.732 120.267 193.616 120.28 193.501L122.703 170.872C122.719 170.719 122.824 170.592 122.97 170.546C123.116 170.5 123.275 170.544 123.375 170.66L139.105 188.734C140.091 189.866 141.771 190.007 142.928 189.052C151.581 181.919 157.007 177.279 157.444 176.642C157.541 176.501 157.68 176.293 157.854 176.035C159.198 174.036 162.768 168.727 164.87 166.876C166.976 165.023 168.717 162.911 169.808 161.464C170.505 160.54 171.546 160.244 172.338 160.744C172.659 160.946 172.853 161.216 172.916 161.546C173.011 162.049 172.785 162.67 172.222 163.438C171.564 164.336 170.927 165.233 170.311 166.102C170.043 166.481 169.781 166.852 169.528 167.205C170.597 166.918 171.381 167.003 171.867 167.464C172.404 167.974 172.523 168.965 172.53 169.704C172.547 171.909 171.6 175.083 169.441 177.203C167.622 178.988 166.068 179.262 164.934 179.461C164.125 179.603 163.591 179.697 163.2 180.217C162.93 180.577 161.986 182.293 160.793 184.464C155.671 193.775 149.967 203.849 147.125 205.54C145.797 206.329 144.316 206.671 142.754 206.671Z" fill="#002BFF"/>
<path d="M77.4614 158.532C89.5114 154.659 110.128 156.611 116.382 161.235C124.507 167.241 132.181 176.956 135.191 180.979C136.028 182.096 136.156 183.595 135.527 184.844C132.823 190.215 126.814 203.485 123.398 200.983C119.998 198.494 115.677 193.802 115.922 196.258C116.569 202.778 117.679 224.551 117.679 224.551C117.679 224.551 114.102 225.784 113.947 228.711L113.581 236.64C113.492 237.563 112.51 238.105 111.693 237.68C105.12 234.262 79.0958 230.986 69.3917 225.673C68.2291 225.038 67.5997 223.729 67.8258 222.413C68.9645 215.796 75.5452 201.819 72.8833 193.406C72.6086 192.539 70.5338 196.129 68.0251 198.268C67.622 198.611 67.0386 198.631 66.6246 198.302L55.1413 189.145C54.1243 188.335 53.758 186.947 54.2427 185.735C56.6269 179.77 64.4571 162.71 77.4614 158.532Z" fill="white"/>
<path d="M72.7335 192.887C72.7687 192.887 72.8039 192.891 72.8391 192.897C72.9311 192.916 73.1553 192.989 73.2503 193.29C75.163 199.334 72.4369 208.063 70.2466 215.076C69.3293 218.013 68.5371 220.55 68.2052 222.479C68.007 223.63 68.5583 224.779 69.5768 225.337C74.9568 228.281 85.5087 230.619 94.8184 232.683C102.39 234.36 108.93 235.809 111.871 237.339C112.142 237.48 112.451 237.477 112.719 237.332C112.993 237.182 113.168 236.917 113.198 236.603L113.563 228.694C113.706 226.003 116.398 224.662 117.281 224.293C117.149 221.738 116.139 202.334 115.539 196.297C115.487 195.77 115.616 195.424 115.924 195.262C116.668 194.874 117.917 195.901 120.444 198.07C121.505 198.982 122.603 199.925 123.625 200.673C123.931 200.898 124.266 200.959 124.651 200.867C127.554 200.155 131.919 191.289 134.265 186.526C134.601 185.842 134.91 185.217 135.184 184.671C135.752 183.542 135.637 182.216 134.883 181.208C131.952 177.293 124.26 167.537 116.154 161.544C110.223 157.16 89.6801 155.009 77.5794 158.899C64.5943 163.071 56.7078 180.605 54.6001 185.878C54.1818 186.925 54.5031 188.144 55.3815 188.845L66.8646 198.001C67.1329 198.213 67.5076 198.203 67.7758 197.975C68.9221 196.998 69.9754 195.711 70.8219 194.677C71.8731 193.392 72.3094 192.887 72.7335 192.887ZM112.289 238.211C112.024 238.211 111.759 238.148 111.516 238.021C108.665 236.538 101.858 235.03 94.6519 233.434C85.2921 231.36 74.6836 229.009 69.2075 226.01C67.9006 225.296 67.1932 223.824 67.4472 222.348C67.7875 220.369 68.5867 217.811 69.5125 214.846C71.6367 208.044 74.2727 199.606 72.6002 193.798C72.3143 194.067 71.8436 194.643 71.4172 195.163C70.5514 196.223 69.4738 197.538 68.2746 198.56C67.7316 199.024 66.9369 199.041 66.3852 198.603L54.9019 189.446C53.7605 188.537 53.3426 186.951 53.8858 185.592C56.6277 178.731 64.4025 162.325 77.3439 158.166L77.4617 158.532L77.3439 158.166C89.867 154.142 110.414 156.344 116.611 160.925C124.799 166.979 132.547 176.805 135.499 180.747C136.429 181.99 136.571 183.626 135.871 185.016C135.597 185.56 135.29 186.186 134.955 186.866C132.219 192.421 128.085 200.816 124.834 201.613C124.225 201.763 123.665 201.656 123.171 201.294C122.124 200.527 121.016 199.575 119.943 198.655C118.623 197.521 116.83 195.983 116.306 195.951C116.298 195.993 116.29 196.076 116.304 196.221C116.946 202.674 118.052 224.313 118.063 224.531C118.072 224.703 117.967 224.859 117.805 224.915C117.772 224.925 114.471 226.102 114.331 228.732L113.966 236.657C113.91 237.242 113.581 237.738 113.086 238.007C112.837 238.143 112.563 238.211 112.289 238.211Z" fill="#002BFF"/>
<path d="M91.4909 157.532L91.6305 144.078L102.735 149.218L102.85 157.124C102.847 159.244 101.092 160.492 101.092 160.492C98.9235 162.211 95.7909 162.029 93.4622 160.533L92.9228 160.186C92.0206 159.608 91.4798 158.605 91.4909 157.532Z" fill="white"/>
<path d="M91.8759 157.537C91.866 158.483 92.3354 159.351 93.1312 159.863L93.6704 160.21C95.9994 161.706 98.9533 161.697 100.854 160.191C100.885 160.167 102.463 159.011 102.465 157.124L102.355 149.466L92.0092 144.679L91.8759 157.537ZM97.4143 162.114C96.0154 162.114 94.5616 161.696 93.2548 160.857L92.7155 160.511C91.6955 159.856 91.0941 158.741 91.1066 157.529L91.2462 144.075C91.2476 143.944 91.3149 143.823 91.4254 143.754C91.5359 143.684 91.6738 143.676 91.7923 143.73L102.897 148.869C103.032 148.93 103.118 149.065 103.12 149.212L103.235 157.119C103.232 159.418 101.393 160.75 101.315 160.806C100.217 161.677 98.8445 162.114 97.4143 162.114Z" fill="#002BFF"/>
<path d="M106.582 124.493C103.665 124.431 106.241 127.68 95.7234 124.839C91.4115 123.677 93.7413 128.649 92.617 128.37C88.4645 127.337 87.0117 128.76 86.0852 129.504C85.0144 130.365 83.9937 132.367 84.3099 134.178C84.7271 136.568 87.944 137.18 89.8934 142.191C91.2624 145.71 91.0373 147.888 92.4923 148.356C93.9637 148.828 94.9655 146.851 96.6116 147.247C98.7419 147.759 98.4575 151.407 100.565 152.839C101.894 153.741 104.922 154.073 109.664 151.56C110.433 151.154 110.803 150.255 110.541 149.425C110.205 148.362 109.774 147.023 109.255 145.777C106.78 139.837 104.575 138.553 105.299 136.966C106.409 134.531 111.004 135.737 111.685 133.746C112.392 131.679 110.575 124.576 106.582 124.493Z" fill="#002BFF"/>
<path d="M97.573 138.875C97.9926 139.59 98.3615 140.333 98.6785 141.1C99.272 142.536 100.309 144.991 100.995 146.324C101.845 147.975 106.717 146.214 108.227 145.619C108.47 145.523 108.581 145.241 108.47 145.005L107.884 143.572L109.08 143.223C109.221 143.159 109.351 143.067 109.442 142.941C109.669 142.627 109.656 142.222 109.442 141.931C108.332 140.42 106.365 137.94 105.324 134.822C105.218 134.504 104.936 134.276 104.603 134.244C103.456 134.132 100.745 134.123 98.176 136.008C97.2713 136.671 97.0054 137.907 97.573 138.875Z" fill="white"/>
<path d="M97.9045 138.681C98.3304 139.407 98.7102 140.17 99.0338 140.954C99.5994 142.322 100.651 144.816 101.337 146.147C101.79 147.028 104.503 146.673 108.086 145.262C108.109 145.253 108.119 145.236 108.124 145.224C108.129 145.211 108.132 145.192 108.122 145.17L107.528 143.718C107.487 143.618 107.49 143.504 107.538 143.405C107.585 143.307 107.672 143.235 107.776 143.203L108.944 142.861C109.025 142.822 109.09 142.773 109.131 142.715C109.252 142.547 109.253 142.324 109.132 142.159L108.821 141.738C107.669 140.187 105.928 137.845 104.959 134.944C104.901 134.769 104.746 134.643 104.565 134.626C103.542 134.528 100.893 134.492 98.4033 136.318C97.6523 136.869 97.4377 137.885 97.9045 138.681ZM102.708 147.392C101.751 147.392 100.988 147.149 100.653 146.499C99.9542 145.143 98.8932 142.627 98.3229 141.248C98.0127 140.498 97.6488 139.766 97.241 139.07C97.2409 139.07 97.2409 139.07 97.2409 139.07C96.5741 137.933 96.8782 136.483 97.9486 135.697C100.652 133.715 103.529 133.753 104.64 133.861C105.122 133.907 105.534 134.237 105.689 134.7C106.619 137.484 108.315 139.769 109.438 141.28L109.752 141.704C110.071 142.139 110.072 142.725 109.754 143.167C109.63 143.337 109.452 143.478 109.238 143.574C109.221 143.58 109.205 143.587 109.188 143.592L108.402 143.822L108.826 144.86C108.916 145.051 108.924 145.294 108.839 145.508C108.753 145.722 108.582 145.892 108.367 145.977C106.774 146.605 104.429 147.392 102.708 147.392Z" fill="#002BFF"/>
<path d="M97.1349 144.425C94.1989 145.746 92.923 143.013 93.4452 141.273C93.6647 140.541 94.6356 140.384 95.0961 140.993L97.2787 143.88C97.4187 144.065 97.3466 144.33 97.1349 144.425Z" fill="white"/>
<path d="M286.736 87.635L276.847 103.894C272.832 110.573 280.694 122.606 294.41 130.766C308.125 138.926 322.501 140.124 326.516 133.443L336.405 117.186L286.736 87.635Z" fill="#002BFF"/>
<path d="M286.867 88.1603L277.175 104.093C276.113 105.861 275.898 108.047 276.539 110.592C278.173 117.088 285.265 124.877 294.607 130.434C308.118 138.474 322.284 139.735 326.186 133.244L335.874 117.317L286.867 88.1603ZM316.289 138.118C310.017 138.118 301.997 135.726 294.212 131.096C284.558 125.351 277.501 117.567 275.793 110.781C275.101 108.03 275.344 105.645 276.517 103.695L286.408 87.4344C286.518 87.2559 286.751 87.1964 286.933 87.3052L336.602 116.855C336.689 116.907 336.753 116.992 336.777 117.093C336.802 117.191 336.787 117.298 336.733 117.385L326.844 133.644C325.037 136.651 321.198 138.118 316.289 138.118Z" fill="white"/>
<path d="M340.767 113.055L321.783 87.0961C321.406 86.6388 320.882 86.3277 320.299 86.2121L288.329 81.8584L278.188 75.8251L275.247 80.716C275.064 81.022 275.052 81.4317 275.324 81.7615L302.891 115.175C303.267 115.632 303.792 115.945 304.375 116.059L347.006 124.409C347.426 124.491 347.783 124.287 347.966 123.981L350.908 119.088L340.767 113.055Z" fill="white"/>
<path d="M278.321 76.3504L275.577 80.9149C275.533 80.9897 275.404 81.2532 275.62 81.5167L303.187 114.93C303.506 115.318 303.954 115.585 304.448 115.682L347.081 124.032C347.419 124.098 347.593 123.857 347.639 123.782L350.379 119.223L340.57 113.387C340.526 113.359 340.487 113.324 340.456 113.283L321.472 87.3222C321.166 86.9533 320.719 86.6864 320.226 86.5912L288.278 82.2392C288.227 82.2324 288.178 82.2154 288.133 82.1882L278.321 76.3504ZM347.188 124.811C347.105 124.811 347.018 124.804 346.933 124.787L304.3 116.436C303.632 116.305 303.025 115.943 302.594 115.42L275.026 82.0063C274.674 81.5779 274.632 80.9948 274.918 80.5188L277.859 75.6262C277.967 75.4443 278.202 75.3848 278.386 75.4936L288.46 81.4878L320.35 85.8313C321.04 85.9656 321.647 86.326 322.079 86.8513L341.031 112.764L351.105 118.759C351.192 118.811 351.256 118.896 351.28 118.995C351.305 119.093 351.29 119.199 351.237 119.287L348.296 124.178C348.057 124.579 347.639 124.811 347.188 124.811Z" fill="#002BFF"/>
<path d="M350.831 118.045L323.266 84.6294C322.888 84.1721 322.365 83.861 321.781 83.7471L279.149 75.3967C278.309 75.2318 277.721 76.211 278.263 76.8689L305.83 110.284C306.208 110.741 306.731 111.052 307.314 111.166L349.947 119.517C350.785 119.682 351.375 118.703 350.831 118.045Z" fill="#002BFF"/>
<path d="M278.965 75.7622C278.751 75.7622 278.596 75.8914 278.516 76.024C278.472 76.0988 278.345 76.3623 278.561 76.6241L306.128 110.039C306.446 110.425 306.894 110.692 307.389 110.789L350.02 119.139C350.29 119.194 350.486 119.044 350.579 118.888C350.623 118.815 350.751 118.551 350.535 118.289L322.968 84.8741C322.65 84.4865 322.201 84.2214 321.707 84.1245L279.074 75.7741C279.037 75.7656 279.001 75.7622 278.965 75.7622ZM350.129 119.92C350.046 119.92 349.959 119.911 349.872 119.894L307.241 111.544C306.571 111.413 305.966 111.052 305.534 110.529L277.967 77.1137C277.617 76.6887 277.573 76.1056 277.855 75.6296C278.141 75.1519 278.68 74.9122 279.222 75.0193L321.854 83.3697C322.523 83.5005 323.129 83.861 323.561 84.3846L351.128 117.8C351.479 118.225 351.523 118.806 351.241 119.282C350.999 119.685 350.581 119.92 350.129 119.92Z" fill="#002BFF"/>
<path d="M330.557 132.668C330.343 132.668 330.171 132.496 330.171 132.284V126.128C330.171 125.916 330.343 125.744 330.557 125.744C330.769 125.744 330.941 125.916 330.941 126.128V132.284C330.941 132.496 330.769 132.668 330.557 132.668Z" fill="#002BFF"/>
<path d="M330.557 126.512C330.342 126.512 330.171 126.341 330.171 126.128V115.96L314.792 96.7912C314.658 96.6263 314.685 96.3832 314.852 96.2506C315.017 96.118 315.258 96.1452 315.393 96.3101L330.856 115.583C330.91 115.653 330.941 115.738 330.941 115.824V126.128C330.941 126.341 330.769 126.512 330.557 126.512Z" fill="white"/>
<path d="M330.687 131.333C329.878 131.325 329.2 131.947 329.135 132.756L327.316 155.562L333.528 155.628L332.207 132.789C332.161 131.978 331.497 131.342 330.687 131.333Z" fill="white"/>
<path d="M327.733 155.181L333.12 155.237L331.825 132.811C331.789 132.204 331.288 131.724 330.684 131.718C330.679 131.718 330.676 131.718 330.67 131.718C330.072 131.718 329.567 132.185 329.52 132.787L327.733 155.181ZM333.528 156.012C333.526 156.012 333.525 156.012 333.523 156.012L327.313 155.946C327.206 155.944 327.104 155.9 327.032 155.82C326.961 155.742 326.925 155.637 326.934 155.531L328.753 132.726C328.833 131.719 329.676 130.922 330.693 130.949C331.699 130.96 332.534 131.757 332.591 132.767L333.912 155.604C333.917 155.711 333.88 155.815 333.807 155.893C333.734 155.968 333.634 156.012 333.528 156.012Z" fill="#002BFF"/>
<path d="M28.3828 136.435C28.5947 138.004 30.0432 139.111 31.6147 138.898C33.185 138.686 34.2898 137.236 34.0777 135.665C33.8658 134.096 32.4164 132.989 30.8458 133.203C29.2759 133.414 28.171 134.864 28.3828 136.435ZM31.2285 139.692C29.4345 139.692 27.8669 138.363 27.6204 136.537C27.3518 134.548 28.7526 132.709 30.743 132.44C32.7299 132.173 34.5713 133.572 34.8403 135.563C35.1089 137.554 33.7081 139.392 31.7176 139.66C31.5533 139.682 31.39 139.692 31.2285 139.692Z" fill="#002BFF"/>
<path d="M33.8468 119.479C33.7657 119.479 33.6836 119.454 33.6141 119.399L32.1262 118.266C31.9571 118.138 31.9246 117.897 32.0533 117.727C32.1817 117.558 32.4232 117.524 32.5922 117.655L34.0802 118.789C34.2492 118.917 34.2817 119.158 34.153 119.328C34.0773 119.427 33.9628 119.479 33.8468 119.479Z" fill="#002BFF"/>
<path d="M39.4679 123.763C39.3868 123.763 39.3047 123.738 39.235 123.685L37.7472 122.55C37.5782 122.42 37.5457 122.181 37.6744 122.011C37.8031 121.842 38.044 121.808 38.2135 121.939L39.7015 123.073C39.8703 123.202 39.9028 123.442 39.7741 123.612C39.6986 123.711 39.584 123.763 39.4679 123.763Z" fill="#002BFF"/>
<path d="M33.2045 124.608C33.1234 124.608 33.0416 124.583 32.9719 124.53C32.803 124.401 32.7701 124.16 32.8992 123.991L34.0329 122.502C34.1616 122.334 34.4025 122.301 34.572 122.431C34.741 122.558 34.7736 122.8 34.6449 122.97L33.511 124.457C33.4352 124.556 33.3208 124.608 33.2045 124.608Z" fill="#002BFF"/>
<path d="M37.4887 118.988C37.4076 118.988 37.3255 118.963 37.256 118.908C37.087 118.781 37.0545 118.539 37.1832 118.369L38.3173 116.882C38.4461 116.713 38.6875 116.679 38.8563 116.809C39.0253 116.938 39.0578 117.179 38.9291 117.348L37.795 118.837C37.7194 118.935 37.6048 118.988 37.4887 118.988Z" fill="#002BFF"/>
<path d="M170.1 347.424C150.797 347.424 130.735 342.46 116.92 338.135C116.717 338.072 116.605 337.856 116.668 337.652C116.731 337.45 116.948 337.338 117.15 337.401C131.853 342.004 153.655 347.332 174.027 346.584C174.24 346.567 174.418 346.742 174.425 346.953C174.434 347.166 174.269 347.344 174.056 347.353C172.744 347.4 171.423 347.424 170.1 347.424Z" fill="#002BFF"/>
<path d="M170.427 354.283C141.745 354.283 109.14 342.967 108.756 342.832C108.555 342.763 108.45 342.542 108.52 342.343C108.591 342.142 108.809 342.035 109.011 342.107C109.46 342.265 154.32 357.83 184.906 352.345C185.115 352.31 185.314 352.447 185.351 352.657C185.389 352.866 185.249 353.066 185.042 353.104C180.426 353.931 175.484 354.283 170.427 354.283Z" fill="#002BFF"/>
<path d="M190.48 347.065L191.616 354.685L198.7 348.91L190.48 347.065ZM191.335 355.795C191.288 355.795 191.242 355.786 191.196 355.769C191.068 355.72 190.975 355.604 190.955 355.467L189.637 346.623C189.618 346.497 189.663 346.372 189.754 346.285C189.848 346.198 189.979 346.164 190.101 346.191L199.641 348.332C199.784 348.364 199.898 348.476 199.932 348.619C199.964 348.762 199.913 348.913 199.8 349.005L191.578 355.71C191.509 355.766 191.422 355.795 191.335 355.795Z" fill="#002BFF"/>
<path d="M206.037 63.529C207.479 63.9727 209.014 63.1618 209.457 61.7202C209.901 60.2769 209.088 58.7435 207.647 58.2998C206.205 57.8561 204.672 58.6687 204.228 60.1086C203.784 61.5519 204.595 63.0853 206.037 63.529ZM206.839 64.4198C206.499 64.4198 206.153 64.3705 205.811 64.2651C203.965 63.6956 202.924 61.7304 203.492 59.8842C204.062 58.0363 206.025 56.9959 207.873 57.5637C209.721 58.1332 210.76 60.0984 210.192 61.9463C209.729 63.4508 208.339 64.4198 206.839 64.4198Z" fill="#002BFF"/>
<path d="M155.234 60.3788C155.059 60.3788 154.901 60.2599 154.86 60.0831C154.811 59.8757 154.938 59.6683 155.146 59.6207C169.412 56.2326 183.925 56.0677 198.282 59.1294C198.489 59.1736 198.622 59.3776 198.577 59.585C198.533 59.7924 198.328 59.9267 198.12 59.8808C183.878 56.8446 169.477 57.0078 155.323 60.3687C155.294 60.3755 155.263 60.3788 155.234 60.3788Z" fill="#002BFF"/>
<path d="M234.134 76.2993C234.087 76.2993 234.038 76.2891 233.99 76.2704C233.594 76.1089 194.084 60.2429 160.866 67.3148C160.657 67.359 160.453 67.2265 160.409 67.0191C160.365 66.8117 160.497 66.6077 160.705 66.5635C194.157 59.4422 233.883 75.3966 234.281 75.5581C234.476 75.638 234.571 75.8624 234.491 76.0596C234.43 76.2092 234.286 76.2993 234.134 76.2993Z" fill="#002BFF"/>
</svg>
