<svg width="375" height="425" viewBox="0 0 375 425" fill="none" xmlns="http://www.w3.org/2000/svg">
<path d="M101.967 134.897C103.927 142.045 99.72 149.428 92.572 151.388C85.424 153.347 78.0411 149.141 76.0818 141.992C74.1226 134.844 78.3289 127.461 85.4769 125.502C92.6251 123.542 100.008 127.75 101.967 134.897Z" fill="white"/>
<path d="M89.0451 125.394C87.8872 125.394 86.7227 125.548 85.5758 125.863C82.2152 126.784 79.4146 128.959 77.6896 131.986C75.9646 135.016 75.5218 138.533 76.443 141.894C77.3642 145.255 79.5389 148.055 82.5666 149.78C85.5941 151.506 89.1121 151.948 92.4733 151.026C95.8339 150.105 98.6346 147.931 100.36 144.903C102.085 141.875 102.527 138.356 101.606 134.997C100.685 131.636 98.5102 128.834 95.4825 127.111C93.4881 125.973 91.2801 125.394 89.0451 125.394V125.394ZM89.0028 152.245C86.6393 152.245 84.3053 151.633 82.1958 150.431C78.9942 148.607 76.6949 145.646 75.7208 142.091C74.7469 138.538 75.2149 134.818 77.039 131.616C78.8628 128.415 81.8244 126.116 85.378 125.142C88.9314 124.168 92.6517 124.635 95.8533 126.46C99.0549 128.284 101.354 131.245 102.328 134.798C103.302 138.353 102.834 142.072 101.01 145.273C99.1863 148.475 96.2247 150.775 92.6712 151.749C91.4589 152.08 90.2268 152.245 89.0028 152.245" fill="#002BFF"/>
<path d="M89.6411 144.726C89.5381 144.726 89.4369 144.684 89.3645 144.604L82.9625 137.581C82.8233 137.43 82.834 137.192 82.9868 137.052C83.14 136.913 83.3766 136.925 83.5157 137.078L89.2404 143.356C89.1468 138.139 89.7764 134.096 91.1592 131.017C91.2439 130.829 91.4656 130.745 91.6541 130.83C91.8428 130.915 91.9271 131.136 91.8423 131.325C90.4197 134.492 89.8222 138.749 90.0155 144.338C90.0207 144.495 89.9277 144.639 89.7824 144.699C89.7367 144.718 89.6887 144.726 89.6411 144.726" fill="#002BFF"/>
<path d="M242.27 355.868H100.906C94.8144 355.868 90.4991 350.945 91.2679 344.872L126.076 69.8887C126.845 63.8146 132.406 58.8931 138.498 58.8931L272.767 57.324C288.179 57.324 290.27 63.8146 289.5 69.8887L254.692 344.872C253.924 350.945 248.361 355.868 242.27 355.868" fill="#002BFF"/>
<path d="M272.767 57.6997L138.502 59.2671C132.598 59.2671 127.192 64.0526 126.448 69.9346L91.6394 344.92C91.28 347.759 92.0515 350.421 93.8117 352.419C95.5594 354.401 98.079 355.494 100.906 355.494H242.271C248.171 355.494 253.576 350.708 254.322 344.826L289.129 69.8411C289.559 66.4411 288.944 63.852 287.246 61.9242C284.774 59.1209 279.902 57.6997 272.767 57.6997ZM242.271 356.242H100.906C97.8609 356.242 95.1419 355.06 93.25 352.913C91.3457 350.753 90.5099 347.881 90.8965 344.826L125.705 69.8411C126.495 63.597 132.234 58.5191 138.498 58.5191L272.762 56.95C280.126 56.95 285.187 58.4579 287.807 61.4295C289.656 63.5273 290.331 66.3085 289.872 69.9346L255.065 344.92C254.274 351.164 248.535 356.242 242.271 356.242" fill="#002BFF"/>
<path d="M233.764 355.868H92.3998C86.3081 355.868 81.9928 350.929 82.7615 344.838L117.57 68.9775C118.338 62.8864 123.9 57.9479 129.992 57.9479H271.356C277.449 57.9479 281.763 62.8864 280.995 68.9775L246.186 344.838C245.417 350.929 239.857 355.868 233.764 355.868" fill="white"/>
<path d="M129.992 58.3219C124.092 58.3219 118.686 63.1227 117.941 69.0251L83.1332 344.884C82.7729 347.738 83.5482 350.416 85.316 352.42C87.0634 354.402 89.5791 355.494 92.3997 355.494H233.764C239.664 355.494 245.07 350.693 245.815 344.791L280.623 68.9299C280.983 66.0756 280.208 63.3998 278.44 61.3938C276.692 59.4133 274.176 58.3219 271.356 58.3219H129.992ZM233.764 356.242H92.3997C89.3611 356.242 86.6459 355.06 84.7545 352.917C82.8423 350.747 82.0027 347.863 82.3903 344.791L117.198 68.9299C117.989 62.6671 123.728 57.5722 129.992 57.5722H271.356C274.395 57.5722 277.11 58.7537 279.001 60.8991C280.913 63.0683 281.753 65.9532 281.365 69.0251L246.558 344.884C245.767 351.147 240.028 356.242 233.764 356.242Z" fill="#002BFF"/>
<path d="M90.8173 345.217L124.053 81.8176C124.231 80.4117 125.515 79.271 126.921 79.271H269.046C270.451 79.271 271.448 80.4117 271.271 81.8176L238.034 345.217C237.857 346.625 236.574 347.764 235.166 347.764H93.0423C91.6361 347.764 90.6399 346.623 90.8173 345.217Z" fill="white"/>
<path d="M91.1889 345.265C91.1165 345.841 91.2706 346.379 91.6234 346.778C91.9712 347.173 92.4754 347.39 93.0427 347.39H235.167C236.389 347.39 237.509 346.394 237.664 345.172L270.899 81.7717C270.972 81.1954 270.817 80.6582 270.465 80.2587C270.117 79.8626 269.614 79.6467 269.046 79.6467H126.921C125.699 79.6467 124.58 80.6412 124.425 81.8652L91.1889 345.265ZM235.167 348.138H93.0427C92.2573 348.138 91.5539 347.832 91.0617 347.273C90.5648 346.71 90.3462 345.964 90.446 345.172L123.682 81.7717C123.882 80.1856 125.335 78.897 126.921 78.897H269.046C269.831 78.897 270.535 79.2047 271.026 79.7623C271.523 80.3267 271.742 81.073 271.642 81.8652L238.407 345.265C238.206 346.85 236.753 348.138 235.167 348.138" fill="#002BFF"/>
<path d="M198.904 71.978C196.622 71.978 195.006 70.1267 195.293 67.8453C195.582 65.5639 197.664 63.7126 199.946 63.7126C202.229 63.7126 203.846 65.5639 203.557 67.8453C203.269 70.1267 201.185 71.978 198.904 71.978Z" fill="#002BFF"/>
<path d="M258.205 202.71H107.141L107.643 197.229H258.706L258.205 202.71Z" fill="#002BFF"/>
<path d="M240.868 334.244H91.2056L91.703 328.763H241.366L240.868 334.244" fill="#002BFF"/>
<path d="M218.486 237.767C220.618 233.352 220.589 227.601 219.463 221.175L214.887 225.097L209.508 220.42C211.341 227.987 212.198 234.736 208.799 237.917L218.486 237.767" fill="#002BFF"/>
<path d="M191.068 328.646H210.54C213.902 328.646 216.883 325.936 217.217 322.573L225.49 239.598C225.828 236.193 223.329 233.417 219.924 233.417H198.026C194.594 233.417 191.576 236.237 191.333 239.668L185.487 322.643C185.252 325.977 187.733 328.646 191.068 328.646Z" fill="white"/>
<path d="M198.026 233.791C194.772 233.791 191.937 236.439 191.707 239.695L185.861 322.669C185.754 324.18 186.235 325.591 187.218 326.645C188.195 327.694 189.562 328.272 191.068 328.272H210.54C213.702 328.272 216.531 325.698 216.845 322.536L225.116 239.561C225.27 238.015 224.811 236.564 223.824 235.472C222.843 234.388 221.457 233.791 219.924 233.791H198.026ZM210.54 329.02H191.068C189.353 329.02 187.79 328.357 186.668 327.155C185.545 325.948 184.992 324.336 185.113 322.618L190.961 239.642C191.216 236.003 194.387 233.043 198.026 233.043H219.924C221.672 233.043 223.254 233.726 224.378 234.969C225.51 236.218 226.037 237.876 225.862 239.635L217.59 322.611C217.238 326.145 214.076 329.02 210.54 329.02" fill="#002BFF"/>
<path d="M198.123 247.423H216.98C218.38 247.423 219.621 246.286 219.747 244.885C219.875 243.483 218.843 242.347 217.44 242.347H198.584C197.182 242.347 195.942 243.483 195.815 244.885C195.687 246.286 196.721 247.423 198.123 247.423Z" fill="#002BFF"/>
<path d="M198.222 260.017H214.11C216.332 260.017 218.297 258.216 218.498 255.994L218.67 254.104C218.872 251.884 217.235 250.082 215.013 250.082H199.123C196.903 250.082 194.938 251.884 194.737 254.104L194.565 255.994C194.363 258.216 196 260.017 198.222 260.017Z" fill="#002BFF"/>
<path d="M96.5536 328.646H114.584C117.697 328.646 120.475 325.936 120.808 322.573L129.024 239.6C129.361 236.195 127.065 233.417 123.912 233.417H103.637C100.459 233.417 97.6451 236.237 97.3981 239.668L91.4265 322.643C91.1865 325.978 93.4653 328.646 96.5536 328.646" fill="white"/>
<path d="M103.638 233.793C100.637 233.793 98.006 236.439 97.7719 239.695L91.8003 322.67C91.6852 324.268 92.169 325.737 93.1626 326.805C94.0433 327.75 95.2475 328.272 96.5538 328.272H114.584C117.498 328.272 120.122 325.7 120.435 322.538L128.652 239.562C128.811 237.949 128.336 236.397 127.346 235.306C126.462 234.33 125.242 233.793 123.912 233.793H103.638ZM114.584 329.02H96.5538C95.0374 329.02 93.6383 328.415 92.6146 327.315C91.4778 326.092 90.9232 324.425 91.0533 322.616L97.0249 239.642C97.2869 236.003 100.253 233.043 103.638 233.043H123.912C125.457 233.043 126.873 233.668 127.901 234.804C129.032 236.052 129.577 237.813 129.397 239.635L121.181 322.611C120.831 326.145 117.872 329.02 114.584 329.02" fill="#002BFF"/>
<path d="M93.0837 327.632C93.0734 327.632 93.0632 327.631 93.0528 327.631C92.8468 327.614 92.6934 327.433 92.7102 327.226L95.8676 288.643C95.8843 288.437 96.065 288.283 96.2714 288.3C96.4774 288.317 96.6308 288.497 96.6139 288.704L93.4564 327.287C93.4406 327.483 93.2767 327.632 93.0837 327.632Z" fill="#002BFF"/>
<path d="M104.806 244.979H121.159C122.56 244.979 123.8 243.841 123.927 242.44L124.032 241.284C124.159 239.882 123.126 238.746 121.724 238.746H105.372C103.97 238.746 102.73 239.882 102.603 241.284L102.498 242.44C102.371 243.841 103.404 244.979 104.806 244.979Z" fill="#002BFF"/>
<path d="M104.67 260.44H118.055C120.277 260.44 122.241 258.638 122.442 256.416L122.819 252.265C123.021 250.044 121.383 248.242 119.162 248.242H105.777C103.556 248.242 101.591 250.044 101.39 252.265L101.013 256.416C100.811 258.638 102.449 260.44 104.67 260.44Z" fill="#002BFF"/>
<path d="M156.512 233.733L137.054 233.578C133.694 233.551 130.694 236.239 130.333 239.601L121.406 322.568C121.039 325.973 123.515 328.772 126.918 328.797L148.798 328.97C152.228 328.998 155.266 326.201 155.535 322.769L162.041 239.783C162.302 236.448 159.844 233.759 156.512 233.733" fill="white"/>
<path d="M137.005 233.952C133.864 233.952 131.044 236.495 130.705 239.642L121.778 322.607C121.611 324.156 122.06 325.615 123.041 326.715C124.012 327.804 125.39 328.411 126.921 328.423L148.801 328.597C148.817 328.597 148.834 328.597 148.849 328.597C152.081 328.597 154.909 325.979 155.163 322.74L161.667 239.754C161.786 238.241 161.315 236.823 160.341 235.761C159.372 234.707 158.012 234.119 156.509 234.107L137.051 233.952C137.036 233.952 137.02 233.952 137.005 233.952V233.952ZM148.849 329.346C148.83 329.346 148.813 329.346 148.794 329.346L126.915 329.173C125.17 329.158 123.595 328.462 122.482 327.213C121.358 325.953 120.844 324.289 121.034 322.528L129.961 239.56C130.339 236.045 133.493 233.202 137.005 233.202C137.023 233.202 137.04 233.204 137.057 233.204L156.514 233.357C158.228 233.371 159.783 234.046 160.893 235.256C162.009 236.472 162.549 238.09 162.413 239.812L155.909 322.798C155.625 326.419 152.463 329.346 148.849 329.346" fill="#002BFF"/>
<path d="M146.399 308.87L132.628 308.761C129.826 308.737 127.331 310.993 127.054 313.796L126.647 317.93C126.37 320.734 128.417 323.024 131.218 323.046L144.989 323.155C147.791 323.177 150.285 320.922 150.562 318.119L150.97 313.985C151.247 311.182 149.2 308.892 146.399 308.87Z" fill="#002BFF"/>
<path d="M150.979 299.464L130.877 299.304C129.824 299.295 128.885 300.144 128.781 301.198L128.607 302.964C128.503 304.018 129.273 304.878 130.326 304.887L150.428 305.046C151.48 305.055 152.419 304.207 152.523 303.153L152.698 301.386C152.801 300.332 152.031 299.472 150.979 299.464Z" fill="#002BFF"/>
<path d="M151.395 293.667L131.12 293.507C130.115 293.498 129.22 294.308 129.12 295.312C129.021 296.319 129.755 297.141 130.76 297.148L151.037 297.31C152.041 297.316 152.937 296.509 153.036 295.503C153.134 294.496 152.4 293.675 151.395 293.667" fill="#002BFF"/>
<path d="M253.38 233.31L233.922 233.155C230.563 233.13 227.564 235.817 227.202 239.178L218.275 322.145C217.908 325.55 220.385 328.348 223.786 328.376L245.667 328.549C249.096 328.576 252.136 325.778 252.404 322.346L258.91 239.36C259.17 236.025 256.714 233.335 253.38 233.31Z" fill="white"/>
<path d="M233.874 233.529C230.733 233.529 227.912 236.072 227.574 239.219L218.647 322.186C218.481 323.733 218.928 325.191 219.909 326.291C220.879 327.381 222.258 327.988 223.79 328.001L245.671 328.173C248.926 328.19 251.775 325.572 252.032 322.317L258.536 239.331C258.655 237.818 258.184 236.4 257.21 235.339C256.241 234.284 254.881 233.696 253.378 233.684L233.92 233.531C233.905 233.529 233.889 233.529 233.874 233.529V233.529ZM245.716 328.923C245.699 328.923 245.681 328.923 245.664 328.923L223.783 328.749C222.039 328.736 220.464 328.041 219.349 326.789C218.227 325.53 217.712 323.865 217.903 322.106L226.829 239.139C227.208 235.622 230.362 232.781 233.874 232.781C233.891 232.781 233.908 232.781 233.925 232.781L253.383 232.936C255.097 232.949 256.651 233.622 257.761 234.833C258.878 236.05 259.417 237.667 259.282 239.389L252.778 322.376C252.494 325.997 249.332 328.923 245.716 328.923" fill="#002BFF"/>
<path d="M240.112 329.139C240.096 329.139 240.079 329.137 240.064 329.135C239.858 329.11 239.714 328.923 239.739 328.717L251.786 233.254C251.811 233.048 251.998 232.902 252.204 232.929C252.408 232.954 252.554 233.141 252.528 233.347L240.482 328.811C240.458 328.999 240.297 329.139 240.112 329.139" fill="#002BFF"/>
<path d="M243.268 308.446L229.496 308.338C226.695 308.315 224.199 310.57 223.924 313.373L223.516 317.507C223.239 320.311 225.286 322.602 228.087 322.624L241.857 322.733C244.659 322.755 247.154 320.501 247.431 317.698L247.839 313.563C248.115 310.76 246.068 308.468 243.268 308.446Z" fill="#002BFF"/>
<path d="M247.847 299.04L227.746 298.88C226.692 298.872 225.755 299.72 225.65 300.774L225.476 302.541C225.372 303.595 226.141 304.456 227.195 304.463L247.296 304.623C248.35 304.632 249.288 303.783 249.392 302.729L249.565 300.965C249.671 299.909 248.901 299.049 247.847 299.04Z" fill="#002BFF"/>
<path d="M248.265 293.245L227.989 293.083C226.984 293.075 226.088 293.884 225.99 294.89C225.889 295.897 226.624 296.718 227.628 296.726L247.904 296.886C248.911 296.895 249.805 296.086 249.905 295.079C250.004 294.074 249.269 293.252 248.265 293.245Z" fill="#002BFF"/>
<path d="M161.224 329.37H176.975C179.695 329.37 182.152 326.66 182.481 323.299L190.611 240.324C190.944 236.919 188.97 234.143 186.216 234.143H168.506C165.729 234.143 163.239 236.961 162.984 240.394L156.815 323.369C156.566 326.703 158.527 329.37 161.224 329.37Z" fill="white"/>
<path d="M168.506 234.517C165.908 234.517 163.599 237.165 163.356 240.421L157.187 323.396C157.06 325.125 157.553 326.726 158.54 327.791C159.273 328.579 160.201 328.996 161.225 328.996H176.975C179.496 328.996 181.8 326.424 182.109 323.262L190.238 240.287C190.412 238.515 189.936 236.864 188.934 235.759C188.197 234.947 187.258 234.517 186.216 234.517H168.506ZM176.975 329.746H161.225C160.006 329.746 158.856 329.232 157.991 328.301C156.862 327.083 156.298 325.276 156.441 323.34L162.61 240.365C162.88 236.727 165.525 233.767 168.506 233.767H186.216C187.457 233.767 188.618 234.296 189.489 235.256C190.633 236.518 191.178 238.377 190.983 240.36L182.854 323.335C182.508 326.869 179.87 329.746 176.975 329.746" fill="#002BFF"/>
<path d="M168.151 249.698H184.333C185.622 249.698 186.762 248.65 186.879 247.362L187.344 242.257C187.461 240.966 186.509 239.921 185.219 239.921H169.038C167.748 239.921 166.607 240.966 166.49 242.257L166.027 247.362C165.91 248.65 166.86 249.698 168.151 249.698Z" fill="#002BFF"/>
<path d="M167.317 260.234H182.895C184.351 260.234 185.638 259.053 185.771 257.596L185.931 255.845C186.062 254.388 184.989 253.208 183.532 253.208H167.955C166.498 253.208 165.209 254.388 165.077 255.845L164.919 257.596C164.786 259.053 165.861 260.234 167.317 260.234" fill="#002BFF"/>
<path d="M161.872 105.393C160.541 100.978 161.614 95.2289 163.906 88.8029L167.77 92.7248L173.997 88.0481C170.792 95.6148 168.712 102.364 171.53 105.544L161.872 105.393" fill="#002BFF"/>
<path d="M166.336 196.906H146.863C143.501 196.906 141.013 194.196 141.288 190.833L148.078 107.858C148.357 104.453 151.361 101.677 154.766 101.677H176.662C180.095 101.677 182.602 104.496 182.221 107.928L173.006 190.903C172.637 194.237 169.672 196.906 166.336 196.906Z" fill="white"/>
<path d="M154.766 102.051C151.546 102.051 148.714 104.671 148.451 107.889L141.661 190.864C141.536 192.387 142.009 193.815 142.993 194.883C143.972 195.945 145.347 196.53 146.863 196.53H166.336C169.461 196.53 172.286 193.987 172.635 190.861L181.849 107.887C182.021 106.327 181.572 104.858 180.581 103.751C179.6 102.654 178.207 102.051 176.662 102.051H154.766ZM166.336 197.28H146.863C145.136 197.28 143.565 196.608 142.443 195.391C141.315 194.167 140.773 192.539 140.915 190.803L147.704 107.828C148 104.229 151.167 101.303 154.766 101.303H176.662C178.423 101.303 180.013 101.995 181.138 103.253C182.274 104.519 182.789 106.196 182.592 107.969L173.378 190.944C172.983 194.497 169.891 197.28 166.336 197.28" fill="#002BFF"/>
<path d="M167.442 178.92H148.585C147.183 178.92 146.151 177.784 146.276 176.382C146.404 174.981 147.643 173.844 149.046 173.844H167.902C169.305 173.844 170.338 174.981 170.211 176.382C170.083 177.784 168.844 178.92 167.442 178.92Z" fill="#002BFF"/>
<path d="M165.056 191.515H149.168C146.946 191.515 145.309 189.715 145.51 187.493L145.681 185.603C145.884 183.381 147.847 181.58 150.069 181.58H165.959C168.179 181.58 169.816 183.381 169.616 185.603L169.444 187.493C169.242 189.715 167.278 191.515 165.056 191.515Z" fill="#002BFF"/>
<path d="M263.534 196.906H245.504C242.391 196.906 240.105 194.196 240.382 190.833L247.228 107.858C247.508 104.453 250.308 101.677 253.461 101.677H273.736C276.915 101.677 279.216 104.497 278.841 107.928L269.751 190.903C269.385 194.239 266.623 196.906 263.534 196.906Z" fill="white"/>
<path d="M253.462 102.051C250.495 102.051 247.867 104.671 247.602 107.889L240.756 190.864C240.625 192.454 241.113 193.979 242.096 195.046C242.978 196.003 244.188 196.532 245.504 196.532H263.534C266.416 196.532 269.037 193.989 269.379 190.862L278.469 107.887C278.647 106.26 278.18 104.691 277.187 103.584C276.301 102.597 275.076 102.051 273.736 102.051H253.462ZM263.534 197.28H245.504C243.978 197.28 242.572 196.666 241.545 195.553C240.421 194.332 239.862 192.6 240.01 190.803L246.854 107.828C247.151 104.23 250.115 101.303 253.462 101.303H273.736C275.292 101.303 276.715 101.935 277.745 103.085C278.879 104.349 279.414 106.131 279.214 107.969L270.124 190.944C269.734 194.497 266.841 197.28 263.534 197.28" fill="#002BFF"/>
<path d="M256.897 197.599C256.882 197.599 256.867 197.598 256.851 197.596C256.646 197.571 256.499 197.384 256.527 197.18L264.535 132.202C264.561 131.996 264.753 131.85 264.954 131.876C265.159 131.901 265.304 132.088 265.278 132.294L257.27 197.271C257.246 197.46 257.084 197.599 256.897 197.599" fill="#002BFF"/>
<path d="M264.769 176.055H248.416C247.015 176.055 245.982 174.918 246.109 173.516L246.213 172.361C246.34 170.959 247.58 169.823 248.982 169.823H265.335C266.737 169.823 267.771 170.959 267.643 172.361L267.538 173.516C267.41 174.918 266.171 176.055 264.769 176.055" fill="#002BFF"/>
<path d="M262.099 191.515H248.714C246.492 191.515 244.855 189.715 245.057 187.493L245.433 183.342C245.635 181.12 247.598 179.319 249.82 179.319H263.206C265.426 179.319 267.063 181.12 266.863 183.342L266.485 187.493C266.285 189.715 264.32 191.515 262.099 191.515Z" fill="#002BFF"/>
<path d="M229.656 197.146H210.183C206.82 197.146 204.333 194.436 204.609 191.073L211.399 108.098C211.677 104.693 214.681 101.917 218.086 101.917H239.982C243.415 101.917 245.922 104.737 245.541 108.168L236.326 191.143C235.957 194.478 232.992 197.146 229.656 197.146Z" fill="white"/>
<path d="M218.086 102.291C214.867 102.291 212.034 104.91 211.771 108.129L204.981 191.104C204.857 192.629 205.33 194.057 206.314 195.124C207.293 196.187 208.667 196.772 210.183 196.772H229.657C232.783 196.772 235.608 194.228 235.953 191.102L245.169 108.127C245.343 106.568 244.892 105.099 243.901 103.992C242.92 102.896 241.528 102.291 239.982 102.291H218.086ZM229.657 197.52H210.183C208.456 197.52 206.885 196.85 205.763 195.631C204.636 194.409 204.092 192.778 204.235 191.043L211.025 108.067C211.32 104.47 214.488 101.543 218.086 101.543H239.982C241.744 101.543 243.333 102.235 244.459 103.493C245.594 104.761 246.109 106.435 245.914 108.21L236.698 191.184C236.304 194.737 233.211 197.52 229.657 197.52" fill="#002BFF"/>
<path d="M233.779 121.985H219.997C217.194 121.985 215.127 119.712 215.382 116.909L215.757 112.775C216.011 109.971 218.491 107.698 221.294 107.698H235.076C237.879 107.698 239.945 109.971 239.69 112.775L239.316 116.909C239.061 119.712 236.582 121.985 233.779 121.985Z" fill="#002BFF"/>
<path d="M236.574 131.42H216.456C215.402 131.42 214.625 130.565 214.722 129.511L214.882 127.745C214.977 126.691 215.91 125.837 216.964 125.837H237.08C238.134 125.837 238.911 126.691 238.816 127.745L238.655 129.511C238.559 130.565 237.628 131.42 236.574 131.42Z" fill="#002BFF"/>
<path d="M235.894 137.216H215.603C214.596 137.216 213.855 136.4 213.945 135.395C214.037 134.388 214.926 133.572 215.933 133.572H236.224C237.23 133.572 237.971 134.388 237.879 135.395C237.788 136.4 236.899 137.216 235.894 137.216Z" fill="#002BFF"/>
<path d="M196.673 197.63H181.603C179.002 197.63 177.12 194.92 177.388 191.558L184.022 108.584C184.294 105.179 186.663 102.401 189.298 102.401H206.244C208.899 102.401 210.793 105.222 210.441 108.652L201.935 191.627C201.591 194.963 199.254 197.63 196.673 197.63Z" fill="white"/>
<path d="M189.299 102.777C186.852 102.777 184.651 105.395 184.394 108.613L177.762 191.588C177.62 193.385 178.109 195.036 179.107 196.115C179.796 196.862 180.657 197.256 181.603 197.256H196.673C199.048 197.256 201.241 194.715 201.561 191.59L210.069 108.615C210.254 106.801 209.77 105.057 208.772 103.95C208.078 103.183 207.205 102.777 206.244 102.777H189.299ZM196.673 198.004H181.603C180.443 198.004 179.391 197.528 178.556 196.624C177.417 195.389 176.856 193.533 177.016 191.529L183.648 108.553C183.935 104.955 186.47 102.027 189.299 102.027H206.244C207.405 102.027 208.5 102.532 209.328 103.448C210.482 104.728 211.025 106.639 210.814 108.691L202.307 191.666C201.941 195.221 199.468 198.004 196.673 198.004" fill="#002BFF"/>
<path d="M204.093 115.522H188.612C187.377 115.522 186.468 114.476 186.58 113.186L186.813 110.517C186.924 109.227 188.015 108.181 189.249 108.181H204.731C205.965 108.181 206.875 109.227 206.762 110.517L206.531 113.186C206.419 114.476 205.328 115.522 204.093 115.522Z" fill="#002BFF"/>
<path d="M203.29 123.435H188.386C186.992 123.435 185.965 122.254 186.091 120.797C186.218 119.34 187.451 118.159 188.845 118.159H203.747C205.141 118.159 206.169 119.34 206.042 120.797C205.916 122.254 204.684 123.435 203.29 123.435Z" fill="#002BFF"/>
<path d="M133.037 197.209H117.797C115.166 197.209 113.264 194.499 113.536 191.136L120.242 108.161C120.518 104.756 122.915 101.98 125.58 101.98H142.717C145.403 101.98 147.317 104.8 146.962 108.231L138.358 191.206C138.012 194.541 135.647 197.209 133.037 197.209" fill="white"/>
<path d="M125.579 102.354C123.102 102.354 120.875 104.973 120.615 108.191L113.908 191.167C113.764 192.95 114.253 194.594 115.25 195.673C115.95 196.433 116.831 196.835 117.797 196.835H133.036C135.441 196.835 137.661 194.293 137.985 191.167L146.589 108.193C146.778 106.364 146.307 104.672 145.294 103.549C144.59 102.767 143.698 102.354 142.716 102.354H125.579ZM133.036 197.583H117.797C116.633 197.583 115.533 197.086 114.7 196.182C113.562 194.948 113.001 193.098 113.162 191.107L119.869 108.132C120.16 104.533 122.722 101.606 125.579 101.606H142.716C143.899 101.606 145.012 102.117 145.85 103.047C147.004 104.327 147.545 106.231 147.334 108.27L138.73 191.245C138.361 194.8 135.86 197.583 133.036 197.583" fill="#002BFF"/>
<path d="M140.542 115.1H124.886C123.637 115.1 122.717 114.055 122.831 112.764L123.065 110.095C123.179 108.805 124.282 107.76 125.53 107.76H141.187C142.435 107.76 143.355 108.805 143.241 110.095L143.007 112.764C142.894 114.055 141.79 115.1 140.542 115.1Z" fill="#002BFF"/>
<path d="M139.728 123.012H124.657C123.247 123.012 122.208 121.832 122.336 120.375C122.464 118.918 123.71 117.737 125.12 117.737H140.191C141.601 117.737 142.64 118.918 142.512 120.375C142.384 121.832 141.137 123.012 139.728 123.012Z" fill="#002BFF"/>
<path d="M323.163 185.999C323.051 185.999 322.941 185.949 322.866 185.853C322.74 185.688 322.772 185.453 322.936 185.327L323.801 184.668C324.615 184.044 325.581 182.792 325.591 182.781C325.717 182.616 325.951 182.585 326.116 182.711C326.279 182.837 326.31 183.071 326.184 183.236C326.142 183.291 325.149 184.579 324.255 185.261L323.391 185.922C323.323 185.975 323.243 185.999 323.163 185.999Z" fill="#002BFF"/>
<path d="M321.695 184.351C321.559 184.351 321.428 184.277 321.362 184.149C321.266 183.966 321.338 183.739 321.521 183.644L322.487 183.143C323.395 182.67 324.564 181.603 324.574 181.592C324.727 181.453 324.965 181.463 325.105 181.616C325.244 181.767 325.234 182.005 325.081 182.145C325.03 182.191 323.828 183.289 322.832 183.807L321.866 184.309C321.812 184.338 321.753 184.351 321.695 184.351" fill="#002BFF"/>
<path d="M288.533 166.617C285.886 166.96 271.494 169.873 270.271 186.087C270.242 186.459 270.436 186.816 270.761 187.002L279.082 191.794C279.395 191.974 279.584 192.309 279.572 192.67C279.48 195.634 279.004 209.11 277.746 214.771C276.765 219.183 276.084 222.782 275.757 224.582C275.642 225.218 276.162 225.784 276.804 225.726C278.839 225.539 282.88 225.089 285.544 224.269C288.89 223.241 290.367 221.277 298.454 224.633C300.152 225.337 302.077 225.242 303.702 224.381C308.13 222.037 317.349 217.881 323.706 219.98C324.426 220.216 325.13 219.584 324.965 218.844C324.037 214.683 322.096 206.657 321.888 202.416C321.63 197.115 324.676 179.467 323.259 177.623C321.909 175.868 315.964 171.833 311.947 170.728C310.476 170.325 308.929 170.286 307.688 169.98C304.577 169.213 295.948 165.658 288.533 166.617" fill="#002BFF"/>
<path d="M288.533 166.617L288.58 166.989C286.875 167.21 271.888 169.621 270.644 186.114C270.627 186.34 270.746 186.561 270.948 186.677L279.269 191.469C279.703 191.719 279.961 192.183 279.948 192.68C279.864 195.378 279.385 209.126 278.112 214.853C277.126 219.285 276.444 222.894 276.126 224.648C276.092 224.835 276.145 225.022 276.272 225.162C276.4 225.301 276.582 225.371 276.77 225.352C278.887 225.158 282.828 224.713 285.434 223.912C286.003 223.737 286.525 223.531 287.03 223.332C289.473 222.368 291.78 221.457 298.598 224.286C300.196 224.949 301.992 224.862 303.527 224.05C308.363 221.491 317.433 217.513 323.823 219.623C324.032 219.693 324.255 219.647 324.418 219.499C324.58 219.353 324.648 219.138 324.6 218.926C324.478 218.373 324.336 217.755 324.183 217.085C323.192 212.729 321.696 206.145 321.514 202.434C321.406 200.195 321.866 195.896 322.354 191.345C322.953 185.759 323.697 178.808 322.963 177.852C321.603 176.084 315.716 172.154 311.847 171.09C311.065 170.874 310.252 170.765 309.467 170.66C308.804 170.57 308.176 170.485 307.598 170.343C306.957 170.185 306.077 169.908 305.06 169.587C301.077 168.332 294.413 166.235 288.58 166.989L288.533 166.617ZM276.711 226.103C276.334 226.103 275.978 225.949 275.72 225.666C275.434 225.354 275.314 224.934 275.388 224.516C275.708 222.754 276.393 219.135 277.381 214.69C278.639 209.029 279.116 195.344 279.198 192.658C279.205 192.437 279.089 192.229 278.895 192.117L270.574 187.326C270.125 187.068 269.858 186.57 269.897 186.058C271.186 168.973 286.717 166.474 288.485 166.246C294.479 165.471 301.244 167.6 305.285 168.873C306.289 169.189 307.16 169.463 307.778 169.616C308.317 169.748 308.924 169.83 309.567 169.917C310.376 170.025 311.214 170.138 312.045 170.367C316.17 171.501 322.137 175.551 323.556 177.395C324.413 178.509 323.954 183.438 323.099 191.425C322.614 195.945 322.157 200.216 322.262 202.397C322.441 206.043 323.928 212.588 324.914 216.92C325.066 217.59 325.207 218.21 325.331 218.763C325.438 219.242 325.285 219.725 324.921 220.055C324.556 220.385 324.059 220.49 323.588 220.335C317.458 218.311 308.608 222.209 303.877 224.711C302.145 225.629 300.115 225.726 298.311 224.978C291.773 222.266 289.702 223.082 287.305 224.028C286.787 224.232 286.251 224.444 285.655 224.628C282.982 225.449 278.984 225.901 276.838 226.098C276.796 226.102 276.753 226.103 276.711 226.103" fill="white"/>
<path d="M274.302 206.116C276.777 209.812 279.64 210.99 285.882 209.38C292.123 207.771 305.358 198.296 311.899 189.273C311.899 189.273 312.351 188.445 313.63 188.596C314.908 188.746 320.171 190.777 324.081 187.318C327.991 183.858 327.058 181.378 326.863 180.909C326.533 180.113 320.698 181.13 319.119 180.426C317.54 179.722 317.559 178.631 318.743 177.016C320.156 175.088 317.004 174.649 314.607 178.068C313.15 180.147 310.697 182.883 308.479 184.005C306.186 185.166 282.875 193.555 281.672 193.181C280.468 192.807 272.898 188.232 272.898 188.232C272.898 188.232 271.606 202.091 274.302 206.116Z" fill="white"/>
<path d="M273.223 188.865C273.015 191.549 272.334 202.504 274.613 205.909C276.781 209.144 279.305 210.691 285.789 209.018C292.06 207.4 305.193 197.878 311.586 189.066C311.69 188.899 312.283 188.061 313.674 188.224C313.892 188.25 314.194 188.321 314.578 188.409C316.557 188.872 320.675 189.832 323.833 187.037C327.191 184.068 326.859 181.917 326.533 181.093C326.206 180.899 324.591 180.963 323.405 181.009C321.644 181.079 319.825 181.15 318.966 180.768C318.181 180.419 317.725 179.967 317.57 179.386C317.383 178.682 317.66 177.857 318.441 176.795C318.709 176.428 318.752 176.18 318.703 176.067C318.648 175.95 318.449 175.918 318.368 175.909C317.689 175.846 316.215 176.424 314.913 178.284C313.468 180.346 310.961 183.168 308.647 184.34C307.27 185.037 283.111 194.018 281.559 193.538C280.502 193.21 274.967 189.912 273.223 188.865V188.865ZM281.219 210.455C278.039 210.455 275.883 209.151 273.991 206.326C271.252 202.235 272.473 188.77 272.526 188.199C272.538 188.069 272.614 187.957 272.73 187.898C272.845 187.84 272.981 187.845 273.092 187.913C275.186 189.178 280.832 192.528 281.782 192.823C283.096 192.982 305.574 185.055 308.311 183.671C310.498 182.563 312.904 179.845 314.3 177.854C315.7 175.857 317.385 175.064 318.437 175.165C318.896 175.209 319.231 175.42 319.384 175.761C319.513 176.047 319.559 176.537 319.044 177.237C318.417 178.092 318.172 178.731 318.295 179.194C318.386 179.542 318.706 179.833 319.27 180.084C319.969 180.396 321.78 180.324 323.374 180.261C325.783 180.166 326.953 180.149 327.208 180.764C327.6 181.708 328.104 184.26 324.33 187.598C320.882 190.648 316.51 189.63 314.408 189.139C314.048 189.055 313.764 188.989 313.586 188.969C312.596 188.851 312.241 189.433 312.226 189.457C312.221 189.467 312.21 189.482 312.203 189.492C305.727 198.426 292.368 208.094 285.976 209.743C284.159 210.212 282.593 210.455 281.219 210.455" fill="#002BFF"/>
<path d="M322.837 188.202L322.747 189.033L322.229 193.822C321.695 198.038 322.11 201.474 322.11 201.474C322.101 202.798 322.909 204.357 323.901 205.233C325.044 206.242 325.644 206.45 326.575 206.79C330.086 208.066 331.616 207.672 332.889 204.046C334.162 200.422 333.714 198.172 330.717 186.932C330.717 186.932 329.892 184.663 332.214 183.138C334.28 181.783 333.598 178.527 331.694 176.064C328.658 172.134 322.292 187.68 322.837 188.202" fill="white"/>
<path d="M323.096 187.932C323.096 187.933 323.096 187.933 323.097 187.933C323.096 187.933 323.096 187.933 323.096 187.932ZM323.177 188.047C323.204 188.107 323.216 188.175 323.209 188.243L322.601 193.863C322.077 197.987 322.477 201.394 322.482 201.428C322.484 201.445 322.484 201.46 322.484 201.476C322.477 202.633 323.177 204.095 324.15 204.952C325.221 205.899 325.763 206.094 326.659 206.421L326.705 206.438C328.605 207.13 329.72 207.25 330.55 206.858C331.342 206.482 331.954 205.578 332.536 203.922C333.768 200.418 333.372 198.346 330.354 187.029C330.353 187.029 329.472 184.491 332.009 182.825C332.581 182.449 332.933 181.892 333.054 181.167C333.287 179.784 332.651 177.915 331.398 176.293C331.028 175.814 330.633 175.692 330.115 175.897C327.24 177.036 323.179 186.969 323.177 188.047ZM329.481 207.828C328.685 207.828 327.716 207.602 326.448 207.142L326.404 207.125C325.491 206.793 324.831 206.553 323.653 205.513C322.523 204.515 321.736 202.866 321.736 201.496C321.696 201.159 321.339 197.855 321.856 193.775L322.453 188.268C322.395 188.064 322.438 187.723 322.643 187.031C323.323 184.759 327.091 175.668 330.241 175.083C330.706 174.996 331.39 175.056 331.99 175.834C333.367 177.618 334.059 179.707 333.794 181.29C333.637 182.216 333.163 182.963 332.42 183.45C330.383 184.788 331.04 186.725 331.068 186.806C334.147 198.346 334.545 200.464 333.243 204.17C332.59 206.03 331.859 207.067 330.871 207.534C330.46 207.728 330.008 207.828 329.481 207.828" fill="#002BFF"/>
<path d="M324.923 180.837C324.923 180.837 319.767 181.39 318.17 180.129C316.987 179.195 319.195 176.4 319.36 176.183C320.761 174.338 324.025 170.041 324.513 169.43C324.953 168.88 325.793 167.566 326.89 167.662C327.988 167.759 334.065 168.759 334.509 168.954C335.436 169.364 335.045 170.651 334.366 171.362C333.688 172.071 324.923 180.837 324.923 180.837" fill="#002BFF"/>
<path d="M326.778 168.031C326.048 168.031 325.385 168.904 324.984 169.432C324.92 169.519 324.858 169.597 324.804 169.665C324.297 170.301 320.738 174.988 319.66 176.409C318.596 177.793 317.81 179.369 318.402 179.836C319.578 180.764 323.262 180.625 324.751 180.479C325.702 179.53 333.467 171.763 334.096 171.103C334.499 170.68 334.746 170.065 334.667 169.672C334.632 169.493 334.533 169.374 334.358 169.298C333.936 169.133 328.048 168.14 326.858 168.037C326.83 168.033 326.805 168.031 326.778 168.031ZM324.923 180.838H324.926H324.923ZM322.47 181.332C320.852 181.332 318.874 181.162 317.938 180.423C316.688 179.437 318.094 177.217 319.043 175.982C320.143 174.532 323.706 169.84 324.219 169.198C324.27 169.133 324.326 169.06 324.389 168.978C324.898 168.309 325.753 167.187 326.924 167.29C327.845 167.372 334.117 168.371 334.661 168.613C335.06 168.79 335.317 169.106 335.4 169.526C335.548 170.265 335.125 171.11 334.639 171.62C333.965 172.326 325.545 180.744 325.187 181.103C325.127 181.164 325.047 181.201 324.962 181.21C324.865 181.22 323.786 181.332 322.47 181.332Z" fill="white"/>
<path d="M281.967 223.725C281.967 223.725 276.992 265.115 276.376 273.1C275.762 281.085 274.841 309.031 276.376 322.852C277.371 331.804 278.061 337.793 278.423 340.901C278.591 342.343 279.812 343.427 281.262 343.427H291.406C291.926 343.427 292.348 343.012 292.354 342.494C292.4 338.766 292.732 324.566 295.11 312.409C297.874 298.282 300.944 276.172 302.481 267.265C302.993 264.292 303.425 260.987 303.789 257.754C303.789 257.754 303.789 257.754 304.938 261.123C306.087 264.491 310.466 287.227 311.694 296.133C312.812 304.234 314.691 336.729 315.022 342.536C315.049 343.038 315.466 343.427 315.967 343.427H328.957C329.443 343.427 329.851 343.06 329.899 342.575C330.504 336.554 334.06 300.159 333.499 283.849C332.884 266.036 324.899 244.846 323.364 239.011C321.829 233.175 319.769 218.378 319.769 218.378C319.769 218.378 288.628 218.848 281.967 223.725" fill="white"/>
<path d="M303.789 257.378C303.947 257.378 304.091 257.48 304.142 257.633L305.291 261.001C306.446 264.382 310.813 287.004 312.064 296.082C313.176 304.138 315.034 336.175 315.396 342.516C315.413 342.817 315.665 343.053 315.967 343.053H328.957C329.253 343.053 329.498 342.832 329.527 342.538C330.225 335.575 333.681 300.014 333.124 283.861C332.636 269.668 327.405 253.183 324.595 244.326C323.878 242.068 323.311 240.283 323.002 239.107C321.606 233.801 319.758 220.979 319.444 218.759C316.11 218.829 288.696 219.531 282.319 223.934C281.976 226.795 277.337 265.497 276.75 273.129C276.075 281.909 275.259 309.403 276.748 322.81C277.768 331.984 278.469 338.055 278.795 340.857C278.941 342.11 280.002 343.053 281.262 343.053H291.408C291.719 343.053 291.975 342.8 291.979 342.489C292.03 338.473 292.377 324.433 294.743 312.338C296.543 303.132 298.476 290.53 300.028 280.403C300.86 274.983 301.577 270.302 302.112 267.201C302.57 264.547 302.996 261.443 303.416 257.711C303.437 257.538 303.574 257.4 303.748 257.382C303.761 257.38 303.775 257.378 303.789 257.378V257.378ZM328.957 343.803H315.967C315.267 343.803 314.687 343.255 314.648 342.558C314.288 336.223 312.43 304.212 311.323 296.184C310.075 287.132 305.728 264.6 304.584 261.244L303.969 259.444C303.608 262.47 303.241 265.061 302.85 267.328C302.316 270.422 301.599 275.101 300.769 280.517C299.216 290.651 297.281 303.261 295.477 312.482C293.123 324.515 292.778 338.499 292.728 342.499C292.718 343.218 292.127 343.803 291.408 343.803H281.262C279.621 343.803 278.241 342.574 278.051 340.943C277.724 338.142 277.024 332.068 276.004 322.893C274.51 309.439 275.326 281.874 276.004 273.071C276.611 265.169 281.546 224.094 281.595 223.681C281.609 223.577 281.663 223.484 281.746 223.422C288.426 218.531 318.487 218.023 319.764 218.004C319.765 218.004 319.767 218.004 319.769 218.004C319.956 218.004 320.114 218.142 320.139 218.327C320.16 218.474 322.215 233.168 323.726 238.916C324.031 240.076 324.595 241.85 325.307 244.099C328.129 252.99 333.381 269.538 333.872 283.835C334.431 300.038 330.972 335.641 330.271 342.613C330.205 343.291 329.639 343.803 328.957 343.803" fill="#002BFF"/>
<path d="M303.802 258.016C303.787 258.016 303.773 258.016 303.76 258.014C303.554 257.99 303.406 257.805 303.43 257.599C303.637 255.753 303.839 253.786 304.03 251.753C304.406 247.753 307.085 244.266 310.857 242.869L313.099 242.037C313.295 241.966 313.509 242.065 313.58 242.258C313.652 242.452 313.553 242.668 313.359 242.739L311.117 243.571C307.613 244.868 305.123 248.108 304.776 251.823C304.584 253.861 304.382 255.833 304.173 257.684C304.152 257.875 303.989 258.016 303.802 258.016" fill="#002BFF"/>
<path d="M326.104 343.424H317.827C317.24 343.424 316.712 343.776 316.487 344.32C315.753 346.103 314.259 350.275 314.459 354.232C314.515 355.314 315.413 356.16 316.496 356.16H340.784C341.901 356.16 342.749 355.14 342.526 354.045C342.258 352.735 341.335 351.011 338.671 349.462C334.359 346.953 328.94 344.444 327.231 343.669C326.878 343.507 326.494 343.424 326.104 343.424Z" fill="white"/>
<path d="M317.827 343.798C317.389 343.798 316.999 344.058 316.834 344.461C316.166 346.084 314.635 350.285 314.834 354.214C314.879 355.094 315.609 355.786 316.496 355.786H340.784C341.209 355.786 341.605 355.598 341.875 355.268C342.139 354.945 342.243 354.527 342.159 354.12C341.926 352.983 341.1 351.308 338.482 349.785C334.157 347.269 328.66 344.728 327.077 344.009C326.769 343.869 326.441 343.798 326.104 343.798H317.827ZM340.784 356.534H316.496C315.209 356.534 314.15 355.531 314.086 354.251C313.878 350.173 315.454 345.846 316.143 344.177C316.423 343.492 317.084 343.05 317.827 343.05H326.104C326.55 343.05 326.982 343.143 327.386 343.327C328.976 344.049 334.504 346.604 338.86 349.137C341.716 350.8 342.628 352.684 342.892 353.971C343.021 354.598 342.861 355.244 342.455 355.742C342.044 356.245 341.435 356.534 340.784 356.534" fill="#002BFF"/>
<path d="M327.228 349.231C327.131 349.231 327.035 349.194 326.961 349.119C326.815 348.973 326.819 348.735 326.965 348.59L330.448 345.163C330.596 345.018 330.834 345.02 330.978 345.168C331.123 345.314 331.121 345.552 330.973 345.697L327.49 349.124C327.417 349.195 327.324 349.231 327.228 349.231Z" fill="#002BFF"/>
<path d="M329.475 350.635C329.379 350.635 329.282 350.598 329.209 350.525C329.062 350.377 329.066 350.139 329.212 349.994L332.695 346.567C332.843 346.423 333.079 346.424 333.226 346.572C333.37 346.718 333.368 346.956 333.22 347.101L329.737 350.528C329.664 350.599 329.569 350.635 329.475 350.635" fill="#002BFF"/>
<path d="M289.582 343.424H281.304C280.716 343.424 280.188 343.776 279.965 344.32C279.23 346.103 277.736 350.275 277.937 354.232C277.991 355.314 278.89 356.16 279.973 356.16H304.261C305.378 356.16 306.226 355.14 306.002 354.045C305.735 352.735 304.81 351.011 302.148 349.462C297.837 346.953 292.417 344.444 290.709 343.669C290.354 343.507 289.969 343.424 289.582 343.424Z" fill="white"/>
<path d="M281.304 343.798C280.866 343.798 280.476 344.058 280.311 344.461C279.643 346.084 278.11 350.285 278.311 354.214C278.355 355.094 279.086 355.786 279.973 355.786H304.261C304.686 355.786 305.082 355.598 305.351 355.268C305.614 354.945 305.718 354.527 305.636 354.12C305.403 352.983 304.576 351.308 301.959 349.785C297.636 347.269 292.135 344.728 290.552 344.009C290.245 343.869 289.918 343.798 289.582 343.798H281.304ZM304.261 356.534H279.973C278.686 356.534 277.627 355.531 277.563 354.251C277.355 350.173 278.931 345.846 279.618 344.177C279.9 343.492 280.561 343.05 281.304 343.05H289.582C290.025 343.05 290.457 343.143 290.863 343.327C292.453 344.049 297.981 346.604 302.335 349.137C305.193 350.8 306.106 352.684 306.369 353.971C306.497 354.598 306.337 355.244 305.931 355.742C305.519 356.245 304.911 356.534 304.261 356.534" fill="#002BFF"/>
<path d="M289.775 348.932C289.678 348.932 289.581 348.894 289.508 348.82C289.362 348.672 289.366 348.435 289.512 348.291L292.995 344.864C293.141 344.717 293.379 344.721 293.524 344.867C293.67 345.015 293.668 345.251 293.52 345.397L290.037 348.825C289.964 348.896 289.869 348.932 289.775 348.932" fill="#002BFF"/>
<path d="M292.021 350.336C291.926 350.336 291.829 350.298 291.754 350.224C291.61 350.077 291.611 349.839 291.759 349.695L295.242 346.268C295.39 346.123 295.627 346.125 295.773 346.273C295.917 346.419 295.916 346.657 295.768 346.802L292.284 350.229C292.211 350.3 292.116 350.336 292.021 350.336Z" fill="#002BFF"/>
<path d="M299.119 146.154C299.299 146.215 299.493 146.294 299.697 146.392C299.697 146.392 300.156 146.673 300.576 147.441C300.996 148.211 301.694 150.588 302.604 150.448C303.512 150.309 304.63 146.603 304.63 146.603C304.63 146.603 304.98 144.784 307.777 145.484C310.573 146.183 312.741 147.371 313.581 147.861C314.419 148.351 315.189 148.49 316.027 148.42C316.867 148.351 319.594 146.742 319.104 144.155C318.614 141.569 316.236 139.81 314.14 139.82C311.955 139.832 308.826 138.423 308.266 138.142C307.707 137.863 304.414 136.513 302.622 137.515C301.023 138.407 299.678 139.822 298.947 142.268C298.481 143.832 298.84 145.263 298.889 145.734C298.908 145.92 298.942 146.095 299.119 146.154" fill="#002BFF"/>
<path d="M313.934 148.121C313.987 148.15 314.018 148.206 314.014 148.265C313.985 148.692 313.89 150.458 314.157 152.051C314.305 152.93 314.869 155.067 314.631 155.509C314.395 155.949 313.514 155.983 313.106 155.949C312.7 155.915 312.023 156.084 311.853 156.424C311.683 156.762 311.175 159.914 310.973 160.658C310.769 161.405 310.092 162.285 308.838 162.149C308.678 162.132 308.209 162.027 307.845 161.942C307.581 161.881 307.318 162.056 307.275 162.324C306.674 166.151 310.543 170.464 311.473 171.448C311.568 171.549 311.534 171.715 311.405 171.771C302.828 175.515 294.005 169.053 291.595 167.045C291.488 166.955 296.1 165.706 298.305 160.403C299.274 158.071 298.949 154.443 298.985 153.002C298.991 152.711 298.828 152.442 298.565 152.322C297.985 152.055 297.14 151.167 296.897 150.294C296.548 149.034 296.688 145.022 300.013 146.63C300.013 146.63 300.472 146.911 300.89 147.679C301.31 148.449 302.009 150.826 302.918 150.686C303.828 150.545 304.946 146.841 304.946 146.841C304.946 146.841 305.297 145.022 308.093 145.722C310.616 146.353 313.412 147.837 313.934 148.121" fill="white"/>
<path d="M292.288 167.125C295.174 169.422 303.151 174.796 311.032 171.525C309.715 170.094 306.321 165.985 306.906 162.267C306.942 162.036 307.075 161.83 307.268 161.699C307.462 161.57 307.704 161.526 307.93 161.578C308.649 161.747 308.837 161.774 308.878 161.777C309.888 161.886 310.439 161.189 310.611 160.56C310.696 160.251 310.845 159.448 310.991 158.673C311.275 157.158 311.411 156.471 311.518 156.256C311.785 155.722 312.639 155.535 313.138 155.576C313.664 155.62 314.208 155.506 314.301 155.331C314.402 155.059 314.106 153.663 313.963 152.993C313.892 152.65 313.827 152.34 313.788 152.114C313.538 150.63 313.594 149.02 313.631 148.383C312.885 147.985 310.322 146.664 308.001 146.084C307.078 145.853 306.335 145.894 305.852 146.202C305.407 146.487 305.315 146.907 305.313 146.911C305.312 146.924 305.308 146.936 305.305 146.948C304.948 148.131 304.006 150.897 302.976 151.055C302.003 151.207 301.385 149.758 300.893 148.595C300.769 148.303 300.654 148.026 300.562 147.859C300.239 147.268 299.895 147.004 299.827 146.957C298.966 146.545 298.308 146.523 297.869 146.89C297.055 147.57 297.038 149.401 297.259 150.193C297.478 150.984 298.258 151.768 298.721 151.982C299.119 152.165 299.37 152.568 299.358 153.01C299.351 153.296 299.358 153.666 299.367 154.098C299.402 155.895 299.455 158.61 298.649 160.548C297.41 163.53 295.27 165.742 292.288 167.125V167.125ZM305.81 173.303C299.154 173.303 293.315 168.966 291.355 167.333C291.256 167.249 291.203 167.117 291.222 166.988C291.254 166.765 291.4 166.7 291.693 166.573C294.647 165.279 296.754 163.156 297.957 160.261C298.704 158.469 298.653 155.846 298.619 154.112C298.61 153.668 298.602 153.286 298.61 152.993C298.614 152.849 298.534 152.72 298.406 152.662C297.719 152.344 296.805 151.358 296.536 150.394C296.28 149.471 296.264 147.254 297.388 146.316C297.862 145.92 298.729 145.595 300.176 146.294C300.263 146.345 300.764 146.668 301.22 147.501C301.329 147.699 301.446 147.98 301.584 148.303C301.845 148.923 302.459 150.379 302.862 150.316C303.217 150.249 304.037 148.549 304.584 146.744C304.616 146.61 304.795 145.989 305.449 145.571C306.119 145.144 307.039 145.073 308.183 145.359C310.745 145.999 313.572 147.499 314.113 147.793C314.114 147.793 314.114 147.793 314.114 147.793C314.293 147.892 314.402 148.087 314.388 148.291C314.364 148.633 314.262 150.418 314.527 151.99C314.563 152.21 314.626 152.507 314.696 152.837C315.048 154.496 315.168 155.302 314.961 155.686C314.573 156.409 313.324 156.342 313.076 156.322C312.73 156.293 312.254 156.458 312.188 156.59C312.108 156.772 311.887 157.95 311.727 158.811C311.573 159.637 311.427 160.417 311.333 160.757C311.064 161.743 310.17 162.671 308.797 162.522C308.744 162.517 308.579 162.498 307.76 162.308C307.726 162.299 307.698 162.313 307.685 162.321C307.67 162.331 307.651 162.35 307.646 162.382C307.086 165.937 310.641 170.022 311.744 171.19C311.872 171.326 311.926 171.516 311.889 171.7C311.852 171.885 311.727 172.04 311.556 172.115C309.621 172.96 307.683 173.303 305.81 173.303" fill="#002BFF"/>
<path d="M307.608 162.255C307.574 162.255 307.539 162.25 307.503 162.24C306.35 161.9 304.501 161.106 303.19 160.245C303.018 160.131 302.969 159.899 303.083 159.725C303.197 159.553 303.43 159.506 303.601 159.618C304.849 160.439 306.616 161.197 307.715 161.52C307.913 161.578 308.027 161.787 307.967 161.986C307.92 162.148 307.772 162.255 307.608 162.255Z" fill="#002BFF"/>
<path d="M105.471 346.273C105.471 346.273 104.466 353.411 106.778 356.429L107.477 357.705L95.8105 356.332L96.4584 355.087C97.611 352.872 98.1897 350.462 98.1472 348.055L105.471 346.273Z" fill="white"/>
<path d="M96.3929 356.024L106.801 357.248L106.463 356.633C104.457 353.979 104.848 348.515 105.035 346.764L98.5234 348.347C98.5152 350.708 97.9182 353.092 96.7904 355.261L96.3929 356.024ZM107.477 358.079C107.463 358.079 107.448 358.079 107.434 358.078L95.7668 356.704C95.6444 356.69 95.5372 356.616 95.4795 356.509C95.4219 356.398 95.4216 356.269 95.4783 356.16L96.126 354.916C97.2446 352.765 97.814 350.395 97.7725 348.061C97.7694 347.884 97.8883 347.731 98.0586 347.691L105.383 345.909C105.503 345.878 105.631 345.912 105.723 345.996C105.815 346.077 105.859 346.201 105.842 346.326C105.832 346.395 104.886 353.343 107.075 356.201C107.087 356.216 107.097 356.231 107.107 356.248L107.806 357.525C107.873 357.649 107.866 357.799 107.788 357.914C107.717 358.018 107.601 358.079 107.477 358.079" fill="#002BFF"/>
<path d="M106.996 352.478L108.16 353.841C110.465 356.539 113.391 358.637 116.687 359.955L119.22 360.966C119.461 361.061 119.639 361.272 119.695 361.525L119.723 361.655C120.039 363.088 118.33 366.304 113.104 367.307C109.87 367.926 102.334 368.206 93.3243 364.539C92.7551 364.307 92.4017 363.734 92.4556 363.122C92.6514 360.89 93.3236 355.572 95.3995 352.976C95.6307 352.687 96.056 352.651 96.3199 352.911L98.8571 355.404C99.9958 356.522 101.827 356.502 102.941 355.359L105.785 352.439C106.122 352.092 106.683 352.111 106.996 352.478" fill="white"/>
<path d="M95.8923 353.11C95.8872 353.11 95.8826 353.11 95.8782 353.11C95.8056 353.116 95.7393 353.15 95.6922 353.209C93.6742 355.734 93.0173 361.005 92.8284 363.154C92.789 363.605 93.0448 364.021 93.4654 364.193C103.795 368.397 111.578 367.219 113.033 366.938C116.622 366.252 118.184 364.589 118.796 363.659C119.34 362.833 119.443 362.122 119.357 361.735L119.329 361.605C119.3 361.473 119.207 361.364 119.081 361.313L116.548 360.302C113.209 358.969 110.21 356.818 107.875 354.085L106.711 352.721C106.629 352.624 106.514 352.57 106.387 352.565C106.26 352.56 106.142 352.609 106.053 352.699L103.209 355.62C102.6 356.245 101.785 356.594 100.912 356.604C100.037 356.616 99.217 356.283 98.5948 355.671L96.0577 353.178C95.9996 353.121 95.9336 353.11 95.8923 353.11V353.11ZM108.535 368.05C104.905 368.05 99.5041 367.459 93.1831 364.886C92.4565 364.591 92.0141 363.868 92.0826 363.09C92.2773 360.871 92.9617 355.424 95.1073 352.742C95.2858 352.519 95.5503 352.381 95.8333 352.362C96.1098 352.347 96.384 352.449 96.5822 352.645L99.1194 355.137C99.5987 355.608 100.232 355.859 100.904 355.856C101.576 355.847 102.204 355.579 102.672 355.098L105.517 352.177C105.751 351.937 106.073 351.805 106.411 351.817C106.746 351.829 107.063 351.98 107.281 352.235L108.444 353.598C110.701 356.24 113.599 358.318 116.826 359.606L119.359 360.618C119.716 360.761 119.978 361.07 120.06 361.444L120.089 361.573C120.244 362.28 120.001 363.19 119.421 364.07C118.745 365.099 117.033 366.935 113.174 367.674C112.578 367.788 110.948 368.05 108.535 368.05" fill="#002BFF"/>
<path d="M106.032 363.375C106.029 363.375 106.025 363.375 106.022 363.375C102.147 363.343 98.3906 362.52 94.8566 360.932L92.8771 360.041C92.6886 359.956 92.6045 359.735 92.6893 359.547C92.7741 359.358 92.9956 359.273 93.1843 359.358L95.1636 360.249C98.6026 361.794 102.258 362.595 106.028 362.627C106.03 362.627 106.031 362.627 106.032 362.627C106.163 362.627 106.282 362.566 106.359 362.46C106.438 362.353 106.459 362.221 106.418 362.095L106.085 361.075C105.955 360.674 106.069 360.249 106.385 359.968C106.701 359.688 107.135 359.625 107.519 359.802L108.508 360.261C111.344 361.573 114.638 361.668 117.545 360.521L118.116 360.296C118.308 360.22 118.526 360.315 118.602 360.507C118.678 360.699 118.583 360.917 118.391 360.993L117.82 361.218C114.724 362.44 111.215 362.338 108.194 360.939L107.205 360.482C107.04 360.405 106.916 360.499 106.883 360.529C106.848 360.56 106.741 360.672 106.797 360.844L107.13 361.862C107.247 362.221 107.186 362.6 106.964 362.902C106.744 363.203 106.405 363.375 106.032 363.375" fill="#002BFF"/>
<path d="M54.03 332.348C54.03 332.348 49.1184 337.802 49.0973 341.669L48.8782 343.148L40.4224 333.985L41.7509 333.577C43.906 332.365 46.1252 331.726 47.4957 329.669L54.03 332.348" fill="white"/>
<path d="M41.1009 334.169L48.6224 342.319L48.7231 341.64C48.7598 338.251 52.266 333.841 53.4054 332.496L47.6305 330.128C46.555 331.59 45.0765 332.318 43.5158 333.088C42.9964 333.344 42.4594 333.608 41.9342 333.904C41.911 333.917 41.8863 333.928 41.8606 333.936L41.1009 334.169ZM48.8781 343.522C48.7751 343.522 48.6749 343.48 48.6029 343.402L40.1472 334.239C40.06 334.145 40.0272 334.013 40.0608 333.888C40.0943 333.764 40.1894 333.666 40.3124 333.628L41.6026 333.231C42.1338 332.935 42.6678 332.671 43.1848 332.416C44.7399 331.65 46.2087 330.925 47.1839 329.462C47.283 329.312 47.4725 329.254 47.6378 329.322L54.1721 332.001C54.2848 332.047 54.3679 332.146 54.3951 332.265C54.4221 332.384 54.3898 332.508 54.3084 332.598C54.2601 332.653 49.4916 337.992 49.4716 341.671C49.4714 341.69 49.4702 341.707 49.4677 341.725L49.2484 343.203C49.2273 343.345 49.1261 343.463 48.9882 343.505C48.952 343.517 48.915 343.522 48.8781 343.522" fill="#002BFF"/>
<path d="M50.8432 339.893L50.5426 341.69C49.9476 345.25 50.2269 348.901 51.3567 352.328L52.2249 354.964C52.3075 355.213 52.2608 355.489 52.0998 355.7L52.0179 355.805C51.1082 356.988 47.4848 357.762 43.2868 354.345C40.6896 352.232 35.5438 346.545 32.5092 337.13C32.3174 336.535 32.533 335.884 33.0448 335.526C34.9114 334.22 39.4933 331.265 42.8731 331.185C43.2493 331.175 43.5546 331.485 43.5252 331.859L43.2425 335.466C43.1155 337.084 44.3284 338.497 45.9473 338.618L50.0822 338.924C50.5715 338.96 50.9239 339.408 50.8432 339.893Z" fill="white"/>
<path d="M50.8428 339.893H50.8464H50.8428ZM42.8888 331.559C42.8864 331.559 42.8841 331.559 42.8817 331.559C39.5949 331.638 35.0576 334.574 33.2591 335.833C32.8811 336.097 32.7225 336.573 32.8651 337.015C36.345 347.811 42.3535 353.103 43.5227 354.055C46.4068 356.401 48.7256 356.532 49.8502 356.4C50.8525 356.284 51.4737 355.898 51.7207 355.577L51.8026 355.47C51.8881 355.359 51.913 355.213 51.8691 355.081L51.0009 352.446C49.8565 348.974 49.5702 345.234 50.173 341.628L50.4734 339.83C50.495 339.701 50.4623 339.573 50.3814 339.471C50.3008 339.368 50.1846 339.306 50.0543 339.296L45.9194 338.99C45.0363 338.926 44.2325 338.519 43.6557 337.848C43.079 337.175 42.7996 336.319 42.8688 335.437L43.1515 331.83C43.1589 331.735 43.1132 331.672 43.0852 331.641C43.0343 331.588 42.9648 331.559 42.8888 331.559V331.559ZM49.2354 357.183C47.8569 357.183 45.6472 356.748 43.05 354.635C41.8523 353.661 35.697 348.241 32.1524 337.244C31.9083 336.488 32.1807 335.673 32.8299 335.22C34.6839 333.922 39.373 330.893 42.8638 330.81C43.1564 330.805 43.4316 330.919 43.6288 331.128C43.8218 331.33 43.92 331.609 43.8981 331.889L43.6152 335.495C43.5617 336.178 43.7777 336.84 44.2238 337.36C44.6699 337.878 45.2916 338.193 45.9747 338.244L50.1094 338.55C50.4474 338.575 50.7612 338.742 50.9705 339.009C51.1799 339.274 51.2678 339.619 51.212 339.954L50.9115 341.751C50.3287 345.238 50.6055 348.855 51.712 352.211L52.5802 354.846C52.7017 355.215 52.6331 355.619 52.3963 355.927L52.3143 356.034C51.867 356.616 51.0006 357.02 49.9372 357.144C49.7363 357.168 49.5013 357.183 49.2354 357.183" fill="#002BFF"/>
<path d="M51.843 354.375C51.7828 354.375 51.7216 354.362 51.665 354.329L51.1166 354.034C48.1416 352.42 45.9273 349.622 45.0418 346.356L44.7518 345.287C44.7028 345.105 44.5459 345.069 44.499 345.063C44.4517 345.056 44.2914 345.046 44.1923 345.204L43.6157 346.13C43.4144 346.453 43.081 346.652 42.7014 346.678C42.3228 346.705 41.965 346.548 41.7227 346.256C39.2152 343.216 37.3998 339.754 36.3271 335.963L35.7261 333.839C35.6699 333.64 35.7856 333.433 35.9845 333.377C36.1843 333.321 36.3905 333.436 36.4468 333.635L37.0477 335.759C38.0919 339.449 39.8592 342.82 42.3004 345.778C42.3876 345.884 42.5146 345.94 42.6518 345.931C42.7881 345.921 42.9078 345.85 42.98 345.734L43.5568 344.808C43.7826 344.446 44.186 344.259 44.6079 344.321C45.0307 344.384 45.3626 344.678 45.4746 345.09L45.7646 346.161C46.5968 349.229 48.6776 351.859 51.4734 353.374L52.0218 353.671C52.2035 353.77 52.2712 353.998 52.1726 354.18C52.1048 354.304 51.9759 354.375 51.843 354.375" fill="#002BFF"/>
<path d="M117.061 248.594C117.061 248.594 106.223 251.421 96.3099 249.315L96.3091 249.308L95.5019 249.086C93.406 248.511 91.4435 247.646 89.5376 246.633C88.2652 245.956 87.2323 244.904 86.571 243.624C86.571 243.624 80.3966 253.038 80.3177 269.18C80.2284 287.438 55.6306 304.57 46.4521 328.753C47.0553 332.151 49.275 335.041 52.401 336.501L52.4871 336.542C52.4871 336.542 77.188 326.601 86.8445 311.176C90.874 304.74 95.8201 293.355 98.2449 287.558C99.2708 294.263 98.4995 300.096 97.5633 303.727C95.9983 309.799 91.9771 328.039 95.9905 347.925C95.9905 347.925 100.633 350.134 106.263 348.291C106.263 348.291 121.738 316.163 123.125 296.126C124.513 276.092 117.061 248.594 117.061 248.594Z" fill="#002BFF"/>
<path d="M96.3193 347.66C97.1798 348.014 101.234 349.483 105.995 347.985C107.121 345.613 121.433 315.153 122.752 296.101C124.035 277.576 117.647 252.317 116.793 249.043C114.814 249.507 105.104 251.566 96.2324 249.682C96.2004 249.676 96.1698 249.664 96.1414 249.65L95.403 249.448C93.4742 248.917 91.5547 248.129 89.3622 246.964C88.214 246.354 87.2569 245.463 86.5645 244.365C85.3048 246.571 80.7595 255.478 80.6924 269.181C80.6429 279.334 73.0004 289.284 64.9091 299.82C58.053 308.747 50.9642 317.978 46.8395 328.788C47.4424 331.996 49.5489 334.732 52.4971 336.134C54.5743 335.269 77.4364 325.499 86.5273 310.978C90.5029 304.628 95.3589 293.488 97.8999 287.414C97.9645 287.259 98.1233 287.166 98.2909 287.186C98.4574 287.208 98.5901 287.336 98.6151 287.502C99.7553 294.952 98.6729 300.924 97.9263 303.821C96.1692 310.638 92.5062 328.525 96.3193 347.66V347.66ZM101.62 349.406C98.2843 349.406 95.9665 348.328 95.83 348.264C95.7236 348.213 95.6471 348.116 95.6236 348C91.7165 328.639 95.4254 310.524 97.2012 303.634C97.8879 300.97 98.8638 295.65 98.0597 288.966C95.4048 295.246 90.9031 305.4 87.1621 311.375C77.5523 326.725 52.8753 336.79 52.6273 336.891C52.5309 336.928 52.4231 336.926 52.3289 336.882L52.2429 336.841C49.0102 335.332 46.7077 332.331 46.084 328.819C46.0721 328.751 46.0784 328.683 46.1025 328.62C50.2605 317.665 57.4055 308.361 64.3153 299.363C72.3274 288.932 79.8952 279.077 79.9437 269.178C80.0222 253.111 86.1958 243.513 86.258 243.418C86.3311 243.307 86.4549 243.243 86.5907 243.25C86.7236 243.256 86.8426 243.335 86.9038 243.452C87.5364 244.676 88.5079 245.662 89.7136 246.303C91.8561 247.44 93.7271 248.21 95.6015 248.725L96.4087 248.946C96.4259 248.951 96.4425 248.958 96.4587 248.965C106.154 251 116.859 248.259 116.967 248.231C117.166 248.18 117.369 248.297 117.422 248.496C117.497 248.771 124.875 276.286 123.499 296.154C122.123 316.03 106.755 348.131 106.6 348.454C106.556 348.546 106.476 348.616 106.379 348.648C104.667 349.207 103.05 349.406 101.62 349.406Z" fill="white"/>
<path d="M147.147 198.03C148.062 198.429 149.122 198.006 149.515 197.084L155.108 183.954L151.795 182.507L146.2 195.638C145.807 196.559 146.232 197.63 147.147 198.03Z" fill="#002BFF"/>
<path d="M151.99 183L146.545 195.784C146.234 196.517 146.571 197.37 147.297 197.686C147.647 197.839 148.034 197.846 148.386 197.707C148.742 197.566 149.02 197.292 149.17 196.938L154.619 184.147L151.99 183ZM147.864 198.555C147.57 198.555 147.276 198.494 146.997 198.373C145.896 197.892 145.384 196.6 145.857 195.492L151.45 182.359C151.489 182.267 151.564 182.196 151.655 182.158C151.749 182.121 151.853 182.123 151.944 182.164L155.258 183.61C155.446 183.692 155.533 183.911 155.453 184.1L149.859 197.232C149.629 197.771 149.204 198.186 148.663 198.402C148.405 198.504 148.135 198.555 147.864 198.555" fill="white"/>
<path d="M135.936 158.902C132.421 143.557 141.895 128.294 157.097 124.812C172.299 121.331 187.471 130.949 190.985 146.295C194.501 161.641 185.027 176.904 169.825 180.385C154.622 183.867 139.45 174.248 135.936 158.902V158.902ZM131.757 159.86C135.805 177.534 153.281 188.613 170.791 184.603C188.301 180.593 199.213 163.013 195.164 145.338C191.116 127.663 173.64 116.584 156.132 120.595C138.621 124.605 127.709 142.185 131.757 159.86" fill="#002BFF"/>
<path d="M136.3 158.819C139.763 173.939 154.766 183.449 169.742 180.02C184.717 176.589 194.084 161.498 190.621 146.378C187.158 131.259 172.157 121.747 157.18 125.178C142.204 128.607 132.838 143.699 136.3 158.819V158.819ZM163.574 181.468C150.505 181.468 138.635 172.368 135.571 158.986C132.015 143.463 141.635 127.969 157.014 124.447C172.392 120.926 187.796 130.689 191.351 146.21C194.905 161.733 185.287 177.228 169.908 180.749C167.787 181.235 165.665 181.468 163.574 181.468ZM163.331 120.153C160.982 120.153 158.598 120.413 156.215 120.96C138.934 124.918 128.126 142.331 132.122 159.776C135.566 174.816 148.907 185.045 163.591 185.045C165.941 185.045 168.324 184.783 170.707 184.237C179.076 182.322 186.193 177.228 190.744 169.898C195.295 162.566 196.734 153.874 194.8 145.421C191.356 130.381 178.016 120.153 163.331 120.153V120.153ZM163.591 185.795C148.563 185.795 134.916 175.329 131.392 159.943C127.304 142.094 138.364 124.28 156.047 120.229C173.732 116.18 191.442 127.406 195.529 145.255C197.51 153.899 196.036 162.792 191.379 170.292C186.723 177.794 179.44 183.005 170.874 184.968C168.434 185.526 165.995 185.795 163.591 185.795" fill="white"/>
<path d="M147.613 203.876C148.024 204.02 149.34 202.303 149.648 201.999C150.858 200.809 153.67 199.407 154.239 196.92C154.977 193.691 153.571 190.23 152.75 190.337C151.927 190.444 150.885 196.568 147.666 196.79C147.666 196.79 146.941 196.705 147.02 193.683C147.032 193.258 146.576 192.964 146.202 193.159C145.685 193.428 145.027 194.004 144.486 195.233C143.796 196.804 143.929 198.613 144.038 199.697C144.11 200.416 143.85 202.569 144.398 202.759L147.613 203.876" fill="white"/>
<path d="M144.552 202.417L147.672 203.5C147.968 203.368 148.723 202.489 149.014 202.15C149.177 201.96 149.309 201.807 149.386 201.732C149.723 201.401 150.173 201.057 150.651 200.694C151.914 199.73 153.486 198.531 153.874 196.836C154.554 193.863 153.318 190.992 152.82 190.726C152.653 190.915 152.364 191.595 152.13 192.149C151.309 194.081 150.069 196.999 147.691 197.164C147.667 197.166 147.645 197.166 147.621 197.163C147.224 197.115 146.569 196.6 146.646 193.673C146.649 193.574 146.581 193.521 146.552 193.503C146.518 193.482 146.45 193.452 146.375 193.492C145.952 193.712 145.342 194.218 144.829 195.384C144.138 196.955 144.329 198.851 144.411 199.66C144.433 199.886 144.427 200.209 144.419 200.583C144.409 201.108 144.388 202.186 144.552 202.417ZM147.734 203.522H147.735C147.735 203.522 147.735 203.522 147.734 203.522ZM147.666 204.26C147.606 204.26 147.547 204.25 147.489 204.23L144.276 203.113C143.671 202.904 143.644 201.97 143.671 200.569C143.678 200.233 143.684 199.917 143.665 199.735C143.53 198.385 143.461 196.636 144.143 195.084C144.744 193.717 145.5 193.103 146.029 192.828C146.321 192.675 146.664 192.69 146.948 192.867C147.237 193.047 147.404 193.356 147.394 193.691C147.343 195.692 147.652 196.268 147.759 196.406C149.607 196.173 150.707 193.582 151.44 191.857C151.939 190.679 152.216 190.029 152.701 189.967C152.975 189.931 153.243 190.058 153.503 190.344C154.36 191.286 155.244 194.2 154.603 197.003C154.156 198.963 152.465 200.253 151.105 201.289C150.647 201.637 150.216 201.967 149.91 202.266C149.843 202.332 149.728 202.468 149.581 202.638C148.648 203.725 148.108 204.26 147.666 204.26" fill="#002BFF"/>
<path d="M149.701 203.223L143.227 200.845C140.684 205.389 137.954 209.292 134.912 211.737C133.123 213.175 131.185 214.345 129.151 215.256C128.236 215.665 127.166 215.24 126.799 214.309C125.788 211.738 124.112 207.691 121.138 202.919C118.904 199.335 115.194 196.394 112.115 194.866C107.331 192.493 101.768 191.347 96.4677 192.404C86.2398 194.444 79.245 200.406 79.245 200.406C73.6799 204.848 63.4012 220.34 67.066 227.8C71.5605 236.948 83.6762 231.596 83.6762 231.596C83.6762 231.596 83.9248 235.821 81.3969 241.66C78.3262 248.754 81.3445 250.59 81.3445 250.59C93.8108 263.757 121.443 251.326 119.107 245.679C116.607 239.636 116.565 231.974 116.565 231.974C120.021 235.392 124.739 234.855 124.739 234.855C124.739 234.855 127.467 234.649 129.349 233.876C145.716 228.444 149.701 203.223 149.701 203.223" fill="white"/>
<path d="M83.6759 231.22C83.7436 231.22 83.8113 231.239 83.8709 231.276C83.9757 231.339 84.0423 231.452 84.0494 231.574C84.06 231.749 84.2743 235.955 81.74 241.808C78.8609 248.46 81.5152 250.255 81.5423 250.272C81.5681 250.289 81.5953 250.311 81.616 250.334C90.8122 260.046 107.9 255.473 115.005 250.867C117.89 248.997 119.294 247.11 118.761 245.823C116.261 239.78 116.19 232.053 116.19 231.975C116.189 231.824 116.28 231.686 116.419 231.628C116.558 231.569 116.72 231.601 116.827 231.707C120.119 234.962 124.651 234.488 124.696 234.483C124.737 234.479 127.402 234.272 129.207 233.529C144.23 228.543 148.755 206.327 149.277 203.466L143.397 201.305C140.55 206.346 137.849 209.856 135.146 212.029C133.368 213.457 131.403 214.657 129.304 215.597C128.762 215.839 128.163 215.851 127.617 215.626C127.078 215.407 126.663 214.987 126.45 214.445C125.312 211.55 123.643 207.646 120.82 203.118C118.482 199.366 114.704 196.569 111.948 195.201C106.846 192.669 101.374 191.808 96.5407 192.771C86.5241 194.771 79.5568 200.632 79.4875 200.692C74.0558 205.028 63.8759 220.458 67.4018 227.633C71.6884 236.36 83.4068 231.305 83.5245 231.253C83.5729 231.232 83.6244 231.22 83.6759 231.22V231.22ZM96.5742 256.804C90.9009 256.804 85.2411 255.23 81.1015 250.879C80.6885 250.59 78.0641 248.416 81.053 241.511C83.0049 237.002 83.2766 233.441 83.3043 232.145C80.8913 233.046 70.7867 236.222 66.7298 227.965C62.8994 220.169 73.6322 204.408 79.0111 200.114C79.0725 200.061 86.1889 194.074 96.394 192.037C101.389 191.041 107.031 191.927 112.281 194.531C115.129 195.944 119.034 198.837 121.455 202.722C124.31 207.301 125.997 211.247 127.147 214.171C127.285 214.521 127.552 214.792 127.9 214.934C128.255 215.079 128.645 215.072 128.998 214.914C131.039 214.001 132.949 212.833 134.677 211.444C137.354 209.294 140.044 205.766 142.9 200.661C142.99 200.5 143.183 200.43 143.355 200.493L149.83 202.871C149.998 202.932 150.098 203.104 150.071 203.281C150.061 203.345 149.032 209.714 146.005 216.662C141.982 225.901 136.263 231.975 129.467 234.231C127.576 235.01 124.88 235.221 124.767 235.229C124.592 235.248 120.409 235.685 116.966 232.841C117.062 235.008 117.498 240.81 119.453 245.536C120.145 247.209 118.673 249.382 115.413 251.495C111.303 254.159 103.927 256.804 96.5742 256.804" fill="#002BFF"/>
<path d="M83.8311 227.251C83.6761 227.251 83.5309 227.154 83.4773 226.999C80.0426 217.061 81.6394 209.027 81.6559 208.947C81.6977 208.745 81.8968 208.616 82.0981 208.656C82.3006 208.699 82.4309 208.896 82.3893 209.098C82.3731 209.177 80.8214 217.022 84.1851 226.755C84.2525 226.95 84.1488 227.163 83.9535 227.231C83.9129 227.244 83.8717 227.251 83.8311 227.251" fill="#002BFF"/>
<path d="M116.361 232.402C116.267 232.402 116.172 232.366 116.099 232.295C110.725 227.047 106.99 214.877 106.834 214.362C106.774 214.164 106.886 213.955 107.084 213.896C107.282 213.834 107.49 213.947 107.551 214.144C107.588 214.27 111.386 226.646 116.623 231.759C116.77 231.904 116.773 232.14 116.629 232.288C116.555 232.363 116.458 232.402 116.361 232.402" fill="#002BFF"/>
<path d="M102.308 169.558C104.375 169.568 106.28 170.685 107.318 172.473C107.798 173.301 108.235 174.073 108.324 174.291C108.525 174.787 108.968 176.455 110.593 178.063C110.753 178.223 110.775 178.473 110.636 178.651L109.596 179.982C109.524 180.074 109.494 180.191 109.514 180.307C109.638 181.016 110.258 183.593 110.075 184.057C109.686 185.043 107.33 185.31 106.632 185.368C106.501 185.38 106.384 185.453 106.32 185.569C106.094 185.977 105.497 187.146 105.006 190.067C104.259 194.516 108.5 195.208 107.636 195.643C101.611 198.684 90.5155 197.994 91.1591 196.727C91.6882 195.687 97.7764 192.994 98.3428 185.676C98.6961 181.113 92.3056 180.739 96.9104 172.052C97.9806 170.032 100.297 169.549 102.308 169.558" fill="white"/>
<path d="M107.415 195.643H107.419H107.415ZM91.5511 196.816C92.6049 197.599 101.742 198.016 107.175 195.452C107.13 195.42 107.083 195.386 107.039 195.355C106.08 194.686 104.086 193.29 104.637 190.004C104.984 187.938 105.44 186.385 105.993 185.387C106.117 185.162 106.344 185.016 106.601 184.996C108.272 184.856 109.528 184.424 109.727 183.921C109.814 183.603 109.45 181.856 109.294 181.109C109.229 180.797 109.174 180.535 109.146 180.37C109.108 180.152 109.164 179.926 109.301 179.751L110.342 178.42C110.364 178.391 110.353 178.354 110.329 178.33C108.854 176.87 108.32 175.382 108.064 174.666C108.03 174.571 108.001 174.491 107.977 174.432C107.938 174.335 107.759 173.978 106.994 172.66C106.022 170.988 104.226 169.942 102.306 169.932C99.7706 169.918 98.055 170.692 97.2413 172.227C94.426 177.538 95.8373 179.568 97.2022 181.529C98.015 182.697 98.8557 183.904 98.7163 185.705C98.2687 191.491 94.5266 194.422 92.5162 195.996C92.1028 196.319 91.7087 196.629 91.5511 196.816V196.816ZM96.3142 198.177C93.6377 198.177 91.5129 197.841 90.96 197.287C90.7506 197.078 90.7004 196.804 90.8255 196.559C90.9859 196.243 91.411 195.91 92.0547 195.406C93.9743 193.904 97.5475 191.105 97.9698 185.647C98.0886 184.113 97.393 183.114 96.5877 181.956C95.1639 179.911 93.5505 177.59 96.58 171.877C97.5205 170.102 99.5062 169.165 102.31 169.184C104.494 169.194 106.537 170.382 107.642 172.285C108.547 173.844 108.64 174.075 108.671 174.15C108.698 174.218 108.73 174.306 108.769 174.413C109.007 175.076 109.502 176.457 110.856 177.798C111.153 178.092 111.185 178.558 110.932 178.882L109.891 180.214C109.911 180.401 109.964 180.654 110.027 180.956C110.419 182.837 110.579 183.801 110.423 184.195C109.985 185.305 107.879 185.64 106.663 185.742C106.011 186.898 105.605 188.765 105.376 190.128C104.902 192.948 106.572 194.114 107.468 194.742C107.879 195.029 108.15 195.219 108.127 195.546C108.118 195.673 108.054 195.852 107.805 195.978C104.702 197.543 99.9885 198.177 96.3142 198.177" fill="#002BFF"/>
<path d="M105.821 176.593L108.232 173.575C109.469 172.028 109.036 169.747 107.325 168.749C106.85 168.473 106.293 168.184 105.67 167.916C99.4793 165.25 92.3864 169.65 92.3794 176.389C92.3767 179.148 94.2213 182.345 98.1414 185.188C98.1414 185.188 100.896 183.015 100.861 180.666C100.861 180.666 98.8618 178.294 101.678 177.094C102.218 176.865 102.833 176.883 103.359 177.142C104.207 177.56 105.231 177.33 105.821 176.593Z" fill="#002BFF"/>
<path d="M102.143 182.121C101.309 182.121 100.247 181.766 99.46 180.278C99.3633 180.095 99.4332 179.869 99.6159 179.772C99.7992 179.675 100.025 179.746 100.122 179.928C101.246 182.053 102.938 181.259 103.127 181.162C103.311 181.069 103.537 181.138 103.632 181.322C103.727 181.504 103.657 181.73 103.475 181.825C103.463 181.832 102.896 182.121 102.143 182.121" fill="#002BFF"/>
<path d="M95.6063 169.992C95.6063 169.992 93.5154 162.76 85.8891 164.12C81.1274 164.97 76.9686 168.169 74.6842 173.393C70.2635 183.498 74.2667 193.113 67.0626 201.887C65.4363 203.867 66.762 206.88 69.3232 206.968C74.1638 207.135 80.6956 205.965 85.2313 199.733C88.9479 194.625 86.6122 171.149 94.7894 171.501L95.6063 169.992" fill="#002BFF"/>
<path d="M48.6608 287.2C46.758 287.2 45.2098 288.748 45.2098 290.651C45.2098 292.555 46.758 294.102 48.6608 294.102C50.5638 294.102 52.112 292.555 52.112 290.651C52.112 288.748 50.5638 287.2 48.6608 287.2ZM48.6608 294.851C46.3449 294.851 44.4609 292.966 44.4609 290.651C44.4609 288.335 46.3449 286.452 48.6608 286.452C50.9767 286.452 52.8606 288.335 52.8606 290.651C52.8606 292.966 50.9767 294.851 48.6608 294.851Z" fill="#002BFF"/>
<path d="M105.941 75.4884C104.038 75.4884 102.49 77.0371 102.49 78.9394C102.49 80.8434 104.038 82.3904 105.941 82.3904C107.844 82.3904 109.392 80.8434 109.392 78.9394C109.392 77.0371 107.844 75.4884 105.941 75.4884ZM105.941 83.1401C103.625 83.1401 101.741 81.2565 101.741 78.9394C101.741 76.624 103.625 74.7404 105.941 74.7404C108.257 74.7404 110.141 76.624 110.141 78.9394C110.141 81.2565 108.257 83.1401 105.941 83.1401Z" fill="#002BFF"/>
<path d="M53.2498 298.153C52.106 298.153 51.1756 299.083 51.1756 300.227C51.1756 301.369 52.106 302.301 53.2498 302.301C54.3934 302.301 55.324 301.369 55.324 300.227C55.324 299.083 54.3934 298.153 53.2498 298.153ZM53.2498 303.049C51.6931 303.049 50.4268 301.782 50.4268 300.227C50.4268 298.67 51.6931 297.403 53.2498 297.403C54.8065 297.403 56.0726 298.67 56.0726 300.227C56.0726 301.782 54.8065 303.049 53.2498 303.049Z" fill="#002BFF"/>
<path d="M331.777 147.057C330.633 147.057 329.703 147.988 329.703 149.131C329.703 150.275 330.633 151.206 331.777 151.206C332.921 151.206 333.851 150.275 333.851 149.131C333.851 147.988 332.921 147.057 331.777 147.057ZM331.777 151.954C330.22 151.954 328.954 150.688 328.954 149.131C328.954 147.575 330.22 146.309 331.777 146.309C333.333 146.309 334.599 147.575 334.599 149.131C334.599 150.688 333.333 151.954 331.777 151.954" fill="#002BFF"/>
<path d="M328.143 136.979C326.669 136.979 325.472 138.178 325.472 139.65C325.472 141.122 326.669 142.321 328.143 142.321C329.615 142.321 330.813 141.122 330.813 139.65C330.813 138.178 329.615 136.979 328.143 136.979ZM328.143 143.07C326.257 143.07 324.722 141.535 324.722 139.65C324.722 137.765 326.257 136.229 328.143 136.229C330.028 136.229 331.561 137.765 331.561 139.65C331.561 141.535 330.028 143.07 328.143 143.07Z" fill="#002BFF"/>
<path d="M42.3525 274.511C42.1458 274.511 41.978 274.344 41.978 274.137V271.23C41.978 271.022 42.1458 270.856 42.3525 270.856C42.5592 270.856 42.7269 271.022 42.7269 271.23V274.137C42.7269 274.344 42.5592 274.511 42.3525 274.511Z" fill="#002BFF"/>
<path d="M42.3525 281.284C42.1458 281.284 41.978 281.115 41.978 280.908V278.001C41.978 277.795 42.1458 277.627 42.3525 277.627C42.5592 277.627 42.7269 277.795 42.7269 278.001V280.908C42.7269 281.115 42.5592 281.284 42.3525 281.284Z" fill="#002BFF"/>
<path d="M40.4202 276.444H37.5132C37.3063 276.444 37.1387 276.275 37.1387 276.07C37.1387 275.862 37.3063 275.696 37.5132 275.696H40.4202C40.6271 275.696 40.7945 275.862 40.7945 276.07C40.7945 276.275 40.6271 276.444 40.4202 276.444Z" fill="#002BFF"/>
<path d="M47.192 276.444H44.285C44.0783 276.444 43.9106 276.275 43.9106 276.07C43.9106 275.862 44.0783 275.696 44.285 275.696H47.192C47.3987 275.696 47.5663 275.862 47.5663 276.07C47.5663 276.275 47.3987 276.444 47.192 276.444Z" fill="#002BFF"/>
<path d="M91.6395 83.3697C91.4328 83.3697 91.2651 83.2031 91.2651 82.9957V80.0887C91.2651 79.883 91.4328 79.7147 91.6395 79.7147C91.8464 79.7147 92.0138 79.883 92.0138 80.0887V82.9957C92.0138 83.2031 91.8464 83.3697 91.6395 83.3697Z" fill="#002BFF"/>
<path d="M91.6395 90.1425C91.4328 90.1425 91.2651 89.9742 91.2651 89.7685V86.8615C91.2651 86.6541 91.4328 86.4858 91.6395 86.4858C91.8464 86.4858 92.0138 86.6541 92.0138 86.8615V89.7685C92.0138 89.9742 91.8464 90.1425 91.6395 90.1425Z" fill="#002BFF"/>
<path d="M89.7073 85.3026H86.8001C86.5934 85.3026 86.4258 85.136 86.4258 84.9286C86.4258 84.7212 86.5934 84.5546 86.8001 84.5546H89.7073C89.914 84.5546 90.0816 84.7212 90.0816 84.9286C90.0816 85.136 89.914 85.3026 89.7073 85.3026Z" fill="#002BFF"/>
<path d="M96.4794 85.3026H93.5723C93.3656 85.3026 93.1978 85.136 93.1978 84.9286C93.1978 84.7212 93.3656 84.5546 93.5723 84.5546H96.4794C96.6861 84.5546 96.8539 84.7212 96.8539 84.9286C96.8539 85.136 96.6861 85.3026 96.4794 85.3026Z" fill="#002BFF"/>
<path d="M51.5504 242.69C51.3952 242.69 51.2501 242.594 51.1966 242.439C40.264 210.865 41.5486 186.509 44.5513 171.637C47.8097 155.501 53.7507 146.71 53.8104 146.623C53.9273 146.452 54.1607 146.409 54.3307 146.526C54.5014 146.642 54.5448 146.875 54.4278 147.047C54.369 147.132 48.5 155.827 45.2762 171.831C42.3005 186.602 41.0348 210.802 51.9041 242.194C51.9718 242.39 51.8684 242.602 51.6729 242.67C51.6323 242.684 51.591 242.69 51.5504 242.69" fill="#002BFF"/>
<path d="M40.6024 230.712C40.4339 230.712 40.2807 230.597 40.2389 230.427C32.3385 198.035 35.7254 174.184 39.9579 159.88C44.5515 144.357 51.1203 136.386 51.1861 136.306C51.3187 136.148 51.5548 136.128 51.7132 136.26C51.872 136.393 51.8931 136.629 51.7605 136.787C51.6955 136.865 45.2089 144.747 40.6625 160.138C36.4656 174.347 33.1117 198.045 40.9665 230.248C41.0156 230.449 40.8924 230.651 40.6914 230.7C40.6617 230.709 40.6318 230.712 40.6024 230.712" fill="#002BFF"/>
<path d="M281.699 134.203H315.578C316.68 134.203 317.681 133.309 317.813 132.207L323.444 85.5848C323.576 84.4849 322.975 83.0722 321.205 83.0722L287.812 83.5907L281.699 134.203" fill="#002BFF"/>
<path d="M282.122 133.827H315.578C316.495 133.827 317.331 133.081 317.441 132.163L323.072 85.5407C323.142 84.9695 322.978 84.3983 322.635 84.0107C322.303 83.6367 321.822 83.4462 321.207 83.4462L288.144 83.9597L282.122 133.827ZM315.578 134.577H281.699C281.592 134.577 281.49 134.531 281.418 134.451C281.347 134.37 281.315 134.264 281.327 134.157L287.44 83.5466C287.462 83.3613 287.618 83.2201 287.805 83.2167L321.2 82.6966C322.252 82.6966 322.866 83.1419 323.196 83.5142C323.679 84.0582 323.91 84.8504 323.816 85.6307L318.186 132.253C318.031 133.535 316.862 134.577 315.578 134.577" fill="#002BFF"/>
<path d="M249.759 134.203H281.668L287.781 83.5907H255.872C254.77 83.5907 253.769 84.4849 253.637 85.5848L248.006 132.207C247.872 133.309 248.657 134.203 249.759 134.203" fill="#002BFF"/>
<path d="M255.87 83.9664C254.954 83.9664 254.118 84.7127 254.007 85.6307L248.377 132.253C248.326 132.68 248.441 133.079 248.703 133.375C248.963 133.668 249.337 133.827 249.759 133.827H281.336L287.358 83.9664H255.87ZM281.668 134.577H249.759C249.12 134.577 248.547 134.327 248.144 133.872C247.738 133.413 247.556 132.806 247.634 132.163L253.264 85.5406C253.419 84.2588 254.589 83.2167 255.87 83.2167H287.779C287.887 83.2167 287.99 83.2626 288.06 83.3425C288.131 83.4224 288.165 83.5295 288.152 83.6366L282.04 134.247C282.018 134.436 281.857 134.577 281.668 134.577Z" fill="#002BFF"/>
<path d="M281.214 133.683H315.094C316.195 133.683 317.197 132.79 317.329 131.689L322.96 85.0663C323.092 83.9647 322.307 83.0722 321.205 83.0722H287.328L281.214 133.683" fill="white"/>
<path d="M281.638 133.309H315.094C316.01 133.309 316.846 132.561 316.957 131.643L322.587 85.0204C322.64 84.5937 322.523 84.1942 322.261 83.8984C322.002 83.606 321.628 83.4462 321.207 83.4462H287.659L281.638 133.309ZM315.094 134.057H281.214C281.107 134.057 281.005 134.011 280.934 133.931C280.864 133.851 280.83 133.744 280.844 133.637L286.955 83.0263C286.977 82.8376 287.137 82.6965 287.328 82.6965H321.207C321.844 82.6965 322.419 82.9481 322.822 83.402C323.228 83.861 323.408 84.4679 323.332 85.1105L317.701 131.733C317.547 133.015 316.377 134.057 315.094 134.057Z" fill="#002BFF"/>
<path d="M248.534 133.683H281.065L287.297 83.0722H254.764C253.642 83.0722 252.622 83.9647 252.486 85.0663L246.745 131.689C246.611 132.79 247.41 133.683 248.534 133.683Z" fill="white"/>
<path d="M254.764 83.4462C253.826 83.4462 252.97 84.1925 252.857 85.1122L247.117 131.735C247.065 132.155 247.18 132.547 247.44 132.841C247.707 133.142 248.095 133.309 248.533 133.309H280.733L286.872 83.4462H254.764ZM281.065 134.057H248.533C247.877 134.057 247.289 133.802 246.879 133.338C246.475 132.881 246.296 132.279 246.374 131.643L252.114 85.0204C252.272 83.7386 253.46 82.6965 254.764 82.6965H287.297C287.404 82.6965 287.506 82.7424 287.576 82.824C287.647 82.9039 287.681 83.011 287.668 83.1164L281.437 133.729C281.413 133.916 281.253 134.057 281.065 134.057" fill="#002BFF"/>
<path d="M282.11 131.872H314.884L314.983 126.81L311.58 125.297L286.392 126.208L282.11 131.872ZM315.252 132.622H281.357C281.214 132.622 281.085 132.542 281.022 132.415C280.959 132.287 280.973 132.134 281.058 132.022L285.903 125.615C285.971 125.525 286.074 125.47 286.187 125.467L311.639 124.545C311.695 124.544 311.753 124.554 311.804 124.578L315.515 126.227C315.653 126.288 315.74 126.426 315.738 126.577L315.626 132.255C315.622 132.459 315.456 132.622 315.252 132.622" fill="#002BFF"/>
<path d="M320.688 77.7121L321.344 81.7938L315.252 132.248L314.577 128.323L320.688 77.7121" fill="white"/>
<path d="M320.688 77.7121L321.344 81.7938L315.252 132.248L314.577 128.323L320.688 77.7121" fill="#002BFF"/>
<path d="M281.372 132.248C283.815 129.756 287.11 128.323 290.394 128.323H314.577L320.688 77.7121H296.505C293.221 77.7121 289.926 79.1452 287.485 81.6357L281.372 132.248" fill="white"/>
<path d="M287.841 81.8091L281.869 131.264C284.283 129.146 287.338 127.949 290.394 127.949H314.244L320.267 78.0861H296.506C293.357 78.0861 290.206 79.441 287.841 81.8091ZM281.372 132.622C281.318 132.622 281.262 132.61 281.211 132.585C281.066 132.515 280.981 132.362 281 132.202L287.113 81.5915C287.124 81.5099 287.159 81.4334 287.217 81.3739C289.733 78.8086 293.118 77.3364 296.506 77.3364H320.688C320.795 77.3364 320.897 77.3823 320.969 77.4639C321.04 77.5438 321.073 77.6492 321.061 77.7563L314.947 128.367C314.925 128.556 314.766 128.697 314.577 128.697H290.394C287.205 128.697 284.014 130.087 281.639 132.51C281.568 132.583 281.471 132.622 281.372 132.622Z" fill="#002BFF"/>
<path d="M290.605 83.0025L285.41 126.009C287.154 125.367 288.946 125.042 290.746 125.042H311.688L317.008 80.9931H296.155C294.194 80.9931 292.228 81.7054 290.605 83.0025V83.0025ZM284.964 126.959C284.883 126.959 284.803 126.932 284.736 126.883C284.631 126.801 284.577 126.672 284.592 126.54L289.879 82.7611C289.891 82.6659 289.938 82.5792 290.012 82.518C291.793 81.0509 293.974 80.2434 296.155 80.2434H317.429C317.538 80.2434 317.64 80.2893 317.71 80.3709C317.781 80.4508 317.815 80.5562 317.802 80.6633L312.392 125.46C312.37 125.649 312.21 125.79 312.02 125.79H290.746C288.84 125.79 286.943 126.174 285.105 126.931C285.059 126.949 285.012 126.959 284.964 126.959" fill="#002BFF"/>
<path d="M281.515 131.451C281.5 131.451 281.484 131.451 281.469 131.449C281.263 131.424 281.117 131.237 281.143 131.033L287.113 81.5915C287.123 81.5099 287.159 81.4334 287.217 81.3739C289.733 78.8086 293.117 77.3364 296.505 77.3364H320.688C320.795 77.3364 320.897 77.3823 320.968 77.4639C321.04 77.5438 321.072 77.6492 321.06 77.7563L314.947 128.367C314.925 128.556 314.765 128.697 314.576 128.697H311.125C310.92 128.697 310.751 128.53 310.751 128.323C310.751 128.115 310.92 127.949 311.125 127.949H314.243L320.266 78.0861H296.505C293.357 78.0861 290.205 79.441 287.841 81.8091L281.885 131.123C281.863 131.311 281.702 131.451 281.515 131.451" fill="#002BFF"/>
<path d="M250.092 131.872H280.81L264.558 90.2021L249.489 128.362L250.092 131.872ZM281.357 132.622H249.776C249.594 132.622 249.438 132.491 249.407 132.311L248.732 128.386C248.72 128.318 248.729 128.25 248.753 128.185L264.213 89.0393C264.269 88.8965 264.406 88.8029 264.559 88.8029C264.561 88.8029 264.561 88.8029 264.561 88.8029C264.714 88.8029 264.854 88.8981 264.91 89.0409L281.706 132.112C281.752 132.226 281.736 132.357 281.667 132.459C281.597 132.561 281.481 132.622 281.357 132.622" fill="#002BFF"/>
<path d="M281.357 132.248C279.517 129.756 276.568 128.323 273.283 128.323H249.101L255.214 77.7121H279.395C282.681 77.7121 285.629 79.1452 287.468 81.6357L281.357 132.248Z" fill="white"/>
<path d="M249.525 127.949H273.284C276.373 127.949 279.171 129.169 281.092 131.327L287.079 81.7411C285.304 79.4155 282.511 78.0861 279.395 78.0861H255.546L249.525 127.949ZM281.357 132.622C281.24 132.622 281.128 132.568 281.056 132.469C279.285 130.072 276.453 128.697 273.284 128.697H249.101C248.994 128.697 248.892 128.651 248.821 128.571C248.749 128.491 248.717 128.384 248.729 128.277L254.842 77.6662C254.864 77.4792 255.024 77.3364 255.214 77.3364H279.395C282.805 77.3364 285.857 78.8222 287.771 81.4147C287.827 81.4912 287.853 81.5864 287.841 81.6816L281.729 132.292C281.711 132.445 281.602 132.571 281.452 132.61C281.422 132.619 281.389 132.622 281.357 132.622" fill="#002BFF"/>
<path d="M252.782 125.042H273.636C275.465 125.042 277.207 125.377 278.822 126.041L284.028 82.943C282.736 81.6833 280.973 80.9931 279.045 80.9931H258.101L252.782 125.042ZM279.133 126.959C279.081 126.959 279.028 126.948 278.979 126.925C277.333 126.172 275.534 125.79 273.636 125.79H252.36C252.253 125.79 252.151 125.744 252.08 125.664C252.008 125.584 251.974 125.477 251.988 125.37L257.397 80.5732C257.421 80.3862 257.581 80.2434 257.769 80.2434H279.045C281.24 80.2434 283.246 81.0611 284.689 82.5452C284.769 82.6268 284.806 82.739 284.793 82.8512L279.506 126.63C279.492 126.749 279.421 126.852 279.317 126.91C279.261 126.942 279.198 126.959 279.133 126.959" fill="#002BFF"/>
<path d="M281.911 128.034C281.898 128.034 281.882 128.034 281.867 128.032C281.661 128.007 281.515 127.82 281.539 127.616L287.079 81.7411C285.304 79.4155 282.511 78.0861 279.395 78.0861H255.546L249.64 127.517C249.615 127.721 249.431 127.869 249.224 127.843C249.018 127.82 248.872 127.633 248.896 127.427L254.842 77.6662C254.864 77.4792 255.024 77.3364 255.214 77.3364H279.395C282.805 77.3364 285.857 78.8222 287.771 81.4147C287.827 81.4912 287.853 81.5864 287.841 81.6816L282.284 127.704C282.26 127.894 282.098 128.034 281.911 128.034Z" fill="#002BFF"/>
<path d="M294.126 97.2314H311.93C312.287 97.2314 312.579 96.9391 312.579 96.5821V96.4273C312.579 96.0704 312.287 95.778 311.93 95.778H294.126C293.767 95.778 293.475 96.0704 293.475 96.4273V96.5821C293.475 96.9391 293.767 97.2314 294.126 97.2314Z" fill="#002BFF"/>
<path d="M290.491 93.9097H308.297C308.654 93.9097 308.946 93.6174 308.946 93.2587V93.1039C308.946 92.7469 308.654 92.4562 308.297 92.4562H290.491C290.134 92.4562 289.842 92.7469 289.842 93.1039V93.2587C289.842 93.6174 290.134 93.9097 290.491 93.9097Z" fill="#002BFF"/>
<path d="M289.867 100.45H307.673C308.03 100.45 308.322 100.157 308.322 99.8002V99.6455C308.322 99.2885 308.03 98.9961 307.673 98.9961H289.867C289.51 98.9961 289.218 99.2885 289.218 99.6455V99.8002C289.218 100.157 289.51 100.45 289.867 100.45Z" fill="#002BFF"/>
<path d="M293.398 103.566H311.204C311.561 103.566 311.853 103.273 311.853 102.915V102.76C311.853 102.403 311.561 102.112 311.204 102.112H293.398C293.041 102.112 292.749 102.403 292.749 102.76V102.915C292.749 103.273 293.041 103.566 293.398 103.566Z" fill="#002BFF"/>
<path d="M262.354 88.8216H278.671C279.028 88.8216 279.32 88.5292 279.32 88.1722V88.0175C279.32 87.6605 279.028 87.3681 278.671 87.3681H262.354C261.997 87.3681 261.705 87.6605 261.705 88.0175V88.1722C261.705 88.5292 261.997 88.8216 262.354 88.8216Z" fill="#002BFF"/>
<path d="M259.896 92.0397H275.904C276.261 92.0397 276.553 91.7473 276.553 91.3903V91.2356C276.553 90.8786 276.261 90.5861 275.904 90.5861H259.896C259.539 90.5861 259.247 90.8786 259.247 91.2356V91.3903C259.247 91.7473 259.539 92.0397 259.896 92.0397Z" fill="#002BFF"/>
<path d="M258.235 95.1558H277.909C278.266 95.1558 278.559 94.8633 278.559 94.5063V94.3516C278.559 93.9946 278.266 93.7022 277.909 93.7022H258.235C257.878 93.7022 257.586 93.9946 257.586 94.3516V94.5063C257.586 94.8633 257.878 95.1558 258.235 95.1558Z" fill="#002BFF"/>
</svg>
