<svg width="375" height="425" viewBox="0 0 375 425" fill="none" xmlns="http://www.w3.org/2000/svg">
<path d="M136.491 189.679C134.826 204.461 133.4 216.612 132.572 225.74C129.07 264.336 127.319 283.637 128.121 292.817C129.101 304.052 131.126 311.338 127.771 320.061C127.382 321.074 125.212 326.546 125.135 333.827C125.096 337.586 125.103 340.874 127.142 342.329C129.983 344.355 133.93 340.796 140.681 339.927C146.645 339.159 151.878 340.865 155.598 342.615C157.24 326.419 160.764 311.501 162.248 295.282C164.247 273.421 164.14 250.259 165.85 228.378C169.012 238.456 170.792 246.806 171.817 252.382C177.822 285.041 181.135 303.064 177.274 322.697C176.547 326.392 174.731 334.39 178.738 337.928C180.739 339.694 183.556 339.791 191.223 338.89C196.717 338.244 203.973 337.171 212.502 335.286C209.499 304.553 204.467 270.895 196.398 235.032C192.353 217.058 187.875 199.988 183.132 183.857C167.509 185.711 152.113 187.823 136.491 189.679Z" fill="white"/>
<path d="M136.831 190.017C136.529 192.695 136.235 195.287 135.951 197.79C134.699 208.833 133.618 218.368 132.946 225.774C129.45 264.311 127.697 283.64 128.495 292.784C128.703 295.173 128.956 297.357 129.201 299.469C130.092 307.166 130.795 313.245 128.122 320.195L128.095 320.266C126.476 324.462 125.559 329.28 125.511 333.832C125.474 337.34 125.439 340.651 127.361 342.023C128.863 343.094 130.797 342.406 133.474 341.454C135.397 340.772 137.79 339.92 140.633 339.555C145.35 338.948 150.273 339.788 155.278 342.054C156.072 334.427 157.291 326.975 158.469 319.763C159.766 311.84 161.106 303.646 161.874 295.248C162.945 283.541 163.418 271.266 163.875 259.393C164.271 249.126 164.681 238.51 165.476 228.349C165.49 228.171 165.629 228.026 165.808 228.006C165.988 227.982 166.155 228.094 166.209 228.266C168.705 236.223 170.717 244.314 172.188 252.314C178.203 285.039 181.518 303.066 177.643 322.769L177.54 323.289C176.764 327.175 175.321 334.409 178.988 337.647C180.815 339.261 183.321 339.439 191.179 338.516C198.11 337.702 205.144 336.515 212.095 334.99C208.808 301.481 203.403 267.879 196.03 235.113C192.204 218.107 187.774 201.001 182.861 184.266C175.16 185.183 167.391 186.177 159.875 187.138C152.34 188.102 144.552 189.098 136.831 190.017ZM129.147 343.317C128.345 343.317 127.608 343.123 126.924 342.635C124.684 341.035 124.72 337.533 124.759 333.824C124.808 329.185 125.744 324.273 127.394 319.996L127.421 319.926C130.028 313.149 129.333 307.149 128.454 299.555C128.209 297.439 127.956 295.249 127.746 292.851C126.942 283.638 128.697 264.289 132.194 225.738C132.87 218.292 133.952 208.751 135.204 197.705C135.499 195.111 135.804 192.42 136.117 189.637C136.137 189.463 136.273 189.326 136.447 189.305C144.261 188.377 152.15 187.369 159.778 186.393C167.399 185.417 175.28 184.409 183.088 183.483C183.269 183.461 183.44 183.574 183.493 183.75C188.445 200.597 192.911 217.823 196.765 234.948C204.167 267.852 209.588 301.599 212.876 335.249C212.894 335.439 212.769 335.611 212.582 335.653C205.503 337.217 198.331 338.433 191.267 339.262C183.721 340.15 180.657 340.124 178.49 338.21C174.5 334.686 175.998 327.177 176.802 323.141L176.905 322.624C180.753 303.061 177.448 285.085 171.448 252.45C170.099 245.113 168.293 237.699 166.076 230.384C165.379 239.926 164.997 249.827 164.626 259.422C164.169 271.303 163.695 283.589 162.622 295.317C161.852 303.741 160.509 311.948 159.212 319.886C158.007 327.25 156.76 334.866 155.972 342.652C155.96 342.774 155.89 342.882 155.783 342.941C155.677 343.002 155.548 343.007 155.438 342.955C150.401 340.585 145.45 339.691 140.729 340.299C137.966 340.655 135.713 341.457 133.726 342.162C131.989 342.78 130.479 343.317 129.147 343.317Z" fill="#002BFF"/>
<path d="M166.194 234.974C165.986 234.974 165.818 234.806 165.818 234.598C165.818 234.558 165.81 234.318 165.796 233.932C165.725 231.882 165.51 225.639 165.587 223.149C165.713 218.974 168.45 215.252 172.397 213.887C172.593 213.821 172.807 213.923 172.875 214.12C172.943 214.316 172.839 214.53 172.644 214.598C168.989 215.861 166.456 219.307 166.338 223.173C166.263 225.639 166.476 231.861 166.547 233.906C166.561 234.314 166.569 234.564 166.569 234.598C166.569 234.806 166.401 234.974 166.194 234.974Z" fill="#002BFF"/>
<path d="M217.789 118.531L210.384 132.62C210.384 132.62 197.001 139.66 207.461 162.695C207.728 163.282 207.4 163.968 206.775 164.125C203.366 164.98 193.856 167.212 192.843 165.772C191.607 164.014 186.961 123.466 217.789 118.531Z" fill="white"/>
<path d="M217.102 119.031C207.2 120.836 200.104 126.592 196.005 136.151C190.3 149.459 192.581 164.728 193.151 165.556C193.627 166.233 197.996 165.939 206.683 163.761C206.871 163.713 207.028 163.586 207.113 163.409C207.198 163.232 207.201 163.028 207.12 162.85C201.659 150.824 202.766 143.172 204.656 138.87C206.545 134.57 209.498 132.697 210.103 132.347L217.102 119.031ZM194.88 166.61C193.61 166.61 192.828 166.403 192.535 165.988C191.702 164.803 189.695 149.161 195.232 136.049C199.524 125.882 207.094 119.862 217.729 118.16C217.871 118.136 218.01 118.196 218.093 118.313C218.176 118.429 218.187 118.58 218.12 118.706L210.717 132.796C210.681 132.864 210.627 132.918 210.559 132.954C210.526 132.971 207.278 134.732 205.323 139.218C203.512 143.378 202.472 150.8 207.803 162.539C207.978 162.921 207.973 163.358 207.789 163.737C207.609 164.113 207.271 164.387 206.866 164.489C201.234 165.901 197.226 166.61 194.88 166.61Z" fill="#002BFF"/>
<path d="M186.068 193.825C182.48 173.395 187.16 153.393 183.571 132.962C178.352 130.801 170.078 128.114 159.627 127.69C151.654 127.366 144.779 128.455 139.437 129.822C134.503 131.084 130.195 134.127 127.442 138.411C126.586 139.743 125.781 141.226 125.127 142.844C123.979 145.683 122.981 148.155 122.381 150.261C121.911 151.914 122.539 153.688 123.974 154.634C127.599 157.017 131.68 161.461 135.066 162.772C130.925 175.205 137.642 182.39 135.651 195.287C137.843 196.455 161.663 200.693 186.068 193.825Z" fill="#002BFF"/>
<path d="M188.554 117.441C188.996 116.979 210.463 133.368 210.463 133.368C210.463 133.368 193.888 156.485 193.678 172.717C193.678 172.717 178.238 170.056 174.374 164.235C174.374 164.235 170.349 136.444 188.554 117.441Z" fill="white"/>
<path d="M188.826 117.701C188.824 117.703 188.824 117.701 188.826 117.701V117.701ZM174.736 164.098C178.182 169.138 190.815 171.787 193.312 172.266C193.781 157.133 208.036 136.189 209.948 133.448C202.066 127.434 190.376 118.687 188.675 117.859C171.467 135.991 174.519 162.409 174.736 164.098ZM193.678 173.092C193.657 173.092 193.635 173.091 193.615 173.087C192.977 172.978 177.97 170.331 174.061 164.443C174.031 164.395 174.01 164.344 174.004 164.288C173.993 164.218 173.004 157.182 174.265 147.914C175.43 139.352 178.808 127.07 188.282 117.181C188.61 116.843 188.789 116.652 199.9 124.93C205.262 128.925 210.637 133.028 210.691 133.069C210.853 133.193 210.887 133.421 210.768 133.588C210.603 133.817 194.261 156.796 194.055 172.722C194.053 172.832 194.002 172.936 193.919 173.006C193.851 173.062 193.766 173.092 193.678 173.092Z" fill="#002BFF"/>
<path d="M185.264 146.763C183.279 145.275 176.793 140.945 174.5 142.295C173.482 142.894 171.581 143.582 170.066 145.141C167.54 147.74 164.684 149.996 161.439 151.608L141.473 161.524C138.861 162.704 135.82 162.416 133.477 160.766L124.325 153.564C124.325 153.564 119.555 177.421 133.33 180.895C145.337 183.923 165.816 160.269 170.872 154.151C171.617 153.252 172.717 152.728 173.885 152.718C176.132 152.697 179.734 152.65 180.691 152.553C186.575 151.961 186.596 147.759 185.264 146.763Z" fill="white"/>
<path d="M124.586 154.248C123.973 157.969 121.366 177.49 133.422 180.53C134.105 180.703 134.819 180.785 135.557 180.785C147.723 180.787 166.707 158.602 170.581 153.913C171.397 152.925 172.599 152.354 173.881 152.342C177.543 152.308 179.948 152.25 180.654 152.179C184.39 151.803 185.288 149.981 185.502 149.216C185.773 148.245 185.465 147.382 185.04 147.062C181.995 144.781 176.494 141.557 174.69 142.618C174.425 142.775 174.117 142.929 173.762 143.108C172.722 143.63 171.428 144.279 170.335 145.403C167.584 148.233 164.647 150.435 161.605 151.944L141.64 161.86C138.908 163.096 135.701 162.792 133.26 161.073L124.586 154.248ZM135.564 181.536C134.762 181.536 133.985 181.448 133.238 181.259C127.435 179.795 123.994 174.505 123.287 165.957C122.76 159.581 123.944 153.551 123.956 153.49C123.982 153.362 124.072 153.257 124.195 153.211C124.317 153.167 124.455 153.189 124.557 153.269L133.709 160.47C135.918 162.024 138.839 162.301 141.318 161.18L161.27 151.271C164.235 149.799 167.103 147.649 169.796 144.879C170.977 143.664 172.392 142.955 173.425 142.436C173.769 142.263 174.066 142.113 174.309 141.97C177.182 140.277 185.152 146.209 185.49 146.462C186.237 147.021 186.546 148.264 186.226 149.416C185.971 150.331 184.926 152.505 180.729 152.927C179.797 153.02 176.494 153.07 173.888 153.094C172.829 153.102 171.836 153.576 171.161 154.391C165.679 161.026 147.73 181.536 135.564 181.536Z" fill="#002BFF"/>
<path d="M202.691 133.992C202.618 133.992 202.545 133.97 202.48 133.928L189.185 124.899C189.013 124.783 188.967 124.549 189.084 124.377C189.2 124.205 189.435 124.161 189.606 124.279L202.904 133.306C203.075 133.421 203.12 133.656 203.002 133.827C202.929 133.934 202.812 133.992 202.691 133.992Z" fill="#002BFF"/>
<path d="M200.17 137.828C200.099 137.828 200.026 137.807 199.963 137.765L186.699 128.887C186.528 128.772 186.482 128.537 186.597 128.365C186.711 128.192 186.946 128.146 187.117 128.262L200.379 137.141C200.553 137.255 200.598 137.489 200.483 137.661C200.411 137.77 200.292 137.828 200.17 137.828Z" fill="#002BFF"/>
<path d="M198.144 141.773C198.076 141.773 198.008 141.756 197.946 141.717L192.63 138.429C192.454 138.32 192.399 138.089 192.508 137.912C192.617 137.736 192.848 137.68 193.025 137.79L198.341 141.078C198.518 141.188 198.572 141.42 198.463 141.596C198.392 141.71 198.269 141.773 198.144 141.773Z" fill="#002BFF"/>
<path d="M176.139 103.375C176.202 103.125 171.396 98.0118 171.396 98.0118L162.639 98.7037C157.403 98.4674 156.867 108.548 156.867 108.548C156.867 108.548 157.238 109.638 157.422 110.918C155.598 115.401 150.192 127.711 145.098 129.603C142.055 130.733 150.008 140.835 156.818 140.979C163.628 141.125 170.986 138.555 171.091 135.976C171.197 133.397 162.79 127.614 162.79 127.614L164.385 123.69C165.242 124.204 166.122 124.661 166.96 124.977C168.055 125.39 169.276 124.809 169.646 123.697L171.642 118.046L172.814 118.34C173.456 118.5 174.218 118.031 174.123 117.375C173.308 111.845 175.663 105.286 176.139 103.375Z" fill="white"/>
<path d="M175.773 103.285C175.773 103.285 175.773 103.285 175.773 103.287C175.773 103.285 175.773 103.285 175.773 103.285ZM157.247 108.501C157.335 108.769 157.631 109.74 157.794 110.865C157.803 110.932 157.794 111 157.77 111.061C155.718 116.103 150.391 128.037 145.229 129.955C145.083 130.009 144.694 130.154 144.836 130.992C145.331 133.926 151.451 140.49 156.825 140.604C163.88 140.769 170.629 138.116 170.716 135.961C170.787 134.222 165.888 130.201 162.578 127.925C162.433 127.825 162.377 127.638 162.444 127.473L164.037 123.549C164.079 123.447 164.162 123.369 164.266 123.335C164.37 123.298 164.485 123.311 164.579 123.369C165.499 123.92 166.343 124.343 167.093 124.625C167.525 124.79 167.992 124.77 168.411 124.571C168.831 124.372 169.143 124.018 169.29 123.578L171.287 117.922C171.352 117.739 171.545 117.635 171.732 117.682L172.904 117.975C173.14 118.034 173.419 117.963 173.599 117.801C173.682 117.727 173.776 117.601 173.75 117.431C173.05 112.674 174.665 107.134 175.44 104.472C175.564 104.05 175.668 103.693 175.741 103.414C175.365 102.869 173.225 100.511 171.246 98.4011L162.668 99.0777C162.653 99.0794 162.637 99.0794 162.622 99.0794C158.025 98.8805 157.308 107.632 157.247 108.501ZM157.342 141.36C157.163 141.36 156.987 141.358 156.81 141.355C151.001 141.231 144.636 134.326 144.095 131.118C143.881 129.855 144.55 129.406 144.967 129.251C149.947 127.401 155.414 114.844 157.034 110.872C156.854 109.687 156.516 108.681 156.512 108.671C156.497 108.625 156.49 108.577 156.492 108.53C156.516 108.108 157.097 98.3229 162.454 98.3229C162.513 98.3229 162.571 98.3246 162.632 98.3263L171.367 97.6361C171.483 97.6259 171.591 97.6701 171.67 97.7534C176.615 103.015 176.564 103.226 176.503 103.465C176.428 103.77 176.311 104.173 176.163 104.683C175.401 107.294 173.818 112.729 174.493 117.32C174.551 117.705 174.408 118.082 174.104 118.357C173.74 118.687 173.198 118.823 172.722 118.704L171.882 118.495L170 123.823C169.791 124.452 169.341 124.962 168.734 125.249C168.13 125.536 167.452 125.565 166.826 125.329C166.141 125.069 165.383 124.702 164.57 124.234L163.253 127.478C164.834 128.586 171.571 133.457 171.467 135.991C171.347 138.963 163.734 141.36 157.342 141.36Z" fill="#002BFF"/>
<path d="M164.659 124.238C164.582 124.238 164.506 124.214 164.439 124.166L162.231 122.57C159.975 120.94 158.736 118.789 158.646 116.353C158.639 116.146 158.8 115.971 159.008 115.964C159.219 115.95 159.389 116.117 159.397 116.324C159.479 118.553 160.58 120.45 162.671 121.961L164.88 123.558C165.048 123.678 165.085 123.913 164.963 124.081C164.89 124.183 164.776 124.238 164.659 124.238Z" fill="#002BFF"/>
<path d="M163.243 109.145C163.566 109.111 163.819 108.861 163.861 108.54C163.885 108.356 163.906 108.147 163.919 107.918C164.069 105.339 163.013 104.05 163.676 102.993C164.038 102.415 164.71 102.235 165.091 102.133C166.986 101.628 167.918 104.322 171.518 106.707C175.989 109.67 176.324 110.223 177.373 110.325C181.319 110.709 183.408 106.411 184.437 103.999C184.726 103.321 186.164 99.688 183.91 96.5685C182.74 94.9467 180.907 93.9284 178.896 93.6887C177.73 93.5493 176.683 92.8302 176.256 91.7371C176.146 91.4532 175.991 91.1795 175.782 90.9296C174.041 88.8539 169.798 90.1204 168.312 90.5641C167.284 90.8701 165.595 91.5025 163.753 92.8761C162.729 93.6394 161.334 93.6989 160.24 93.0376C159.7 92.7112 159.042 92.4494 158.28 92.3933C155.338 92.1825 153.434 95.2595 153.257 95.5536C151.21 98.9757 152.893 103.408 154.165 106.753C155.079 109.159 156.176 110.991 156.963 112.166L156.985 112.163C157.983 112.03 158.637 111.044 158.359 110.077C158.197 109.512 158.09 108.858 158.109 108.135C158.122 107.573 158.046 105.777 159.435 105.228C160.291 104.89 162.275 105.475 162.461 108.433C162.486 108.854 162.807 109.191 163.229 109.147L163.243 109.145Z" fill="#002BFF"/>
<path d="M181.142 306.682C184.834 299.084 185.186 291.429 181.142 283.696L184.045 280.216L263.413 282.826L260.676 308.038L183.85 308.924L181.142 306.682Z" fill="white"/>
<path d="M181.609 306.58L183.983 308.547L260.34 307.668L262.995 283.188L184.215 280.597L181.591 283.745C185.332 291.055 185.339 298.734 181.609 306.58ZM183.85 309.3C183.762 309.3 183.678 309.269 183.61 309.213L180.902 306.973C180.77 306.862 180.729 306.673 180.805 306.519C184.644 298.615 184.646 291.208 180.81 283.869C180.739 283.735 180.756 283.572 180.855 283.455L183.756 279.975C183.83 279.886 183.942 279.835 184.057 279.84L263.425 282.45C263.529 282.453 263.628 282.501 263.697 282.579C263.765 282.659 263.798 282.763 263.786 282.866L261.05 308.079C261.03 308.268 260.872 308.412 260.681 308.414L183.853 309.3C183.853 309.3 183.852 309.3 183.85 309.3Z" fill="#002BFF"/>
<path d="M326.981 277.44H179.67C177.947 277.44 176.552 278.836 176.552 280.558C176.552 282.28 177.947 283.676 179.67 283.676H247.394C252.353 283.676 256.374 287.696 256.374 292.655V297.702C256.374 302.663 252.353 306.682 247.394 306.682H179.67C177.947 306.682 176.552 308.077 176.552 309.799C176.552 311.521 177.947 312.917 179.67 312.917H326.981C336.126 312.917 343.538 305.505 343.538 296.361V293.996C343.538 284.852 336.126 277.44 326.981 277.44Z" fill="white"/>
<path d="M179.67 307.057C178.158 307.057 176.928 308.288 176.928 309.8C176.928 311.313 178.158 312.542 179.67 312.542H326.982C335.903 312.542 343.162 305.283 343.162 296.361V293.996C343.162 285.075 335.903 277.816 326.982 277.816H179.67C178.158 277.816 176.928 279.046 176.928 280.558C176.928 282.069 178.158 283.3 179.67 283.3H247.394C252.554 283.3 256.749 287.495 256.749 292.655V297.702C256.749 302.862 252.554 307.057 247.394 307.057H179.67ZM326.982 313.293H179.67C177.744 313.293 176.176 311.726 176.176 309.8C176.176 307.873 177.744 306.306 179.67 306.306H247.394C252.139 306.306 255.998 302.447 255.998 297.702V292.655C255.998 287.91 252.139 284.051 247.394 284.051H179.67C177.744 284.051 176.176 282.484 176.176 280.558C176.176 278.632 177.744 277.064 179.67 277.064H326.982C336.318 277.064 343.914 284.66 343.914 293.996V296.361C343.914 305.697 336.318 313.293 326.982 313.293Z" fill="#002BFF"/>
<path d="M225.833 290.738H220.033C219.825 290.738 219.657 290.569 219.657 290.362C219.657 290.153 219.825 289.984 220.033 289.984H225.833C226.04 289.984 226.209 290.153 226.209 290.362C226.209 290.569 226.04 290.738 225.833 290.738Z" fill="#002BFF"/>
<path d="M216.402 290.738H185.695C185.487 290.738 185.319 290.569 185.319 290.362C185.319 290.153 185.487 289.984 185.695 289.984H216.402C216.609 289.984 216.777 290.153 216.777 290.362C216.777 290.569 216.609 290.738 216.402 290.738Z" fill="#002BFF"/>
<path d="M222.308 294.493H185.977C185.769 294.493 185.601 294.324 185.601 294.117C185.601 293.91 185.769 293.741 185.977 293.741H222.308C222.517 293.741 222.683 293.91 222.683 294.117C222.683 294.324 222.517 294.493 222.308 294.493Z" fill="#002BFF"/>
<path d="M231.447 301.225H224.844C224.637 301.225 224.468 301.056 224.468 300.849C224.468 300.642 224.637 300.473 224.844 300.473H231.447C231.654 300.473 231.822 300.642 231.822 300.849C231.822 301.056 231.654 301.225 231.447 301.225Z" fill="#002BFF"/>
<path d="M222.025 301.225H185.695C185.487 301.225 185.319 301.056 185.319 300.849C185.319 300.642 185.487 300.473 185.695 300.473H222.025C222.233 300.473 222.401 300.642 222.401 300.849C222.401 301.056 222.233 301.225 222.025 301.225Z" fill="#002BFF"/>
<path d="M173.851 350.139H310.502V316.659H173.851C177.885 327.968 177.995 339.131 173.851 350.139Z" fill="white"/>
<path d="M174.391 349.763H310.126V317.035H174.381C178.242 328.178 178.245 339.184 174.391 349.763ZM310.502 350.514H173.851C173.727 350.514 173.611 350.453 173.541 350.353C173.472 350.251 173.455 350.122 173.499 350.006C177.536 339.284 177.535 328.107 173.497 316.786C173.455 316.671 173.473 316.543 173.543 316.443C173.614 316.343 173.728 316.283 173.851 316.283H310.502C310.711 316.283 310.879 316.452 310.879 316.659V350.139C310.879 350.346 310.711 350.514 310.502 350.514Z" fill="#002BFF"/>
<path d="M294.051 318.311H172.91C171.453 318.311 170.272 317.13 170.272 315.673C170.272 314.216 171.453 313.035 172.91 313.035H330.111C336.513 313.035 341.703 318.225 341.703 324.627V342.851C341.703 349.253 336.513 354.443 330.111 354.443H172.91C171.453 354.443 170.272 353.262 170.272 351.805C170.272 350.348 171.453 349.166 172.91 349.166H294.051C298.574 349.166 302.241 345.501 302.241 340.977V326.5C302.241 321.978 298.574 318.311 294.051 318.311Z" fill="white"/>
<path d="M172.911 349.542C171.663 349.542 170.648 350.557 170.648 351.805C170.648 353.053 171.663 354.068 172.911 354.068H330.111C336.296 354.068 341.328 349.036 341.328 342.851V324.627C341.328 318.442 336.296 313.41 330.111 313.41H172.911C171.663 313.41 170.648 314.425 170.648 315.673C170.648 316.921 171.663 317.936 172.911 317.936H294.051C298.773 317.936 302.617 321.778 302.617 326.5V340.978C302.617 345.7 298.773 349.542 294.051 349.542H172.911ZM330.111 354.819H172.911C171.248 354.819 169.896 353.467 169.896 351.805C169.896 350.144 171.248 348.791 172.911 348.791H294.051C298.36 348.791 301.866 345.285 301.866 340.978V326.5C301.866 322.193 298.36 318.687 294.051 318.687H172.911C171.248 318.687 169.896 317.336 169.896 315.673C169.896 314.012 171.248 312.659 172.911 312.659H330.111C336.711 312.659 342.079 318.028 342.079 324.627V342.851C342.079 349.45 336.711 354.819 330.111 354.819Z" fill="#002BFF"/>
<path d="M198.426 324.986H178.247C178.039 324.986 177.871 324.817 177.871 324.61C177.871 324.403 178.039 324.234 178.247 324.234H198.426C198.633 324.234 198.801 324.403 198.801 324.61C198.801 324.817 198.633 324.986 198.426 324.986Z" fill="#002BFF"/>
<path d="M238.565 324.986H201.885C201.678 324.986 201.51 324.817 201.51 324.61C201.51 324.403 201.678 324.234 201.885 324.234H238.565C238.772 324.234 238.94 324.403 238.94 324.61C238.94 324.817 238.772 324.986 238.565 324.986Z" fill="#002BFF"/>
<path d="M229.097 329.453H178.674C178.464 329.453 178.298 329.285 178.298 329.077C178.298 328.87 178.464 328.702 178.674 328.702H229.097C229.305 328.702 229.473 328.87 229.473 329.077C229.473 329.285 229.305 329.453 229.097 329.453Z" fill="#002BFF"/>
<path d="M243.625 329.453H233.364C233.157 329.453 232.989 329.285 232.989 329.077C232.989 328.87 233.157 328.702 233.364 328.702H243.625C243.833 328.702 244.001 328.87 244.001 329.077C244.001 329.285 243.833 329.453 243.625 329.453Z" fill="#002BFF"/>
<path d="M232.144 338.779H178.674C178.464 338.779 178.298 338.611 178.298 338.404C178.298 338.196 178.464 338.028 178.674 338.028H232.144C232.351 338.028 232.519 338.196 232.519 338.404C232.519 338.611 232.351 338.779 232.144 338.779Z" fill="#002BFF"/>
<path d="M238.565 338.779H233.92C233.713 338.779 233.544 338.611 233.544 338.404C233.544 338.196 233.713 338.028 233.92 338.028H238.565C238.772 338.028 238.94 338.196 238.94 338.404C238.94 338.611 238.772 338.779 238.565 338.779Z" fill="#002BFF"/>
<path d="M254.038 299.503C251.056 297.83 247.523 298.088 244.734 300.14C242.75 301.6 239.618 303.181 234.704 304.359C231.349 305.162 229.07 306.269 227.526 307.447C224.917 309.439 226.188 314.049 229.338 314.049H255.26L256.382 299.494L254.038 299.503Z" fill="white"/>
<path d="M249.899 298.789C248.175 298.789 246.449 299.346 244.957 300.443C242.488 302.26 239.068 303.7 234.791 304.725C231.814 305.437 229.446 306.456 227.754 307.746C226.459 308.735 226.291 310.396 226.699 311.603C227.037 312.605 227.907 313.674 229.339 313.674H254.914L255.976 299.871L254.04 299.878C254.038 299.878 254.038 299.878 254.038 299.878C253.973 299.878 253.911 299.861 253.854 299.831C252.612 299.134 251.255 298.789 249.899 298.789ZM255.26 314.425H229.339C227.809 314.425 226.524 313.436 225.986 311.845C225.492 310.383 225.706 308.363 227.299 307.149C229.073 305.793 231.537 304.732 234.616 303.994C238.794 302.993 242.123 301.594 244.511 299.837C247.391 297.719 251.068 297.451 254.135 299.127L256.381 299.118C256.381 299.118 256.381 299.118 256.382 299.118C256.486 299.118 256.586 299.163 256.658 299.239C256.729 299.316 256.765 299.419 256.756 299.523L255.636 314.079C255.621 314.274 255.458 314.425 255.26 314.425Z" fill="#002BFF"/>
<path d="M235.453 311.42H229.675C229.468 311.42 229.299 311.251 229.299 311.042C229.299 310.835 229.468 310.666 229.675 310.666H235.453C235.661 310.666 235.829 310.835 235.829 311.042C235.829 311.251 235.661 311.42 235.453 311.42Z" fill="#002BFF"/>
<path d="M266.752 299.503C263.77 297.83 260.238 298.088 257.448 300.14C255.464 301.6 252.333 303.181 247.418 304.359C240.919 305.917 238.452 308.611 237.558 310.765C236.924 312.295 237.908 314.049 239.404 314.049H266.562C268.646 314.049 270.196 311.877 269.753 309.578L267.934 300.166L266.752 299.503Z" fill="white"/>
<path d="M262.613 298.788C260.887 298.788 259.163 299.346 257.671 300.443C255.201 302.26 251.782 303.7 247.505 304.725C241.05 306.272 238.723 308.941 237.905 310.908C237.629 311.571 237.701 312.344 238.09 312.928C238.406 313.402 238.886 313.674 239.404 313.674H266.562C267.364 313.674 268.109 313.307 268.66 312.639C269.321 311.84 269.591 310.721 269.384 309.65L267.597 300.409L266.569 299.831C265.326 299.134 263.969 298.788 262.613 298.788ZM266.562 314.425H239.404C238.631 314.425 237.924 314.033 237.465 313.346C236.938 312.557 236.841 311.513 237.211 310.621C238.095 308.492 240.567 305.614 247.33 303.994C251.508 302.993 254.837 301.594 257.225 299.837C260.132 297.699 263.854 297.445 266.936 299.174L268.117 299.837C268.214 299.892 268.282 299.985 268.303 300.094L270.122 309.507C270.372 310.797 270.042 312.146 269.239 313.118C268.544 313.961 267.592 314.425 266.562 314.425Z" fill="#002BFF"/>
<path d="M265.096 311.42H241.803C241.596 311.42 241.427 311.251 241.427 311.042C241.427 310.835 241.596 310.666 241.803 310.666H265.096C265.305 310.666 265.474 310.835 265.474 311.042C265.474 311.251 265.305 311.42 265.096 311.42Z" fill="#002BFF"/>
<path d="M336.974 257.254C336.974 257.254 333.938 253.438 319.036 242.896C304.133 232.354 276.182 225.367 267.594 225.767C255.872 226.312 256.144 240.81 256.144 249.483C256.144 262.16 243.965 300.699 243.965 300.699C245.993 302.153 251.862 303.387 259.75 304.081C259.75 304.081 282.316 278.518 279.453 253.982C279.453 253.982 290.139 271.997 304.016 276.894C306.405 277.737 314.223 277.573 321.069 277.267C328.372 276.938 334.49 271.651 335.906 264.481C336.316 262.407 336.685 260.012 336.974 257.254Z" fill="#002BFF"/>
<path d="M276.18 244.985C276.18 244.985 284.179 280.029 270.65 304.081H258.623L276.18 244.985Z" fill="#002BFF"/>
<path d="M262.664 302.116C262.621 302.116 262.577 302.109 262.535 302.094C262.341 302.022 262.239 301.806 262.31 301.613C264.94 294.367 269.766 279.927 272.556 264.629C272.593 264.425 272.789 264.289 272.993 264.328C273.197 264.364 273.333 264.559 273.296 264.765C270.496 280.116 265.654 294.6 263.017 301.869C262.961 302.022 262.817 302.116 262.664 302.116Z" fill="white"/>
<path d="M325.553 150.748C329.243 153.604 327.225 156.216 332.049 162.891C335.594 167.793 338.513 168.915 338.523 172.203C338.531 175.165 336.173 177.371 334.615 178.828C327.544 185.445 317.484 185.098 311.307 184.885C306.309 184.714 299.458 184.477 298.418 181.387C297.391 178.333 303.217 176.013 303.537 169.912C303.795 165.002 300.169 163.749 300.827 159.384C301.677 153.736 308.528 150.644 309.628 150.147C314.038 148.158 321.013 147.232 325.553 150.748Z" fill="#002BFF"/>
<path d="M318.577 149.464C318.577 149.464 318.347 139.861 326.211 140.979C334.074 142.1 328.363 151.118 322.895 152.764C317.426 154.411 318.577 149.464 318.577 149.464Z" fill="#002BFF"/>
<path d="M327.024 178.327C328.323 178.427 329.565 178.91 330.575 179.733C333.176 181.858 337.799 186.453 339.703 193.48C343.257 206.604 345.384 242.546 338.39 260.411C337.904 261.65 336.415 262.147 335.293 261.428C324.581 254.097 332.909 249.638 305.227 235.681C307.105 220.271 297.379 205.452 301.468 195.09C303.025 191.145 305.529 185.812 308.984 182.5C314.296 177.409 323.293 178.041 327.024 178.327Z" fill="white"/>
<path d="M335.498 261.113C335.934 261.39 336.464 261.458 336.955 261.299C337.452 261.137 337.848 260.765 338.04 260.275C345.029 242.425 342.824 206.441 339.34 193.579C337.462 186.648 332.894 182.113 330.337 180.025C329.394 179.255 328.238 178.798 326.995 178.702C323.575 178.441 314.488 177.745 309.244 182.772C306.564 185.341 304.065 189.533 301.816 195.228C299.736 200.505 301.362 207.176 303.086 214.238C304.672 220.733 306.468 228.087 305.629 235.464C323.134 244.321 326.162 249.346 328.834 253.781C330.359 256.311 331.675 258.494 335.498 261.113ZM336.423 262.135C335.957 262.135 335.498 262.004 335.096 261.747C335.09 261.744 335.085 261.741 335.08 261.737C331.118 259.026 329.696 256.666 328.192 254.169C325.559 249.8 322.577 244.849 305.057 236.016C304.915 235.945 304.834 235.792 304.853 235.635C305.747 228.307 304.023 221.245 302.355 214.416C300.604 207.235 298.948 200.452 301.118 194.953C303.406 189.156 305.964 184.873 308.723 182.23C314.211 176.97 323.539 177.684 327.051 177.953C328.449 178.06 329.749 178.575 330.812 179.442C333.438 181.587 338.133 186.249 340.066 193.382C343.572 206.327 345.783 242.558 338.74 260.549C338.465 261.249 337.899 261.783 337.187 262.014C336.937 262.096 336.678 262.135 336.423 262.135Z" fill="#002BFF"/>
<path d="M288.687 192.653L285.115 183.268L280.848 183.112L272.33 194.016L271.99 195.379L282.69 215.348L295.91 216.917L295.57 207.783L292.026 192.585L288.687 192.653Z" fill="#002BFF"/>
<path d="M285.116 183.268L278.873 192.244L288.755 192.448L285.116 183.268Z" fill="white"/>
<path d="M279.582 191.884L288.198 192.061L285.024 184.057L279.582 191.884ZM288.755 192.824C288.752 192.824 288.75 192.824 288.747 192.824L278.865 192.62C278.727 192.617 278.601 192.539 278.538 192.415C278.475 192.292 278.486 192.144 278.564 192.03L284.808 183.054C284.886 182.94 285.021 182.876 285.158 182.895C285.296 182.912 285.415 183.002 285.466 183.129L289.104 192.311C289.152 192.426 289.136 192.559 289.063 192.663C288.994 192.765 288.878 192.824 288.755 192.824Z" fill="#002BFF"/>
<path d="M292.572 194.869C292.409 194.869 292.257 194.762 292.21 194.597L291.742 192.959L277.165 192.824C276.957 192.823 276.791 192.653 276.792 192.445C276.794 192.239 276.962 192.073 277.168 192.073C277.17 192.073 277.172 192.073 277.172 192.073L292.03 192.209C292.196 192.211 292.342 192.321 292.388 192.483L292.932 194.39C292.99 194.591 292.875 194.798 292.676 194.856C292.64 194.864 292.606 194.869 292.572 194.869Z" fill="#002BFF"/>
<path d="M296.524 217.292C296.511 217.292 296.497 217.291 296.482 217.289L282.647 215.721C282.523 215.708 282.414 215.633 282.357 215.523L272.024 195.767C271.65 195.051 271.728 194.179 272.223 193.542L281.507 181.587C281.634 181.422 281.87 181.393 282.034 181.521C282.198 181.647 282.227 181.883 282.1 182.048L272.816 194.002C272.502 194.407 272.451 194.963 272.689 195.418L282.929 214.997L296.567 216.543C296.773 216.566 296.92 216.752 296.898 216.957C296.876 217.149 296.713 217.292 296.524 217.292Z" fill="#002BFF"/>
<path d="M289.488 196.185C289.406 196.185 289.325 196.16 289.255 196.105C289.094 195.976 289.065 195.74 289.194 195.578L291.73 192.353C291.859 192.19 292.096 192.163 292.259 192.29C292.422 192.418 292.449 192.654 292.322 192.817L289.784 196.042C289.709 196.136 289.6 196.185 289.488 196.185Z" fill="#002BFF"/>
<path d="M334.509 208.078C334.509 208.078 327.476 210.043 321.196 206.761L321.06 217.393C321.06 217.393 305.356 212.522 301.265 209.661C297.177 206.798 300.222 196.806 292.572 194.494C292.572 194.494 294.207 199.128 293.525 199.674C292.844 200.218 290.799 200.491 288.481 198.992C286.164 197.492 281.94 195.447 279.077 196.129C276.214 196.811 280.65 207.823 287.528 210.169C296.259 213.146 311.661 232.791 324.154 236.189C327.218 237.022 330.407 235.577 331.767 232.709C332.508 231.149 333.168 229.01 333.463 226.117C334.235 218.574 334.509 208.078 334.509 208.078Z" fill="white"/>
<path d="M280.318 196.369C279.91 196.369 279.524 196.409 279.164 196.494C278.803 196.581 278.605 196.95 278.574 197.594C278.431 200.588 282.256 207.975 287.65 209.812C291.567 211.148 296.82 215.795 302.381 220.713C309.397 226.916 317.348 233.949 324.253 235.826C327.136 236.609 330.154 235.232 331.429 232.548C332.274 230.768 332.833 228.59 333.09 226.078C333.758 219.56 334.054 210.723 334.118 208.561C332.447 208.935 326.864 209.88 321.564 207.364L321.436 217.398C321.434 217.517 321.377 217.627 321.28 217.697C321.185 217.767 321.062 217.787 320.948 217.751C320.304 217.552 305.14 212.831 301.05 209.969C299.244 208.704 298.751 206.229 298.231 203.607C297.544 200.155 296.835 196.591 293.179 195.106C293.864 197.171 294.416 199.442 293.76 199.966C292.932 200.631 290.683 200.863 288.278 199.306C286.045 197.861 282.814 196.369 280.318 196.369ZM325.885 236.796C325.28 236.796 324.664 236.718 324.056 236.552C316.982 234.627 308.96 227.533 301.883 221.275C296.38 216.408 291.181 211.811 287.407 210.525C281.608 208.547 277.668 200.826 277.823 197.559C277.887 196.222 278.581 195.86 278.99 195.763C281.792 195.094 285.966 196.914 288.686 198.676C290.955 200.144 292.798 199.774 293.291 199.379C293.49 199.048 293.007 196.858 292.216 194.619C292.171 194.485 292.201 194.337 292.3 194.233C292.398 194.131 292.545 194.092 292.681 194.133C297.398 195.559 298.231 199.757 298.967 203.461C299.458 205.929 299.921 208.26 301.482 209.352C305.077 211.869 318.024 216.039 320.69 216.883L320.821 206.756C320.822 206.625 320.89 206.506 321.003 206.438C321.115 206.371 321.254 206.368 321.37 206.428C327.447 209.605 334.339 207.737 334.407 207.716C334.523 207.684 334.645 207.709 334.739 207.782C334.834 207.856 334.887 207.969 334.885 208.088C334.881 208.194 334.603 218.685 333.838 226.154C333.571 228.754 332.989 231.013 332.107 232.871C330.946 235.316 328.496 236.796 325.885 236.796Z" fill="#002BFF"/>
<path d="M305.271 169.794C304.982 169.337 306.352 166.865 306.4 165.964C306.447 165.063 305.743 164.31 305.448 163.363C305.153 162.418 305.482 160.735 305.482 160.735C305.884 149.457 318.172 152.133 318.172 152.133C320.994 152.986 322.657 156.155 323.199 158.263C324.251 162.345 322.313 167.28 322.313 167.28C322.395 167.465 324.409 180.673 324.499 180.844C325.774 183.297 317.218 184.902 314.527 182.432C313.618 181.596 314.782 175.46 314.527 175.454C313.519 175.426 312.283 176.509 311.013 176.171C309.142 175.675 307.731 170.986 307.464 170.637C307.336 170.473 306.899 170.376 306.447 170.272C305.946 170.158 305.424 170.034 305.271 169.794Z" fill="white"/>
<path d="M314.488 175.078C314.505 175.078 314.521 175.078 314.538 175.078C314.641 175.081 314.753 175.134 314.823 175.214C314.99 175.404 314.974 175.607 314.81 177.142C314.675 178.396 314.317 181.728 314.781 182.155C316.746 183.959 322.033 183.405 323.758 182.082C324.445 181.555 324.241 181.164 324.165 181.018C324.11 180.909 324.092 180.873 322.975 173.757C322.528 170.904 322.019 167.676 321.955 167.392C321.929 167.311 321.931 167.222 321.963 167.142C321.982 167.093 323.845 162.27 322.835 158.358C322.376 156.577 320.855 153.337 318.063 152.493C318.036 152.488 312.358 151.298 308.786 154.076C306.95 155.504 305.964 157.748 305.857 160.749C305.857 160.769 305.856 160.788 305.851 160.806C305.766 161.25 305.589 162.552 305.806 163.253C305.908 163.581 306.073 163.899 306.231 164.205C306.515 164.756 306.809 165.325 306.774 165.985C306.75 166.45 306.461 167.175 306.155 167.94C305.93 168.506 305.594 169.347 305.606 169.609C305.743 169.726 306.291 169.852 306.531 169.907C307.117 170.041 307.554 170.139 307.761 170.41C307.846 170.52 307.926 170.712 308.142 171.253C308.645 172.514 309.827 175.467 311.11 175.809C311.733 175.974 312.392 175.715 313.028 175.464C313.533 175.265 314.011 175.078 314.488 175.078ZM318.849 184.034C317.055 184.034 315.296 183.646 314.272 182.708C313.584 182.075 313.761 179.874 314.062 177.062C314.107 176.633 314.158 176.168 314.179 175.867C313.912 175.925 313.614 176.042 313.303 176.163C312.588 176.445 311.778 176.763 310.917 176.535C309.269 176.098 308.081 173.126 307.443 171.532C307.33 171.248 307.202 170.925 307.158 170.859C307.086 170.804 306.672 170.709 306.396 170.646C305.677 170.481 305.176 170.343 304.955 169.995C304.703 169.599 304.955 168.922 305.458 167.661C305.715 167.018 306.005 166.287 306.024 165.946C306.048 165.488 305.823 165.053 305.563 164.55C305.39 164.215 305.211 163.866 305.089 163.475C304.788 162.513 305.062 160.937 305.108 160.693C305.228 157.473 306.311 155.047 308.327 153.481C312.181 150.487 318.006 151.713 318.252 151.766C321.392 152.714 323.065 156.237 323.563 158.17C324.561 162.037 322.988 166.546 322.703 167.311C322.781 167.705 322.987 168.989 323.718 173.641C324.183 176.613 324.761 180.294 324.851 180.708C325.186 181.395 324.957 182.111 324.216 182.679C323.158 183.49 320.979 184.034 318.849 184.034Z" fill="#002BFF"/>
<path d="M303.974 154.501C305.208 153.25 306.831 151.683 311.741 150.992C315.824 150.419 313.759 150.079 316.849 150.591C317.718 150.734 319.27 150.989 320.802 152.111C323.073 153.772 323.916 156.103 324.365 157.842C325.241 161.237 324.144 165.192 323.651 166.69C323.529 167.059 323.17 167.292 322.784 167.26C321.752 167.173 320.843 167.037 320.028 166.862C319.643 166.78 319.423 166.374 319.571 166.008C319.612 165.908 319.648 165.804 319.678 165.697C320.086 164.266 319.401 162.816 318.147 162.459C316.894 162.102 315.547 162.972 315.141 164.404C315.112 164.504 315.09 164.603 315.071 164.703C313.269 163.338 312.343 161.791 310.677 160.961C310.476 160.861 309.599 160.461 308.264 160.414C305.366 160.312 304.402 162.029 303.032 161.696C300.638 161.116 301.753 156.75 303.974 154.501Z" fill="#002BFF"/>
<path d="M314.232 175.829C314.072 175.829 313.924 175.727 313.875 175.568C313.812 175.369 313.922 175.158 314.119 175.095C318.072 173.852 318.677 171.368 318.701 171.265C318.747 171.062 318.946 170.932 319.15 170.979C319.352 171.023 319.48 171.222 319.435 171.425C319.41 171.547 318.74 174.43 314.346 175.812C314.308 175.824 314.269 175.829 314.232 175.829Z" fill="#002BFF"/>
<path d="M45.5444 360.068H109.248C113.762 360.068 117.422 356.408 117.422 351.895V306.547C117.422 302.032 113.762 298.374 109.248 298.374H45.5444C41.0302 298.374 37.3706 302.032 37.3706 306.547V351.895C37.3706 356.408 41.0302 360.068 45.5444 360.068Z" fill="white"/>
<path d="M45.5445 298.75C41.2447 298.75 37.7464 302.247 37.7464 306.548V351.895C37.7464 356.194 41.2447 359.693 45.5445 359.693H109.248C113.548 359.693 117.046 356.194 117.046 351.895V306.548C117.046 302.247 113.548 298.75 109.248 298.75H45.5445ZM109.248 360.444H45.5445C40.8302 360.444 36.9949 356.609 36.9949 351.895V306.548C36.9949 301.833 40.8302 297.997 45.5445 297.997H109.248C113.963 297.997 117.798 301.833 117.798 306.548V351.895C117.798 356.609 113.963 360.444 109.248 360.444Z" fill="#002BFF"/>
<path d="M38.8059 308.626H115.937C117.355 308.626 118.505 307.475 118.505 306.058V300.927C118.505 299.508 117.355 298.359 115.937 298.359H38.8059C37.3874 298.359 36.2375 299.508 36.2375 300.927V306.058C36.2375 307.475 37.3874 308.626 38.8059 308.626Z" fill="white"/>
<path d="M116.575 309.002H38.1672C36.8961 309.002 35.8618 307.889 35.8618 306.522V300.463C35.8618 299.095 36.8961 297.983 38.1672 297.983H86.4081C86.6157 297.983 86.784 298.151 86.784 298.359C86.784 298.566 86.6157 298.734 86.4081 298.734H38.1672C37.3104 298.734 36.6136 299.51 36.6136 300.463V306.522C36.6136 307.474 37.3104 308.251 38.1672 308.251H116.575C116.783 308.251 116.951 308.419 116.951 308.627C116.951 308.834 116.783 309.002 116.575 309.002Z" fill="#002BFF"/>
<path d="M65.8885 358.698C65.8865 358.698 65.8844 358.698 65.8824 358.698C65.6748 358.695 65.5093 358.525 65.5125 358.318L66.2654 310.469C66.2688 310.262 66.4471 310.092 66.6471 310.099C66.8546 310.102 67.0204 310.272 67.017 310.48L66.2642 358.33C66.2608 358.535 66.0932 358.698 65.8885 358.698Z" fill="#002BFF"/>
<path d="M112.664 350.29C113.436 349.51 117.893 335.645 117.893 335.645L126.7 341.929L117.044 354.905L112.664 350.29Z" fill="white"/>
<path d="M113.136 350.241L117.009 354.322L126.169 342.013L118.093 336.25C117.152 339.164 114.163 348.316 113.136 350.241ZM117.044 355.281C116.942 355.281 116.843 355.239 116.772 355.164L112.391 350.548C112.252 350.402 112.254 350.173 112.396 350.028C112.943 349.408 115.838 340.808 117.535 335.531C117.571 335.415 117.66 335.327 117.774 335.288C117.888 335.25 118.013 335.269 118.111 335.339L126.918 341.624C127 341.681 127.056 341.771 127.071 341.87C127.087 341.97 127.062 342.072 127.001 342.154L117.346 355.13C117.279 355.218 117.177 355.274 117.067 355.281C117.059 355.281 117.052 355.281 117.044 355.281Z" fill="#002BFF"/>
<path d="M128.535 367.821L122.678 367.787C118.803 367.763 115.199 365.794 113.086 362.547L107.294 353.377C105.694 350.843 106.589 347.487 109.236 346.079C111.653 344.796 114.186 343.543 114.779 343.599C115.984 343.714 116.471 349.415 116.471 349.415L121.689 349.615C121.689 349.615 124.267 360.335 126.535 361.554C128.188 362.442 129.341 363.746 130.117 364.936C130.93 366.182 130.023 367.831 128.535 367.821Z" fill="#002BFF"/>
<path d="M127.947 365.91C127.928 365.91 127.909 365.908 127.89 365.906L119.879 364.699C117.964 364.41 116.295 363.292 115.3 361.631L108.221 349.804C108.115 349.625 108.173 349.396 108.351 349.289C108.53 349.183 108.76 349.239 108.866 349.418L115.945 361.245C116.824 362.712 118.298 363.701 119.991 363.956L128.002 365.162C128.207 365.194 128.349 365.385 128.318 365.59C128.29 365.776 128.13 365.91 127.947 365.91Z" fill="white"/>
<path d="M118.058 357.015C117.892 357.015 117.741 356.906 117.695 356.738C117.641 356.539 117.759 356.332 117.959 356.277L122.422 355.062C122.623 355.006 122.829 355.125 122.884 355.326C122.938 355.526 122.82 355.732 122.62 355.788L118.157 357.003C118.123 357.012 118.09 357.015 118.058 357.015Z" fill="white"/>
<path d="M120.382 359.309C120.213 359.309 120.06 359.193 120.018 359.021C119.968 358.821 120.092 358.617 120.293 358.568L123.286 357.835C123.487 357.787 123.691 357.91 123.74 358.112C123.79 358.313 123.666 358.517 123.465 358.566L120.472 359.298C120.442 359.305 120.412 359.309 120.382 359.309Z" fill="white"/>
<path d="M88.591 275.754C88.591 275.754 135.323 270.314 149.219 282.343C163.115 294.372 127.283 346.1 127.283 346.1L115.951 337.695L126.7 301.135L83.5012 288.866L88.591 275.754Z" fill="white"/>
<path d="M116.386 337.55L127.193 345.564C130.17 341.187 161.896 293.813 148.973 282.627C135.849 271.266 92.3888 275.718 88.859 276.1L84.001 288.618L126.803 300.773C126.899 300.801 126.98 300.864 127.029 300.953C127.077 301.041 127.089 301.145 127.06 301.24L116.386 337.55ZM127.283 346.475C127.202 346.475 127.124 346.45 127.059 346.4L115.727 337.997C115.601 337.904 115.546 337.741 115.59 337.589L126.232 301.393L83.3986 289.228C83.2969 289.199 83.2121 289.129 83.165 289.034C83.1177 288.939 83.1126 288.828 83.151 288.731L88.2407 275.616C88.2908 275.487 88.4091 275.395 88.5475 275.38C90.4627 275.157 135.603 270.059 149.464 282.059C155.375 287.174 153.468 299.569 143.798 318.9C136.648 333.193 127.681 346.183 127.592 346.312C127.534 346.397 127.444 346.453 127.344 346.47C127.323 346.474 127.303 346.475 127.283 346.475Z" fill="#002BFF"/>
<path d="M149.503 207.4L137.328 213.972C137.328 213.972 129.866 233.434 119.183 234.607C108.5 235.778 97.9333 221.003 97.9333 221.003L90.8423 236.174C90.8423 236.174 101.255 252.275 117.767 249.679C134.279 247.085 138.78 222.28 138.78 222.28C138.772 222.297 142.688 222.668 144.163 218.855C145.42 215.608 144.895 213.697 144.895 213.697C144.895 213.697 150.761 210.565 149.503 207.4Z" fill="white"/>
<path d="M91.273 236.14C92.4528 237.849 102.542 251.695 117.709 249.309C133.766 246.786 138.365 222.459 138.41 222.212C138.438 222.056 138.562 221.935 138.719 221.91C138.763 221.903 138.808 221.903 138.852 221.911C139.04 221.928 142.486 222.148 143.813 218.719C145 215.65 144.537 213.812 144.532 213.795C144.487 213.627 144.564 213.449 144.718 213.365C144.771 213.338 149.75 210.64 149.272 207.953L137.629 214.237C136.899 216.094 129.668 233.835 119.224 234.981C109.465 236.045 100.021 224.392 98.0069 221.733L91.273 236.14ZM114.215 250.335C99.7334 250.335 90.6243 236.53 90.5267 236.378C90.4564 236.269 90.4472 236.133 90.5019 236.016L97.5931 220.844C97.6497 220.723 97.7662 220.641 97.8991 220.629C98.0331 220.616 98.1614 220.675 98.2393 220.784C98.3437 220.93 108.805 235.375 119.142 234.233C129.477 233.099 136.904 214.03 136.978 213.838C137.01 213.753 137.071 213.683 137.15 213.641L149.325 207.07C149.418 207.019 149.531 207.009 149.631 207.046C149.733 207.084 149.813 207.162 149.852 207.262C151.077 210.344 146.462 213.233 145.316 213.892C145.418 214.567 145.532 216.359 144.514 218.991C143.447 221.746 141.174 222.445 139.915 222.617C139.553 222.666 139.282 222.676 139.084 222.68C138.799 224.058 137.562 229.527 134.803 235.171C130.574 243.824 124.704 248.97 117.826 250.051C116.588 250.245 115.384 250.335 114.215 250.335Z" fill="#002BFF"/>
<path d="M138.432 220.584C138.272 220.584 138.124 220.482 138.073 220.32C138.012 220.121 138.123 219.912 138.321 219.849C138.342 219.842 140.369 219.193 140.595 217.559C140.751 216.43 141.404 215.577 141.923 215.06C142.385 214.6 142.648 213.991 142.669 213.338L139.079 214.77C138.886 214.848 138.668 214.753 138.591 214.56C138.514 214.367 138.608 214.149 138.801 214.071L142.907 212.434C143.023 212.388 143.153 212.403 143.257 212.473C143.36 212.543 143.422 212.658 143.422 212.784V213.255C143.422 214.141 143.078 214.972 142.454 215.592C142.016 216.029 141.467 216.742 141.34 217.663C141.048 219.774 138.645 220.536 138.543 220.568C138.506 220.579 138.469 220.584 138.432 220.584Z" fill="#002BFF"/>
<path d="M41.9517 246.524C41.9517 246.524 42.886 237.604 43.4803 231.698C44.7997 218.591 59.6857 214.261 59.6857 214.261L59.7012 214.35C59.7768 214.329 59.8498 214.305 59.9271 214.287C65.2814 213.029 67.5151 213.012 86.9777 213.717C87.3991 213.733 87.8275 213.795 88.2586 213.896C97.2725 214.924 107.497 227.802 107.497 227.802C117.293 231.793 125.836 228.808 133.658 221.796L138 225.976C133.15 250.216 118.252 255.896 94.5996 245.404C94.6935 252.958 96.3772 261.436 101.644 268.998C103.373 271.48 105.723 274.201 108.949 276.811C107.136 278.278 98.7781 277.442 94.9959 278.565C88.7164 280.43 89.7637 279.058 84.7033 279.21C71.3171 279.607 67.7459 296.616 59.0999 294.743C56.7915 294.243 53.7315 292.442 50.8627 286.402C49.2368 281.394 47.7898 275.512 46.9843 268.865C45.9941 260.697 46.1896 253.152 46.994 246.463L41.9517 246.524Z" fill="#002BFF"/>
<path d="M61.7703 250.101C58.7146 271.167 47.6469 275.125 38.7727 271.167C30.8924 264.092 36.2508 241.577 42.6324 232.41C43.2616 234.478 48.9581 241.255 48.7437 246.508C48.4398 253.956 50.0303 257.123 53.7829 249.618L61.7703 250.101Z" fill="#002BFF"/>
<path d="M116.386 244.751C119.183 245.925 121.579 247.634 123.527 249.71C124.959 251.236 127.166 251.746 129.129 250.923C136.067 248.015 144.034 247.923 151.201 251.338C164.886 257.861 167.917 273.824 161.126 288.072C154.336 302.319 140.295 309.458 126.61 302.935C121.131 300.324 116.949 296.058 114.341 290.967C113.243 288.823 111.009 287.587 108.62 287.781C105.035 288.072 101.359 287.458 97.917 285.818C86.9876 280.609 80.9318 269.368 88.3022 255.729C97.5509 238.612 105.958 240.368 116.386 244.751Z" fill="#002BFF"/>
<path d="M116.296 241.956C119.093 243.131 121.489 244.839 123.437 246.915C124.869 248.441 127.076 248.951 129.038 248.129C135.977 245.22 143.944 245.128 151.112 248.545C164.797 255.066 167.828 271.029 161.036 285.277C154.246 299.525 140.205 306.663 126.52 300.14C121.041 297.529 116.859 293.263 114.251 288.172C113.153 286.03 110.919 284.792 108.529 284.986C104.945 285.277 101.269 284.665 97.827 283.024C86.8975 277.814 80.8417 266.575 88.2121 252.935C97.4608 235.817 105.868 237.573 116.296 241.956Z" fill="white"/>
<path d="M109.013 284.592C111.355 284.592 113.504 285.891 114.585 288C117.262 293.224 121.445 297.304 126.682 299.802C139.644 305.978 153.631 299.941 160.698 285.115C167.805 270.201 163.707 254.964 150.95 248.883C144.187 245.66 136.253 245.512 129.184 248.475C127.092 249.353 124.728 248.841 123.163 247.171C121.186 245.065 118.827 243.428 116.15 242.303C110.504 239.929 106.151 238.675 101.904 239.747C97.0528 240.973 92.8071 245.22 88.5428 253.113C85.323 259.071 84.5233 264.986 86.2298 270.217C87.9393 275.458 92.1154 279.885 97.9885 282.684C101.249 284.238 104.883 284.906 108.499 284.612C108.671 284.599 108.843 284.592 109.013 284.592ZM136.905 302.964C133.381 302.964 129.831 302.134 126.358 300.48C120.971 297.911 116.668 293.716 113.916 288.344C112.895 286.351 110.791 285.177 108.56 285.362C104.812 285.666 101.045 284.974 97.6653 283.363C91.6042 280.474 87.2892 275.888 85.5153 270.45C83.7434 265.018 84.5614 258.9 87.8813 252.756C97.3236 235.28 106.035 237.237 116.441 241.609C119.216 242.775 121.662 244.473 123.711 246.658C125.06 248.094 127.094 248.537 128.893 247.782C136.16 244.735 144.317 244.89 151.273 248.205C164.422 254.473 168.671 270.132 161.376 285.438C157.978 292.57 152.701 298.039 146.518 300.84C143.393 302.257 140.161 302.964 136.905 302.964Z" fill="#002BFF"/>
<path d="M103.781 264.153L107.311 256.586L50.4625 230.068L46.9331 237.633L103.781 264.153Z" fill="white"/>
<path d="M53.4247 231.548L49.5357 227.297L35.3357 223.23C32.165 224.703 31.1173 227.417 31.5554 231.004L44.289 239.083L49.8873 238.688L53.4247 231.548Z" fill="white"/>
<path d="M31.9083 230.784L44.3861 238.7L49.6462 238.328L52.9735 231.611L49.3302 227.628L35.3684 223.632C32.6595 224.942 31.5261 227.285 31.9083 230.784ZM44.289 239.459C44.218 239.459 44.1481 239.438 44.0877 239.401L31.3542 231.321C31.2592 231.261 31.1961 231.161 31.1824 231.05C30.6984 227.089 32.0426 224.346 35.1775 222.89C35.2591 222.851 35.352 222.843 35.4392 222.87L49.6392 226.936C49.7059 226.955 49.7662 226.993 49.813 227.044L53.7019 231.295C53.8066 231.409 53.8302 231.576 53.7614 231.715L50.224 238.855C50.1649 238.974 50.0467 239.054 49.9136 239.063L44.3155 239.459C44.3067 239.459 44.2979 239.459 44.289 239.459Z" fill="#002BFF"/>
<path d="M33.526 234.372C33.821 234.02 33.7753 233.497 33.4237 233.201L33.3311 233.124C32.9797 232.829 32.4556 232.874 32.1604 233.226C31.8655 233.578 31.9114 234.102 32.2629 234.398L32.3554 234.474C32.707 234.77 33.2311 234.724 33.526 234.372Z" fill="#002BFF"/>
<path d="M32.5977 233.495L33.0893 233.91L35.0245 231.615L34.5327 231.2L32.5977 233.495Z" fill="#002BFF"/>
<path d="M36.6928 236.768C36.9877 236.416 36.9418 235.89 36.5903 235.596L36.4978 235.518C36.1462 235.224 35.6223 235.27 35.3272 235.62C35.0322 235.972 35.0781 236.497 35.4297 236.791L35.5222 236.87C35.8737 237.164 36.3978 237.118 36.6928 236.768Z" fill="#002BFF"/>
<path d="M35.7644 235.889L36.256 236.304L38.1913 234.008L37.6995 233.594L35.7644 235.889Z" fill="#002BFF"/>
<path d="M40.1791 239.62C40.4741 239.268 40.4282 238.745 40.0766 238.449L39.9841 238.372C39.6326 238.076 39.1085 238.122 38.8135 238.474C38.5186 238.826 38.5645 239.35 38.916 239.644L39.0085 239.722C39.3601 240.018 39.8842 239.972 40.1791 239.62Z" fill="white"/>
<path d="M39.2505 238.743L39.7423 239.156L41.6776 236.863L41.1858 236.448L39.2505 238.743Z" fill="white"/>
<path d="M39.5255 221.845C39.3614 222.275 38.8812 222.489 38.4524 222.324L38.3397 222.282C37.911 222.119 37.6966 221.638 37.8605 221.209C38.0243 220.781 38.5048 220.566 38.9334 220.73L39.0462 220.772C39.4748 220.937 39.6894 221.417 39.5255 221.845Z" fill="#002BFF"/>
<path d="M38.3073 221.454L38.9087 221.688L37.8432 224.495L37.2417 224.261L38.3073 221.454Z" fill="#002BFF"/>
<path d="M43.5996 223.147C43.4356 223.577 42.9553 223.791 42.5266 223.627L42.4139 223.584C41.9853 223.421 41.7708 222.94 41.9347 222.511C42.0985 222.083 42.579 221.869 43.0075 222.032L43.1202 222.075C43.549 222.239 43.7635 222.719 43.5996 223.147Z" fill="#002BFF"/>
<path d="M42.3814 222.763L42.9827 222.991L41.9171 225.797L41.3157 225.57L42.3814 222.763Z" fill="#002BFF"/>
<path d="M48.4894 224.575C48.3253 225.004 47.8449 225.219 47.4163 225.055L47.3035 225.012C46.8749 224.847 46.6604 224.368 46.8244 223.939C46.9883 223.509 47.4687 223.295 47.8973 223.46L48.0102 223.502C48.4387 223.666 48.6533 224.147 48.4894 224.575Z" fill="white"/>
<path d="M47.2711 224.191L47.8724 224.419L46.8068 227.226L46.2053 226.996L47.2711 224.191Z" fill="white"/>
<path d="M107.476 253.227C105.222 253.227 103.081 254.056 101.408 255.588C99.6332 257.212 98.5971 259.428 98.4902 261.832C98.2693 266.791 102.125 271.007 107.085 271.228C112.049 271.449 116.26 267.592 116.481 262.631C116.588 260.229 115.753 257.929 114.129 256.154C112.506 254.379 110.289 253.342 107.886 253.237C107.749 253.23 107.612 253.227 107.476 253.227ZM107.49 271.988C107.345 271.988 107.199 271.985 107.052 271.978C101.678 271.738 97.5001 267.172 97.7393 261.798C97.855 259.194 98.9777 256.792 100.901 255.034C102.823 253.274 105.316 252.367 107.919 252.486C110.522 252.601 112.925 253.723 114.684 255.646C116.443 257.569 117.348 260.063 117.232 262.665C116.999 267.893 112.672 271.988 107.49 271.988Z" fill="#002BFF"/>
<path d="M99.1809 261.967C98.9794 266.492 102.486 270.326 107.012 270.526C111.538 270.729 115.371 267.221 115.572 262.696C115.774 258.169 112.268 254.337 107.741 254.135C103.215 253.934 99.3823 257.44 99.1809 261.967Z" fill="#002BFF"/>
<path d="M141.543 273.945C141.489 273.945 141.434 273.933 141.382 273.907L115.342 261.545C115.155 261.456 115.075 261.232 115.164 261.045C115.253 260.856 115.478 260.778 115.665 260.867L141.704 273.229C141.892 273.317 141.972 273.542 141.883 273.729C141.819 273.865 141.684 273.945 141.543 273.945Z" fill="#002BFF"/>
<path d="M115.504 261.582C115.449 261.582 115.395 261.57 115.343 261.545L103.387 255.87C103.2 255.78 103.12 255.558 103.209 255.369C103.298 255.182 103.522 255.102 103.71 255.19L115.665 260.867C115.852 260.957 115.932 261.179 115.843 261.368C115.779 261.502 115.644 261.582 115.504 261.582Z" fill="white"/>
<path d="M103.548 255.906C103.494 255.906 103.439 255.894 103.388 255.871L45.8459 228.553C45.6584 228.463 45.5785 228.239 45.6674 228.052C45.7563 227.865 45.9809 227.785 46.1681 227.873L103.71 255.191C103.897 255.281 103.977 255.505 103.888 255.692C103.824 255.828 103.689 255.906 103.548 255.906Z" fill="#002BFF"/>
<path d="M141.443 276.194C141.389 276.194 141.333 276.182 141.281 276.157L115.202 263.713C115.014 263.622 114.935 263.398 115.024 263.211C115.114 263.024 115.338 262.944 115.525 263.034L141.605 275.478C141.792 275.568 141.872 275.793 141.782 275.98C141.718 276.114 141.583 276.194 141.443 276.194Z" fill="#002BFF"/>
<path d="M115.363 263.748C115.309 263.748 115.254 263.736 115.201 263.712L101.554 257.2C101.367 257.111 101.287 256.885 101.377 256.698C101.466 256.511 101.69 256.431 101.878 256.521L115.525 263.034C115.713 263.123 115.792 263.347 115.702 263.534C115.638 263.67 115.503 263.748 115.363 263.748Z" fill="white"/>
<path d="M101.716 257.237C101.662 257.237 101.607 257.225 101.554 257.2L41.4463 228.517C41.259 228.429 41.1798 228.205 41.2692 228.016C41.3586 227.829 41.5828 227.751 41.7702 227.839L101.878 256.521C102.065 256.612 102.144 256.836 102.055 257.023C101.991 257.157 101.856 257.237 101.716 257.237Z" fill="#002BFF"/>
<path d="M140.729 277.771C140.675 277.771 140.619 277.759 140.567 277.734L114.701 265.38C114.514 265.29 114.434 265.066 114.524 264.879C114.613 264.692 114.838 264.612 115.025 264.702L140.891 277.056C141.078 277.146 141.158 277.37 141.068 277.557C141.004 277.693 140.869 277.771 140.729 277.771Z" fill="#002BFF"/>
<path d="M114.863 265.417C114.809 265.417 114.753 265.406 114.701 265.38L100.334 258.519C100.147 258.429 100.067 258.205 100.157 258.018C100.246 257.831 100.471 257.751 100.658 257.841L115.025 264.702C115.212 264.792 115.292 265.016 115.202 265.203C115.138 265.338 115.003 265.417 114.863 265.417Z" fill="white"/>
<path d="M100.496 258.555C100.442 258.555 100.386 258.543 100.334 258.519L36.0052 227.793C35.818 227.703 35.7386 227.479 35.828 227.292C35.9174 227.103 36.142 227.025 36.3292 227.113L100.658 257.841C100.845 257.929 100.925 258.153 100.835 258.34C100.771 258.476 100.636 258.555 100.496 258.555Z" fill="#002BFF"/>
<path d="M140.307 280.007C140.253 280.007 140.198 279.995 140.146 279.97L113.876 267.461C113.689 267.371 113.61 267.146 113.699 266.959C113.788 266.771 114.012 266.694 114.2 266.781L140.469 279.291C140.656 279.381 140.736 279.606 140.647 279.793C140.582 279.927 140.448 280.007 140.307 280.007Z" fill="#002BFF"/>
<path d="M114.038 267.497C113.983 267.497 113.929 267.485 113.876 267.461L99.6894 260.704C99.502 260.615 99.4225 260.391 99.5117 260.204C99.6011 260.015 99.8254 259.937 100.013 260.025L114.199 266.781C114.387 266.871 114.466 267.095 114.377 267.282C114.313 267.417 114.178 267.497 114.038 267.497Z" fill="white"/>
<path d="M99.8511 260.741C99.7968 260.741 99.7419 260.729 99.6896 260.704L39.4662 232.024C39.2789 231.936 39.1993 231.712 39.2886 231.523C39.3776 231.336 39.602 231.258 39.7895 231.346L100.013 260.025C100.2 260.115 100.28 260.34 100.191 260.527C100.126 260.661 99.9915 260.741 99.8511 260.741Z" fill="#002BFF"/>
<path d="M138.615 281.863C138.56 281.863 138.504 281.851 138.452 281.826L111.991 269.04C111.804 268.95 111.726 268.726 111.816 268.539C111.906 268.352 112.13 268.272 112.318 268.364L138.779 281.149C138.965 281.24 139.044 281.464 138.954 281.651C138.889 281.785 138.755 281.863 138.615 281.863Z" fill="#002BFF"/>
<path d="M112.154 269.078C112.099 269.078 112.043 269.066 111.991 269.04L99.2518 262.885C99.065 262.795 98.9864 262.57 99.0769 262.383C99.167 262.196 99.3915 262.118 99.5787 262.208L112.318 268.364C112.505 268.454 112.583 268.678 112.493 268.865C112.428 268.999 112.294 269.078 112.154 269.078Z" fill="white"/>
<path d="M99.415 262.922C99.3602 262.922 99.3045 262.91 99.2518 262.885L42.7927 235.606C42.6059 235.516 42.5275 235.292 42.6178 235.105C42.7079 234.918 42.9328 234.84 43.1196 234.93L99.5787 262.208C99.7655 262.298 99.8439 262.524 99.7536 262.709C99.6888 262.844 99.5547 262.922 99.415 262.922Z" fill="#002BFF"/>
<path d="M133.101 290.246L135.674 291.319L139.653 286.753L147.241 270.257L147.227 263.611L144.654 262.538L133.101 290.246Z" fill="#002BFF"/>
<path d="M48.8428 238.92L50.1514 239.539L53.9938 231.402L52.685 230.784L48.8428 238.92Z" fill="white"/>
<path d="M49.3432 238.741L49.9724 239.037L53.4937 231.583L52.8644 231.285L49.3432 238.741ZM50.1514 239.914C50.0977 239.914 50.0429 239.902 49.9911 239.878L48.6823 239.26C48.5922 239.217 48.5226 239.141 48.4891 239.047C48.4555 238.954 48.4604 238.85 48.5031 238.76L52.3454 230.624C52.4341 230.437 52.658 230.357 52.8457 230.444L54.1545 231.062C54.2446 231.105 54.3142 231.181 54.3477 231.275C54.3813 231.37 54.3764 231.472 54.3339 231.562L50.4914 239.698C50.4273 239.834 50.2923 239.914 50.1514 239.914Z" fill="#002BFF"/>
<path d="M61.6095 251.333L67.7074 243.426C67.5422 242.157 67.1867 241.086 65.7969 241.805L63.5652 242.541V235.465C63.5652 234.275 62.7943 234.087 61.8637 234.607L58.0377 240.718C57.1635 240.055 56.3502 239.979 55.5887 240.826L53.7744 249.618L61.6095 251.333Z" fill="white"/>
<path d="M54.2175 249.33L61.4574 250.915L67.3139 243.321C67.2565 242.92 67.1179 242.168 66.783 241.993C66.5634 241.879 66.2198 242.009 65.9698 242.138C65.9521 242.148 65.9337 242.155 65.9148 242.162L63.6831 242.898C63.5687 242.937 63.443 242.916 63.345 242.847C63.2472 242.775 63.1894 242.661 63.1894 242.541V235.465C63.1894 235.1 63.1054 234.848 62.9526 234.76C62.7853 234.661 62.4815 234.71 62.1293 234.891L58.3563 240.919C58.3002 241.007 58.2091 241.07 58.1052 241.089C58.0023 241.108 57.8946 241.082 57.8103 241.017C57.0541 240.443 56.4883 240.436 55.9355 241.006L54.2175 249.33ZM61.6096 251.709C61.5829 251.709 61.5559 251.705 61.5292 251.7L53.694 249.985C53.4929 249.941 53.3648 249.744 53.4062 249.541L55.2206 240.751C55.2342 240.684 55.2647 240.625 55.309 240.575C55.845 239.979 56.7192 239.462 57.926 240.19L61.5452 234.408C61.5786 234.355 61.6252 234.309 61.6803 234.279C62.3209 233.922 62.9077 233.862 63.333 234.11C63.6103 234.274 63.9411 234.641 63.9411 235.465V242.022L65.6517 241.456C66.2336 241.162 66.731 241.118 67.1314 241.327C67.7762 241.665 67.9729 242.553 68.0801 243.377C68.0929 243.476 68.066 243.576 68.005 243.656L61.9073 251.563C61.835 251.656 61.7247 251.709 61.6096 251.709Z" fill="#002BFF"/>
<path d="M70.3967 202.545C68.9999 203.249 67.9476 203.351 67.1889 203.306C64.4475 203.148 62.6897 200.94 62.3376 200.496C60.5205 198.213 59.6448 194.461 61.185 192.26C62.2941 190.674 63.6903 191.27 64.9675 189.497C66.4173 187.485 64.931 185.841 66.2684 184.079C67.8084 182.05 71.2018 182.204 71.8119 182.233C73.9058 182.328 74.1552 183.367 76.1347 183.313C78.1553 183.258 78.4227 182.243 80.2774 182.233C81.7506 182.225 83.8984 182.852 84.8604 184.555C86.0678 186.694 84.8331 189.511 83.3994 190.998C81.6784 192.783 80.4664 191.826 78.0558 193.28C73.8784 195.799 74.8767 200.287 70.3967 202.545Z" fill="#002BFF"/>
<path d="M78.1764 212.053L77.0454 205.017C77.2942 204.989 79.3772 204.626 79.6156 204.507C81.5442 203.546 81.0084 198.706 81.0084 198.706L82.0804 197.424L78.8822 190.267C75.4854 193.098 74.2737 190.318 70.9119 191.711C67.5503 193.103 69.3741 196.846 69.3741 196.846C69.3741 196.846 66.6267 195.636 67.2141 198.293C67.6574 200.301 69.1194 200.427 70.0822 200.345L68.2902 212.41C68.2902 212.41 62.5224 214.049 61.4072 214.344C62.8587 214.276 72.895 218.64 84.2782 213.87L78.1764 212.053Z" fill="white"/>
<path d="M63.0356 214.285C63.1027 214.302 63.1718 214.319 63.243 214.338C66.6486 215.2 74.4543 217.173 83.1316 213.921L78.0688 212.413C77.9305 212.373 77.8281 212.255 77.805 212.112L76.6742 205.076C76.6578 204.974 76.6839 204.87 76.7461 204.789C76.8083 204.707 76.9011 204.655 77.0035 204.643C77.2823 204.612 79.209 204.269 79.4555 204.168C80.8356 203.48 80.7751 200.02 80.6347 198.747C80.6234 198.645 80.6544 198.543 80.72 198.465L81.6414 197.363L78.7361 190.861C76.8829 192.246 75.5957 192.032 74.3476 191.823C73.3493 191.656 72.4063 191.498 71.0558 192.058C70.2424 192.394 69.6984 192.911 69.4391 193.593C68.9072 194.99 69.704 196.666 69.7122 196.683C69.7807 196.824 69.7536 196.993 69.6445 197.107C69.5354 197.22 69.3674 197.253 69.2231 197.192C68.8657 197.035 68.0213 196.801 67.6909 197.073C67.4935 197.236 67.4544 197.64 67.581 198.213C67.8719 199.529 68.6578 200.083 70.0505 199.971C70.1645 199.957 70.2776 200.003 70.356 200.088C70.4348 200.172 70.4707 200.287 70.4539 200.399L68.6619 212.464C68.6403 212.611 68.5349 212.731 68.3928 212.772C68.3496 212.784 65.1152 213.702 63.0356 214.285ZM73.0071 216.476C68.6352 216.476 65.0844 215.579 63.0587 215.065C62.302 214.875 61.6438 214.712 61.425 214.72C61.2258 214.727 61.0651 214.591 61.0357 214.402C61.0063 214.212 61.1253 214.03 61.3109 213.981C62.2825 213.724 66.8628 212.425 67.9538 212.114L69.644 200.736C67.7716 200.707 67.0872 199.461 66.847 198.375C66.6506 197.486 66.7744 196.853 67.2147 196.491C67.6458 196.138 68.2631 196.16 68.7535 196.26C68.5347 195.534 68.3314 194.393 68.7352 193.329C69.0701 192.445 69.7542 191.784 70.768 191.364C72.3176 190.721 73.4619 190.913 74.4715 191.082C75.7438 191.294 76.842 191.478 78.6416 189.978C78.732 189.902 78.852 189.875 78.9671 189.9C79.0817 189.927 79.1773 190.006 79.2254 190.113L82.4236 197.271C82.4821 197.402 82.4608 197.555 82.3685 197.666L81.3981 198.825C81.4887 199.798 81.7427 203.867 79.783 204.843C79.5337 204.967 78.1659 205.214 77.4761 205.329L78.5098 211.761L84.3854 213.512C84.5375 213.556 84.645 213.692 84.6535 213.85C84.6618 214.01 84.5698 214.156 84.4233 214.217C80.3414 215.927 76.4234 216.476 73.0071 216.476Z" fill="#002BFF"/>
<path d="M76.2602 205.447C73.3423 205.447 72.008 203.237 71.9478 203.135C71.8427 202.956 71.9026 202.725 72.0816 202.62C72.2608 202.514 72.4904 202.575 72.5955 202.752C72.654 202.851 74.0048 205.052 76.9942 204.644C77.1986 204.617 77.3895 204.76 77.4175 204.966C77.4456 205.171 77.3016 205.362 77.0959 205.389C76.8043 205.43 76.5254 205.447 76.2602 205.447Z" fill="#002BFF"/>
<path d="M142.716 347.645L152.941 357.918L158.362 355.927L148.935 342.785L142.716 347.645Z" fill="white"/>
<path d="M143.281 347.679L153.037 357.483L157.769 355.745L148.859 343.322L143.281 347.679ZM152.941 358.294C152.842 358.294 152.747 358.256 152.674 358.183L142.449 347.91C142.373 347.834 142.334 347.728 142.341 347.621C142.347 347.514 142.4 347.414 142.484 347.349L148.704 342.487C148.784 342.426 148.888 342.399 148.99 342.412C149.09 342.426 149.182 342.482 149.241 342.565L158.666 355.708C158.736 355.805 158.755 355.926 158.721 356.038C158.687 356.15 158.602 356.24 158.491 356.281L153.07 358.272C153.029 358.287 152.985 358.294 152.941 358.294Z" fill="#002BFF"/>
<path d="M149.711 356.311C149.711 356.311 149.216 360.682 150.054 364.545C150.501 366.602 152.356 368.05 154.462 368.05H179.558C181.351 368.05 182.164 365.811 180.79 364.659C176.328 360.92 168.118 355.212 158.027 353.537L155.212 357.476L149.711 356.311Z" fill="#002BFF"/>
<path d="M178.364 364.977H152.356C152.148 364.977 151.98 364.808 151.98 364.599C151.98 364.392 152.148 364.223 152.356 364.223H178.364C178.571 364.223 178.74 364.392 178.74 364.599C178.74 364.808 178.571 364.977 178.364 364.977Z" fill="white"/>
<path d="M163.853 360.356C163.805 360.356 163.756 360.346 163.708 360.327C163.518 360.247 163.426 360.028 163.504 359.836L164.882 356.497C164.961 356.305 165.181 356.215 165.373 356.293C165.565 356.373 165.657 356.592 165.577 356.784L164.2 360.123C164.14 360.267 164.001 360.356 163.853 360.356Z" fill="white"/>
<path d="M168.378 361.233C168.339 361.233 168.3 361.228 168.261 361.214C168.064 361.15 167.957 360.937 168.021 360.74L169.017 357.728C169.084 357.53 169.296 357.422 169.493 357.488C169.691 357.552 169.798 357.767 169.731 357.962L168.735 360.975C168.683 361.134 168.536 361.233 168.378 361.233Z" fill="white"/>
<path d="M63.0988 298.731C69.8869 300.885 82.0327 303.669 99.0089 303.438C103.832 303.372 108.285 306.037 110.477 310.335C115.505 320.195 126.388 337.951 144.116 349.459L152.583 344.898L130.973 296.252C129 291.81 125.31 288.357 120.747 286.684L77.9183 270.98C77.9183 270.98 67.5577 268.551 60.3352 279.986C57.762 284.06 57.2686 296.879 63.0988 298.731Z" fill="white"/>
<path d="M99.1883 303.061C104.129 303.061 108.571 305.77 110.812 310.165C115.699 319.748 126.516 337.509 144.134 349.022L152.097 344.731L130.629 296.403C128.709 292.08 125.06 288.667 120.618 287.038L77.8134 271.342C77.3048 271.235 67.4906 269.36 60.6531 280.187C58.9068 282.951 58.139 289.964 59.8043 294.525C60.562 296.601 61.7088 297.894 63.2126 298.372C70.3495 300.636 82.3502 303.29 99.0039 303.062C99.0654 303.062 99.127 303.061 99.1883 303.061ZM144.116 349.834C144.045 349.834 143.973 349.814 143.912 349.775C126.034 338.169 115.08 320.19 110.142 310.505C108.004 306.313 103.732 303.742 99.0143 303.814C82.2653 304.038 70.1753 301.371 62.985 299.088C61.272 298.545 59.9282 297.056 59.0981 294.782C57.3626 290.028 58.182 282.691 60.0174 279.784C67.2987 268.257 77.8982 270.589 78.0045 270.614C78.0191 270.618 78.0337 270.621 78.048 270.628L120.877 286.333C125.508 288.031 129.314 291.591 131.316 296.099L152.927 344.745C153.007 344.925 152.934 345.136 152.762 345.227L144.294 349.79C144.239 349.819 144.177 349.834 144.116 349.834Z" fill="#002BFF"/>
<path d="M227.069 81.646L237.529 76.4338C246.041 72.1906 253.929 66.8611 261.004 60.5728L263.66 58.2132C265.042 56.9858 267.179 57.0521 268.58 58.3662C276.821 66.1097 286.118 72.6462 296.169 77.7683L303.28 81.391C304.932 82.2325 305.747 84.1433 305.182 85.8501L297.556 124.187C294.006 134.912 278.426 149.399 269.725 156.869C266.356 159.763 261.222 159.504 257.917 156.286C249.522 148.109 234.738 132.371 231.385 119.976L225.287 85.709C224.844 84.0702 225.583 82.3872 227.069 81.646Z" fill="white"/>
<path d="M233.794 86.1985L242.456 81.8822C249.502 78.37 256.034 73.9568 261.892 68.7497L264.09 66.7964C265.234 65.7798 267.004 65.8342 268.163 66.9239C274.989 73.3346 282.686 78.7474 291.008 82.9872L296.897 85.9877C298.263 86.6847 298.938 88.2657 298.469 89.6784L292.157 121.421C289.218 130.302 276.316 142.295 269.112 148.481C266.324 150.877 262.072 150.663 259.337 147.999C252.386 141.228 240.146 128.195 237.368 117.934L232.321 89.5612C231.953 88.2046 232.564 86.8122 233.794 86.1985Z" fill="#002BFF"/>
<path d="M264.24 159.237C261.875 159.237 259.481 158.335 257.655 156.556C249.155 148.276 234.393 132.529 231.021 120.073L229.439 111.183C229.403 110.979 229.539 110.784 229.743 110.748C229.949 110.711 230.143 110.847 230.178 111.051L231.754 119.91C235.071 132.16 249.735 147.791 258.181 156.017C261.322 159.077 266.286 159.327 269.481 156.585C278.321 148.993 293.672 134.683 297.192 124.092L304.814 85.7769C304.817 85.7616 304.82 85.7463 304.825 85.7327C305.33 84.2044 304.594 82.4823 303.11 81.7258L295.999 78.1031C285.908 72.9606 276.597 66.4139 268.321 58.6398C267.073 57.4685 265.135 57.4039 263.91 58.4936L261.254 60.8532C254.159 67.1602 246.233 72.5152 237.697 76.7686L227.237 81.9825C225.904 82.6472 225.252 84.1381 225.651 85.6103L228.274 100.348C228.31 100.552 228.174 100.747 227.97 100.783C227.766 100.82 227.57 100.684 227.533 100.479L224.918 85.7735C224.432 83.9851 225.245 82.1355 226.901 81.3093L237.361 76.0971C245.839 71.8709 253.708 66.555 260.755 60.2922L263.41 57.9326C264.948 56.5641 267.283 56.6321 268.836 58.0924C277.059 65.8172 286.312 72.3231 296.341 77.4333L303.452 81.056C305.256 81.9757 306.153 84.0735 305.546 85.9452L297.925 124.26C297.922 124.275 297.918 124.29 297.913 124.306C294.35 135.07 278.877 149.508 269.97 157.155C268.345 158.551 266.303 159.237 264.24 159.237Z" fill="#002BFF"/>
<path d="M247.83 98.6849V114.233C247.83 118.915 255.638 122.709 265.268 122.709C274.899 122.709 282.707 118.915 282.707 114.233V98.6849H247.83Z" fill="white"/>
<path d="M283.679 95.2136L265.79 87.6434C265.452 87.5245 265.084 87.5245 264.746 87.6434L246.857 95.2136H239.736V96.9408C239.736 97.1567 239.857 97.3709 240.1 97.4576L264.746 106.238C265.084 106.359 265.452 106.359 265.79 106.238L290.436 97.4576C290.678 97.3709 290.8 97.1567 290.8 96.9408V95.2136H283.679Z" fill="#002BFF"/>
<path d="M290.437 94.6968L265.79 85.9163C265.452 85.7956 265.085 85.7956 264.746 85.9163L240.1 94.6968C239.615 94.8702 239.615 95.557 240.1 95.7287L264.746 104.511C265.085 104.63 265.452 104.63 265.79 104.511L290.437 95.7287C290.921 95.557 290.921 94.8702 290.437 94.6968Z" fill="white"/>
<path d="M279.259 107.836C278.771 107.836 278.367 108.213 278.333 108.701L277.386 122.42H281.131L280.186 108.701C280.152 108.213 279.747 107.836 279.259 107.836Z" fill="white"/>
<path d="M277.789 122.045H280.729L279.81 108.727C279.789 108.438 279.548 108.212 279.259 108.212C278.97 108.212 278.727 108.438 278.707 108.727L277.789 122.045ZM281.131 122.796H277.386C277.282 122.796 277.182 122.752 277.11 122.675C277.041 122.6 277.003 122.499 277.012 122.393L277.957 108.676C278.004 107.994 278.576 107.46 279.259 107.46C279.941 107.46 280.514 107.994 280.559 108.676L281.506 122.393C281.513 122.499 281.477 122.6 281.406 122.675C281.335 122.752 281.236 122.796 281.131 122.796Z" fill="#002BFF"/>
<path d="M279.259 108.04C279.052 108.04 278.884 107.872 278.884 107.664V100.674L265.137 95.5655C264.942 95.4924 264.843 95.2765 264.916 95.0827C264.988 94.8872 265.205 94.7886 265.399 94.8617L279.39 100.06C279.536 100.115 279.635 100.254 279.635 100.412V107.664C279.635 107.872 279.467 108.04 279.259 108.04Z" fill="#002BFF"/>
<path d="M217.507 159.186C217.447 159.186 217.388 159.173 217.333 159.142C216.045 158.467 214.679 157.828 213.28 157.242C213.088 157.162 212.998 156.941 213.078 156.75C213.158 156.558 213.379 156.468 213.571 156.548C214.991 157.143 216.373 157.791 217.682 158.477C217.865 158.574 217.937 158.8 217.84 158.984C217.773 159.113 217.643 159.186 217.507 159.186ZM225.005 164.167C224.92 164.167 224.835 164.14 224.766 164.081C223.63 163.139 222.423 162.243 221.179 161.417C221.007 161.303 220.959 161.068 221.073 160.897C221.189 160.723 221.422 160.676 221.595 160.791C222.862 161.631 224.091 162.544 225.245 163.503C225.405 163.635 225.427 163.873 225.294 164.033C225.221 164.121 225.112 164.167 225.005 164.167ZM231.241 170.66C231.127 170.66 231.013 170.609 230.94 170.51C230.058 169.34 229.082 168.2 228.04 167.119C227.895 166.969 227.9 166.731 228.05 166.586C228.2 166.444 228.438 166.447 228.582 166.597C229.645 167.7 230.639 168.864 231.54 170.056C231.664 170.223 231.632 170.459 231.467 170.583C231.399 170.634 231.319 170.66 231.241 170.66ZM235.664 178.486C235.513 178.486 235.372 178.395 235.314 178.247C234.779 176.887 234.131 175.537 233.391 174.233C233.289 174.051 233.352 173.823 233.532 173.72C233.713 173.618 233.942 173.681 234.044 173.861C234.802 175.195 235.464 176.579 236.013 177.971C236.089 178.165 235.994 178.383 235.8 178.459C235.756 178.478 235.708 178.486 235.664 178.486ZM235.831 181.886C235.816 181.886 235.802 181.886 235.787 181.885C235.549 181.858 235.311 181.83 235.073 181.805C233.67 181.65 232.443 181.546 231.319 181.487C231.112 181.475 230.954 181.298 230.964 181.091C230.976 180.883 231.161 180.727 231.36 180.736C232.497 180.797 233.738 180.902 235.154 181.057C235.394 181.082 235.634 181.11 235.873 181.138C236.081 181.162 236.227 181.349 236.203 181.555C236.181 181.747 236.02 181.886 235.831 181.886ZM222.375 182.143C222.207 182.143 222.054 182.029 222.012 181.858C221.962 181.655 222.085 181.453 222.287 181.402C223.698 181.055 225.177 180.836 226.809 180.734C227.018 180.727 227.193 180.877 227.207 181.084C227.22 181.291 227.062 181.47 226.855 181.484C225.27 181.584 223.834 181.795 222.467 182.133C222.437 182.14 222.406 182.143 222.375 182.143ZM244.712 183.428C244.683 183.428 244.652 183.425 244.622 183.416C243.245 183.078 241.767 182.776 240.232 182.514C240.028 182.48 239.89 182.284 239.924 182.08C239.96 181.876 240.154 181.739 240.358 181.773C241.91 182.038 243.406 182.344 244.802 182.687C245.002 182.736 245.127 182.94 245.077 183.141C245.035 183.313 244.882 183.428 244.712 183.428ZM214.52 186.354C214.421 186.354 214.322 186.315 214.248 186.238C214.105 186.089 214.11 185.851 214.26 185.706C215.376 184.635 216.631 183.728 217.986 183.008C218.17 182.912 218.396 182.981 218.494 183.165C218.591 183.348 218.521 183.576 218.338 183.673C217.044 184.358 215.847 185.225 214.78 186.249C214.707 186.318 214.613 186.354 214.52 186.354ZM253.213 186.393C253.159 186.393 253.105 186.381 253.052 186.357C251.751 185.737 250.361 185.171 248.916 184.673C248.72 184.605 248.617 184.391 248.685 184.195C248.751 184 248.965 183.894 249.162 183.962C250.633 184.469 252.051 185.047 253.375 185.679C253.562 185.768 253.642 185.992 253.553 186.181C253.489 186.315 253.353 186.393 253.213 186.393ZM237.611 187.25C237.412 187.25 237.245 187.094 237.235 186.893C237.165 185.455 236.977 184.035 236.672 182.674L236.632 182.497C236.586 182.293 236.711 182.092 236.914 182.045C237.116 182 237.318 182.126 237.364 182.327L237.407 182.509C237.72 183.913 237.915 185.375 237.986 186.856C237.997 187.063 237.837 187.24 237.629 187.25C237.623 187.25 237.618 187.25 237.611 187.25ZM260.726 191.328C260.636 191.328 260.546 191.296 260.474 191.231C259.558 190.409 258.585 189.644 257.584 188.958C257.372 188.812 257.157 188.669 256.943 188.53C256.768 188.416 256.719 188.183 256.833 188.01C256.947 187.835 257.178 187.785 257.353 187.899C257.572 188.042 257.792 188.188 258.009 188.338C259.038 189.042 260.036 189.827 260.976 190.672C261.13 190.811 261.144 191.049 261.005 191.202C260.93 191.286 260.828 191.328 260.726 191.328ZM210.244 194.121C210.224 194.121 210.203 194.12 210.183 194.116C209.977 194.082 209.84 193.888 209.874 193.683C210.122 192.19 210.644 190.726 211.426 189.336C211.528 189.156 211.757 189.091 211.937 189.193C212.119 189.295 212.182 189.523 212.082 189.705C211.342 191.019 210.849 192.399 210.615 193.807C210.584 193.99 210.424 194.121 210.244 194.121ZM236.502 196.158C236.465 196.158 236.428 196.153 236.39 196.141C236.191 196.08 236.081 195.869 236.144 195.67C236.576 194.283 236.888 192.824 237.072 191.33C237.097 191.124 237.288 190.978 237.49 191.004C237.696 191.029 237.844 191.216 237.818 191.422C237.63 192.96 237.306 194.465 236.861 195.894C236.81 196.056 236.662 196.158 236.502 196.158ZM266.383 198.305C266.252 198.305 266.127 198.237 266.057 198.115C265.331 196.846 264.484 195.614 263.539 194.453C263.408 194.291 263.434 194.055 263.595 193.924C263.755 193.793 263.991 193.817 264.124 193.979C265.093 195.17 265.963 196.437 266.71 197.742C266.812 197.923 266.751 198.152 266.57 198.254C266.511 198.288 266.446 198.305 266.383 198.305ZM212.327 202.632C212.213 202.632 212.101 202.579 212.027 202.482C211.062 201.204 210.387 199.801 210.021 198.31C209.972 198.108 210.096 197.904 210.297 197.855C210.499 197.805 210.703 197.929 210.752 198.13C211.094 199.522 211.723 200.833 212.628 202.028C212.752 202.195 212.719 202.429 212.553 202.555C212.486 202.606 212.407 202.632 212.327 202.632ZM232.064 203.92C231.97 203.92 231.877 203.884 231.804 203.815C231.654 203.67 231.649 203.432 231.793 203.283C232.779 202.263 233.658 201.071 234.405 199.74C234.507 199.56 234.736 199.495 234.916 199.595C235.098 199.697 235.163 199.927 235.061 200.107C234.282 201.494 233.364 202.739 232.334 203.805C232.261 203.881 232.162 203.92 232.064 203.92ZM269.363 206.761C269.18 206.761 269.018 206.627 268.991 206.44C268.782 205.003 268.42 203.558 267.917 202.144C267.847 201.948 267.949 201.734 268.145 201.664C268.34 201.595 268.554 201.697 268.624 201.892C269.144 203.352 269.518 204.847 269.736 206.331C269.765 206.536 269.624 206.727 269.418 206.757C269.399 206.761 269.38 206.761 269.363 206.761ZM219.728 207.499C219.696 207.499 219.664 207.495 219.632 207.487C218.132 207.091 216.714 206.46 215.417 205.615C215.244 205.503 215.195 205.27 215.307 205.097C215.421 204.921 215.654 204.874 215.827 204.986C217.058 205.787 218.402 206.383 219.824 206.761C220.024 206.814 220.145 207.019 220.091 207.22C220.046 207.388 219.895 207.499 219.728 207.499ZM224.196 207.905C224.004 207.905 223.839 207.757 223.822 207.56C223.805 207.354 223.958 207.172 224.165 207.154C225.658 207.024 227.055 206.616 228.319 205.94C228.502 205.841 228.728 205.911 228.827 206.093C228.925 206.276 228.856 206.504 228.674 206.603C227.321 207.327 225.826 207.764 224.23 207.903C224.218 207.903 224.208 207.905 224.196 207.905Z" fill="#002BFF"/>
<path d="M108.94 165.894C108.841 165.894 108.742 165.855 108.668 165.779C108.525 165.628 108.53 165.391 108.681 165.247C109.762 164.213 110.908 163.203 112.085 162.246C112.246 162.115 112.483 162.139 112.614 162.301C112.745 162.46 112.721 162.698 112.56 162.829C111.398 163.775 110.267 164.771 109.2 165.791C109.127 165.86 109.034 165.894 108.94 165.894ZM102.962 172.637C102.884 172.637 102.805 172.611 102.738 172.562C102.571 172.438 102.537 172.203 102.66 172.037C102.835 171.802 103.011 171.569 103.19 171.338C103.931 170.379 104.719 169.429 105.529 168.516C105.667 168.359 105.904 168.346 106.06 168.484C106.215 168.621 106.229 168.859 106.091 169.014C105.292 169.915 104.516 170.852 103.784 171.797C103.609 172.025 103.435 172.254 103.263 172.484C103.19 172.584 103.076 172.637 102.962 172.637ZM98.2733 180.329C98.2177 180.329 98.1609 180.316 98.1075 180.29C97.9212 180.198 97.8447 179.974 97.9365 179.787C98.6071 178.427 99.3424 177.086 100.122 175.804C100.23 175.627 100.461 175.571 100.639 175.678C100.816 175.787 100.872 176.018 100.764 176.195C99.9961 177.458 99.2713 178.779 98.6107 180.118C98.5454 180.251 98.412 180.329 98.2733 180.329ZM95.0055 188.725C94.9703 188.725 94.9348 188.72 94.8996 188.71C94.7005 188.652 94.5863 188.443 94.6446 188.243C95.0683 186.798 95.5606 185.351 96.108 183.943C96.1834 183.751 96.4009 183.654 96.5947 183.731C96.7881 183.806 96.8839 184.023 96.8085 184.217C96.269 185.604 95.7836 187.031 95.3659 188.455C95.318 188.618 95.168 188.725 95.0055 188.725ZM93.2379 197.559C93.2244 197.559 93.2107 197.557 93.1969 197.557C92.9905 197.533 92.8416 197.348 92.8639 197.142C93.0259 195.65 93.2594 194.14 93.5578 192.652C93.5984 192.45 93.7949 192.316 94.0001 192.358C94.2036 192.399 94.3357 192.598 94.2947 192.802C94.0006 194.266 93.7706 195.753 93.6112 197.224C93.5903 197.416 93.4272 197.559 93.2379 197.559ZM93.116 206.564C92.9228 206.564 92.7586 206.416 92.7418 206.219C92.634 204.949 92.5791 203.648 92.5791 202.351C92.5791 202.127 92.5808 201.902 92.5839 201.676C92.5867 201.469 92.7556 201.294 92.965 201.305C93.1726 201.309 93.3385 201.481 93.3354 201.688C93.3324 201.909 93.3307 202.13 93.3307 202.351C93.3307 203.626 93.3847 204.906 93.491 206.156C93.5083 206.363 93.3552 206.543 93.1483 206.562C93.1376 206.562 93.1267 206.564 93.116 206.564Z" fill="#002BFF"/>
<path d="M57.7162 141.394C57.6713 141.394 57.6257 141.387 57.5813 141.37C57.3877 141.295 57.291 141.078 57.3654 140.884C65.211 120.465 78.8086 102.923 96.688 90.1578C104.132 84.8436 112.178 80.461 120.603 77.1324C120.796 77.0559 121.014 77.1511 121.09 77.3432C121.166 77.537 121.072 77.7546 120.879 77.8311C112.511 81.1376 104.519 85.4913 97.1247 90.7698C79.3657 103.45 65.8597 120.872 58.0672 141.153C58.0096 141.302 57.8673 141.394 57.7162 141.394Z" fill="#002BFF"/>
<path d="M44.4284 146.933C44.3888 146.933 44.3483 146.926 44.3087 146.914C44.1119 146.848 44.006 146.633 44.0723 146.438C48.5341 133.161 55.1576 120.782 63.7588 109.647C72.6598 98.1223 83.4597 88.2266 95.8582 80.2366C96.0328 80.1261 96.2655 80.1754 96.3775 80.3488C96.4899 80.5239 96.4397 80.7568 96.2652 80.869C72.0942 96.4461 53.8112 119.818 44.7846 146.676C44.7319 146.834 44.5855 146.933 44.4284 146.933Z" fill="#002BFF"/>
<path d="M124.819 74.7745L126.176 78.8766L128.551 76.2144L124.819 74.7745ZM126.024 79.9884C125.999 79.9884 125.973 79.985 125.948 79.9799C125.816 79.9527 125.709 79.8575 125.667 79.73L123.856 74.256C123.81 74.1183 123.848 73.9653 123.953 73.865C124.058 73.7647 124.213 73.7341 124.348 73.7868L129.328 75.7095C129.443 75.7537 129.529 75.8506 129.558 75.9713C129.587 76.0903 129.555 76.2178 129.473 76.3096L126.304 79.8626C126.232 79.9442 126.13 79.9884 126.024 79.9884Z" fill="#002BFF"/>
<path d="M215.956 74.1337C215.788 74.1337 215.635 74.0214 215.592 73.8514L215.091 71.8812C215.04 71.6806 215.162 71.4749 215.363 71.4239C215.565 71.3712 215.769 71.4953 215.82 71.6959L216.322 73.6662C216.373 73.8668 216.25 74.0724 216.05 74.1234C216.017 74.1302 215.987 74.1337 215.956 74.1337Z" fill="#002BFF"/>
<path d="M214.204 67.2384C214.035 67.2384 213.882 67.1245 213.84 66.9545L213.338 64.9842C213.287 64.7836 213.41 64.5779 213.61 64.5269C213.813 64.4742 214.017 64.5983 214.068 64.7989L214.567 66.7692C214.618 66.9715 214.498 67.1755 214.295 67.2265C214.265 67.235 214.234 67.2384 214.204 67.2384Z" fill="#002BFF"/>
<path d="M217.292 69.0778C217.126 69.0778 216.973 68.9639 216.929 68.7939C216.878 68.5916 217 68.3876 217.201 68.3366L219.171 67.8385C219.373 67.7892 219.577 67.9099 219.628 68.1105C219.679 68.3111 219.557 68.5151 219.356 68.5661L217.386 69.0659C217.355 69.0727 217.323 69.0778 217.292 69.0778Z" fill="#002BFF"/>
<path d="M210.396 70.8237C210.227 70.8237 210.074 70.7115 210.032 70.5398C209.981 70.3392 210.101 70.1352 210.302 70.0842L212.274 69.5844C212.476 69.5351 212.68 69.6558 212.73 69.8564C212.781 70.0587 212.66 70.2627 212.458 70.3137L210.487 70.8135C210.457 70.8203 210.426 70.8237 210.396 70.8237Z" fill="#002BFF"/>
<path d="M202.135 63.0632C201.227 63.0632 200.342 63.5273 199.845 64.362C199.482 64.9723 199.378 65.688 199.553 66.3782C199.728 67.0667 200.162 67.6464 200.774 68.0102C201.384 68.374 202.101 68.4794 202.79 68.3043C203.48 68.1292 204.06 67.6974 204.422 67.0854C204.786 66.4751 204.889 65.7594 204.714 65.0709C204.539 64.3807 204.106 63.801 203.495 63.4372C203.069 63.1839 202.599 63.0632 202.135 63.0632ZM202.13 69.139C201.523 69.139 200.925 68.9758 200.389 68.6562C199.606 68.1904 199.05 67.4458 198.825 66.5618C198.601 65.6795 198.733 64.7615 199.199 63.9778C200.162 62.3611 202.261 61.829 203.879 62.7912C204.663 63.2587 205.217 64.0016 205.443 64.8856C205.668 65.7696 205.534 66.6876 205.068 67.4713C204.602 68.2533 203.859 68.8092 202.975 69.0319C202.695 69.1033 202.412 69.139 202.13 69.139Z" fill="#002BFF"/>
<path d="M37.6902 164.951H37.6937H37.6902ZM39.4106 164.351C39.2768 164.351 39.1421 164.368 39.0089 164.4C38.5884 164.507 38.2348 164.771 38.0132 165.143C37.7915 165.515 37.7281 165.952 37.8348 166.374C37.9419 166.794 38.2061 167.147 38.5793 167.37C39.3487 167.829 40.3479 167.574 40.8054 166.806C41.0271 166.433 41.0903 165.996 40.9836 165.577C40.8768 165.155 40.6126 164.801 40.2397 164.58C39.9845 164.427 39.6997 164.351 39.4106 164.351ZM39.4067 168.349C38.9934 168.349 38.575 168.242 38.1947 168.016C37.6492 167.691 37.2626 167.173 37.1064 166.559C36.95 165.944 37.0428 165.305 37.3672 164.759C37.6915 164.215 38.209 163.827 38.8244 163.673C39.439 163.516 40.0783 163.61 40.624 163.934C41.1692 164.259 41.5558 164.776 41.712 165.391C41.8684 166.007 41.7758 166.644 41.4514 167.19C41.0079 167.936 40.217 168.349 39.4067 168.349Z" fill="#002BFF"/>
<path d="M38.0459 178.592C37.9497 178.592 37.8536 178.554 37.7802 178.481L36.1403 176.843C35.9936 176.696 35.9936 176.458 36.1402 176.312C36.287 176.164 36.525 176.164 36.6719 176.312L38.3116 177.951C38.4585 178.097 38.4585 178.335 38.3118 178.481C38.2383 178.554 38.1419 178.592 38.0459 178.592Z" fill="#002BFF"/>
<path d="M43.7848 184.326C43.6887 184.326 43.5925 184.289 43.5191 184.215L41.8795 182.577C41.7326 182.43 41.7326 182.192 41.8793 182.046C42.026 181.898 42.264 181.898 42.4109 182.046L44.0505 183.683C44.1974 183.831 44.1974 184.069 44.0508 184.215C43.9774 184.289 43.881 184.326 43.7848 184.326Z" fill="#002BFF"/>
<path d="M36.4062 184.326C36.31 184.326 36.2138 184.289 36.1402 184.215C35.9936 184.069 35.9936 183.831 36.1403 183.683L37.7802 182.046C37.9269 181.898 38.1651 181.898 38.3118 182.046C38.4585 182.192 38.4585 182.43 38.3116 182.577L36.6719 184.215C36.5985 184.289 36.5023 184.326 36.4062 184.326Z" fill="#002BFF"/>
<path d="M42.1452 178.592C42.0491 178.592 41.9527 178.554 41.8793 178.481C41.7326 178.335 41.7326 178.097 41.8795 177.951L43.5191 176.312C43.6658 176.164 43.904 176.164 44.0508 176.312C44.1974 176.458 44.1974 176.696 44.0505 176.843L42.4109 178.481C42.3376 178.554 42.2414 178.592 42.1452 178.592Z" fill="#002BFF"/>
</svg>
