<svg width="18" height="18" viewBox="0 0 18 18" fill="none" xmlns="http://www.w3.org/2000/svg">
<path d="M3.72655 18H14.2734C15.1458 18 15.8555 17.2903 15.8555 16.418V5.27344H12.164C11.2917 5.27344 10.582 4.56377 10.582 3.69141V0H3.72655C2.85418 0 2.14452 0.709664 2.14452 1.58203V16.418C2.14452 17.2903 2.85418 18 3.72655 18ZM5.83592 7.41797H12.164C12.4555 7.41797 12.6914 7.65383 12.6914 7.94531C12.6914 8.23679 12.4555 8.47266 12.164 8.47266H5.83592C5.54444 8.47266 5.30858 8.23679 5.30858 7.94531C5.30858 7.65383 5.54444 7.41797 5.83592 7.41797ZM5.83592 9.52734H12.164C12.4555 9.52734 12.6914 9.76321 12.6914 10.0547C12.6914 10.3462 12.4555 10.582 12.164 10.582H5.83592C5.54444 10.582 5.30858 10.3462 5.30858 10.0547C5.30858 9.76321 5.54444 9.52734 5.83592 9.52734ZM5.83592 11.6367H12.164C12.4555 11.6367 12.6914 11.8726 12.6914 12.1641C12.6914 12.4555 12.4555 12.6914 12.164 12.6914H5.83592C5.54444 12.6914 5.30858 12.4555 5.30858 12.1641C5.30858 11.8726 5.54444 11.6367 5.83592 11.6367ZM5.83592 13.7461H10.0547C10.3462 13.7461 10.582 13.982 10.582 14.2734C10.582 14.5649 10.3462 14.8008 10.0547 14.8008H5.83592C5.54444 14.8008 5.30858 14.5649 5.30858 14.2734C5.30858 13.982 5.54444 13.7461 5.83592 13.7461Z" fill="white"/>
<path d="M12.164 4.21875H15.5465L11.6367 0.30899V3.69141C11.6367 3.98236 11.8731 4.21875 12.164 4.21875Z" fill="white"/>
</svg>
