<svg width="19" height="19" viewBox="0 0 19 19" fill="none" xmlns="http://www.w3.org/2000/svg">
<path d="M3.16665 9.50001C3.17042 7.66114 3.8142 5.88093 4.98749 4.465C5.12186 4.30333 5.18651 4.0949 5.16721 3.88557C5.14791 3.67623 5.04624 3.48313 4.88457 3.34875C4.7229 3.21438 4.51447 3.14973 4.30513 3.16903C4.09579 3.18833 3.9027 3.29 3.76832 3.45167C2.36289 5.15395 1.59414 7.29252 1.59414 9.50001C1.59414 11.7075 2.36289 13.8461 3.76832 15.5483C3.84275 15.6377 3.93596 15.7096 4.04132 15.7588C4.14668 15.8081 4.2616 15.8335 4.3779 15.8333C4.56288 15.8337 4.74214 15.7693 4.88457 15.6513C4.96473 15.5848 5.031 15.5032 5.07957 15.4111C5.12814 15.319 5.15806 15.2182 5.16762 15.1145C5.17718 15.0108 5.16619 14.9062 5.13528 14.8068C5.10437 14.7074 5.05415 14.615 4.98749 14.535C3.8142 13.1191 3.17042 11.3389 3.16665 9.50001Z" fill="white"/>
<path d="M9.49998 11.0834C10.3744 11.0834 11.0833 10.3745 11.0833 9.50002C11.0833 8.62557 10.3744 7.91669 9.49998 7.91669C8.62553 7.91669 7.91665 8.62557 7.91665 9.50002C7.91665 10.3745 8.62553 11.0834 9.49998 11.0834Z" fill="white"/>
<path d="M13.5057 6.71334C13.4601 6.6124 13.3938 6.52215 13.3111 6.44844C13.2284 6.37473 13.1311 6.31919 13.0257 6.28541C12.9202 6.25163 12.8087 6.24037 12.6986 6.25236C12.5885 6.26434 12.4821 6.2993 12.3864 6.35498C12.2906 6.41065 12.2076 6.48581 12.1427 6.57558C12.0778 6.66535 12.0324 6.76774 12.0096 6.87613C11.9868 6.98453 11.9869 7.09651 12.0101 7.20483C12.0332 7.31316 12.0789 7.41542 12.144 7.50501C12.4914 8.10675 12.6743 8.78934 12.6743 9.48417C12.6743 10.179 12.4914 10.8616 12.144 11.4633C12.0894 11.5526 12.0531 11.6518 12.0371 11.7552C12.021 11.8586 12.0257 11.9641 12.0507 12.0657C12.0758 12.1673 12.1207 12.2629 12.1829 12.3471C12.2451 12.4312 12.3234 12.5022 12.4132 12.5558C12.5391 12.6263 12.6806 12.6644 12.8248 12.6667C12.9615 12.6675 13.096 12.6329 13.2153 12.5663C13.3346 12.4997 13.4346 12.4034 13.5057 12.2867C13.9875 11.4427 14.2408 10.4877 14.2408 9.51584C14.2408 8.54402 13.9875 7.589 13.5057 6.74501V6.71334Z" fill="white"/>
<path d="M6.58665 6.44418C6.49739 6.3896 6.39819 6.35325 6.29479 6.33724C6.1914 6.32122 6.08585 6.32587 5.98426 6.3509C5.88267 6.37593 5.78705 6.42085 5.70292 6.48306C5.6188 6.54527 5.54784 6.62354 5.49415 6.71335C5.01237 7.55734 4.75898 8.51236 4.75898 9.48418C4.75898 10.456 5.01237 11.411 5.49415 12.255C5.56121 12.3776 5.65952 12.4803 5.7791 12.5526C5.89868 12.6249 6.03527 12.6643 6.17498 12.6667C6.31927 12.6644 6.46073 12.6263 6.58665 12.5558C6.67645 12.5022 6.75473 12.4312 6.81694 12.3471C6.87915 12.263 6.92407 12.1673 6.9491 12.0657C6.97413 11.9641 6.97877 11.8586 6.96276 11.7552C6.94675 11.6518 6.9104 11.5526 6.85582 11.4633C6.5084 10.8616 6.3255 10.179 6.3255 9.48418C6.3255 8.78935 6.5084 8.10676 6.85582 7.50501C6.95618 7.32755 6.98421 7.11821 6.93407 6.92059C6.88393 6.72298 6.75948 6.55233 6.58665 6.44418Z" fill="white"/>
<path d="M15.2397 3.45167C15.1731 3.37162 15.0915 3.30546 14.9994 3.25696C14.9073 3.20847 14.8065 3.17859 14.7029 3.16903C14.4935 3.14973 14.2851 3.21438 14.1234 3.34875C13.9618 3.48313 13.8601 3.67623 13.8408 3.88557C13.8215 4.0949 13.8861 4.30333 14.0205 4.465C15.189 5.88277 15.828 7.66279 15.828 9.50001C15.828 11.3372 15.189 13.1172 14.0205 14.535C13.9539 14.615 13.9036 14.7074 13.8727 14.8068C13.8418 14.9062 13.8308 15.0108 13.8404 15.1145C13.8499 15.2182 13.8799 15.319 13.9284 15.4111C13.977 15.5032 14.0433 15.5848 14.1234 15.6513C14.2659 15.7693 14.4451 15.8337 14.6301 15.8333C14.7464 15.8335 14.8613 15.8081 14.9667 15.7588C15.072 15.7096 15.1653 15.6377 15.2397 15.5483C16.6451 13.8461 17.4139 11.7075 17.4139 9.50001C17.4139 7.29252 16.6451 5.15395 15.2397 3.45167Z" fill="white"/>
</svg>
