<svg width="19" height="19" viewBox="0 0 19 19" fill="none" xmlns="http://www.w3.org/2000/svg">
<g clip-path="url(#clip0_810_6733)">
<path d="M12.3646 4.26887C11.2919 2.07869 9.04818 0.630676 6.53137 0.630676C2.9301 0.630676 0.000278345 3.54388 0.000278345 7.12466C0.000278345 8.0978 0.209199 9.03052 0.621549 9.90016L0.0110769 12.9529C-0.0666282 13.3415 0.27618 13.685 0.664854 13.6081L3.75521 12.9971C4.17131 13.1945 4.60177 13.3446 5.04406 13.448C4.05264 8.75224 7.61193 4.3445 12.3646 4.26887Z" fill="white"/>
<path d="M18.3784 14.65C18.4851 14.4251 18.5778 14.1959 18.6571 13.963H18.6368C20.0264 9.88416 17.104 5.59723 12.7897 5.3885C12.7896 5.38828 12.7896 5.38805 12.7895 5.38783C9.07732 5.21676 5.99316 8.189 5.99316 11.8745C5.99316 15.4523 8.90102 18.3632 12.4776 18.3684C13.4477 18.3671 14.3776 18.1583 15.2447 17.747C18.6293 18.4161 18.3653 18.3685 18.4431 18.3685C18.7948 18.3685 19.0576 18.0462 18.9889 17.7028L18.3784 14.65Z" fill="white"/>
</g>
<defs>
<clipPath id="clip0_810_6733">
<rect width="19" height="19" fill="white"/>
</clipPath>
</defs>
</svg>
