<svg width="18" height="18" viewBox="0 0 18 18" fill="none" xmlns="http://www.w3.org/2000/svg">
<path d="M15.8571 18H3.85713C3.17514 18 2.52109 17.7155 2.03885 17.2092C1.55662 16.7028 1.2857 16.016 1.2857 15.3V2.7C1.2857 1.98391 1.55662 1.29716 2.03885 0.790812C2.52109 0.284463 3.17514 0 3.85713 0H15.8571C16.0844 0 16.3025 0.0948241 16.4632 0.263601C16.6239 0.432387 16.7143 0.661302 16.7143 0.9V17.1C16.7143 17.3387 16.6239 17.5676 16.4632 17.7364C16.3025 17.9051 16.0844 18 15.8571 18ZM15 16.2V14.4H3.85713C3.62979 14.4 3.41178 14.4949 3.25103 14.6636C3.09029 14.8324 2.99998 15.0613 2.99998 15.3C2.99998 15.5387 3.09029 15.7676 3.25103 15.9364C3.41178 16.1051 3.62979 16.2 3.85713 16.2H15ZM8.99998 7.2C9.45461 7.2 9.89064 7.01036 10.2122 6.67279C10.5337 6.33523 10.7143 5.87739 10.7143 5.4C10.7143 4.92261 10.5337 4.46477 10.2122 4.12721C9.89064 3.78964 9.45461 3.6 8.99998 3.6C8.54535 3.6 8.10933 3.78964 7.78781 4.12721C7.4663 4.46477 7.2857 4.92261 7.2857 5.4C7.2857 5.87739 7.4663 6.33523 7.78781 6.67279C8.10933 7.01036 8.54535 7.2 8.99998 7.2ZM6.42855 10.8H11.5714C11.5714 10.084 11.3005 9.39717 10.8182 8.89083C10.336 8.38449 9.68193 8.1 8.99998 8.1C8.31804 8.1 7.66395 8.38449 7.18171 8.89083C6.69947 9.39717 6.42855 10.084 6.42855 10.8Z" fill="white"/>
</svg>
