<svg width="18" height="18" viewBox="0 0 18 18" fill="none" xmlns="http://www.w3.org/2000/svg">
<g clip-path="url(#clip0_810_6675)">
<path d="M14.625 6.75V2.23312C14.6245 1.79018 14.4484 1.36551 14.1352 1.05231C13.822 0.739102 13.3973 0.562947 12.9544 0.5625H2.23311C1.79017 0.562947 1.3655 0.739102 1.05229 1.05231C0.739087 1.36551 0.562931 1.79018 0.562485 2.23312V10.1813C0.56308 10.6241 0.739283 11.0487 1.05246 11.3619C1.36563 11.6751 1.79022 11.8513 2.23311 11.8519H3.33561V14.0625C3.33578 14.1718 3.36778 14.2787 3.42772 14.3701C3.48766 14.4615 3.57293 14.5335 3.67311 14.5772C3.74394 14.6087 3.82059 14.625 3.89811 14.625C4.03891 14.625 4.17459 14.5722 4.27836 14.4771L6.74998 12.2124V9.16313C6.75147 8.52358 7.00619 7.91066 7.45841 7.45843C7.91064 7.0062 8.52357 6.75149 9.16311 6.75H14.625Z" fill="white"/>
<path d="M16.1494 7.875H9.16311C8.82157 7.8753 8.4941 8.01111 8.2526 8.25261C8.01109 8.49412 7.87528 8.82158 7.87498 9.16313V14.3438C7.87528 14.6853 8.01109 15.0128 8.2526 15.2543C8.4941 15.4958 8.82157 15.6316 9.16311 15.6319H12.8756L14.6885 17.2901C14.7925 17.3852 14.9284 17.4378 15.0694 17.4375C15.1469 17.4375 15.2235 17.4212 15.2944 17.3897C15.3945 17.346 15.4798 17.274 15.5397 17.1826C15.5997 17.0912 15.6317 16.9843 15.6319 16.875V15.6319H16.1494C16.4909 15.6316 16.8184 15.4958 17.0599 15.2543C17.3014 15.0128 17.4372 14.6853 17.4375 14.3438V9.16313C17.4372 8.82158 17.3014 8.49412 17.0599 8.25261C16.8184 8.01111 16.4909 7.8753 16.1494 7.875Z" fill="white"/>
</g>
<defs>
<clipPath id="clip0_810_6675">
<rect width="18" height="18" fill="white"/>
</clipPath>
</defs>
</svg>
