<svg width="18" height="18" viewBox="0 0 18 18" fill="none" xmlns="http://www.w3.org/2000/svg">
<path d="M17.5147 7.82913C17.5143 7.82872 17.5139 7.82831 17.5134 7.8279L10.1709 0.485596C9.85789 0.172485 9.44179 0 8.99918 0C8.55656 0 8.14046 0.172348 7.82735 0.485458L0.48862 7.82405C0.486148 7.82652 0.483676 7.82913 0.481204 7.8316C-0.161496 8.47801 -0.160397 9.52679 0.484363 10.1716C0.778934 10.4663 1.16799 10.637 1.58396 10.6548C1.60085 10.6565 1.61788 10.6573 1.63504 10.6573H1.92769V16.0608C1.92769 17.13 2.79767 18 3.86719 18H6.73984C7.03098 18 7.26718 17.7639 7.26718 17.4727V13.2363C7.26718 12.7484 7.66406 12.3515 8.15199 12.3515H9.84636C10.3343 12.3515 10.7312 12.7484 10.7312 13.2363V17.4727C10.7312 17.7639 10.9672 18 11.2585 18H14.1312C15.2007 18 16.0707 17.13 16.0707 16.0608V10.6573H16.342C16.7845 10.6573 17.2006 10.4849 17.5139 10.1718C18.1593 9.52597 18.1596 8.4754 17.5147 7.82913Z" fill="white"/>
</svg>
