<svg width="23" height="22" viewBox="0 0 23 22" fill="none" xmlns="http://www.w3.org/2000/svg">
<g clip-path="url(#clip0_810_6763)">
<path d="M18.5634 14.6443C18.4082 14.5472 18.2255 14.5345 18.0433 14.5921C17.3432 14.8782 16.5861 15.0524 15.8067 15.0793C15.0697 15.1199 14.3104 15.0132 13.5501 14.7661C11.8395 14.21 10.5032 13.0051 9.74766 11.5219C8.99217 10.0388 8.80323 8.24941 9.35928 6.53874C9.59268 5.82068 9.94594 5.16493 10.3631 4.6C10.8151 3.99969 11.3521 3.49707 11.9672 3.11324C12.2328 2.94271 12.3004 2.59107 12.1298 2.32549C12.0163 2.17184 11.8611 2.07468 11.6784 2.062C9.72538 1.96424 7.81244 2.53333 6.2263 3.60561C4.68927 4.6705 3.48591 6.21747 2.86808 8.11821C2.11981 10.4202 2.36945 12.8131 3.39578 14.828C4.42211 16.8428 6.18975 18.4448 8.51289 19.2C10.4559 19.8315 12.4707 19.7392 14.2706 19.0867C16.0986 18.4199 17.6831 17.137 18.7307 15.4226C18.9113 15.1544 18.8385 14.8038 18.5634 14.6443Z" fill="white"/>
</g>
<defs>
<clipPath id="clip0_810_6763">
<rect width="17.3666" height="17.3666" fill="white" transform="translate(5.5069) rotate(18.0066)"/>
</clipPath>
</defs>
</svg>
