<svg width="18" height="18" viewBox="0 0 18 18" fill="none" xmlns="http://www.w3.org/2000/svg">
<g clip-path="url(#clip0_810_6684)">
<path d="M17.4998 0.515625H4.49986C4.22374 0.515625 3.9998 0.739563 3.9998 1.01569V16.0157C3.99797 16.5582 3.81798 17.0854 3.48729 17.5157H15.4999C16.88 17.5142 17.9984 16.3958 17.9999 15.0156V1.01569C17.9999 0.739563 17.7759 0.515625 17.4998 0.515625V0.515625ZM14.4998 13.5156H7.49987C7.22374 13.5156 6.9998 13.2918 6.9998 13.0157C6.9998 12.7396 7.22374 12.5156 7.49987 12.5156H14.4998C14.7759 12.5156 14.9999 12.7396 14.9999 13.0157C14.9999 13.2918 14.7759 13.5156 14.4998 13.5156ZM14.4998 10.5156H7.49987C7.22374 10.5156 6.9998 10.2918 6.9998 10.0157C6.9998 9.73956 7.22374 9.51562 7.49987 9.51562H14.4998C14.7759 9.51562 14.9999 9.73956 14.9999 10.0157C14.9999 10.2918 14.7759 10.5156 14.4998 10.5156ZM14.4998 7.51556H7.49987C7.22374 7.51556 6.9998 7.29181 6.9998 7.01568C6.9998 6.73956 7.22374 6.51562 7.49987 6.51562H14.4998C14.7759 6.51562 14.9999 6.73956 14.9999 7.01568C14.9999 7.29181 14.7759 7.51556 14.4998 7.51556ZM14.4998 4.51556H7.49987C7.22374 4.51556 6.9998 4.29181 6.9998 4.01568C6.9998 3.73956 7.22374 3.51562 7.49987 3.51562H14.4998C14.7759 3.51562 14.9999 3.73956 14.9999 4.01568C14.9999 4.29181 14.7759 4.51556 14.4998 4.51556Z" fill="white"/>
<path d="M2.49992 2.51569H0.500046C0.223923 2.51569 -1.52588e-05 2.73944 -1.52588e-05 3.01556V16.0157C-1.52588e-05 16.844 0.671616 17.5157 1.49998 17.5157C2.32835 17.5157 2.99998 16.844 2.99998 16.0157V3.01556C2.99998 2.73944 2.77605 2.51569 2.49992 2.51569Z" fill="white"/>
</g>
<defs>
<clipPath id="clip0_810_6684">
<rect width="18" height="18" fill="white"/>
</clipPath>
</defs>
</svg>
