<svg width="18" height="18" viewBox="0 0 18 18" fill="none" xmlns="http://www.w3.org/2000/svg">
<g clip-path="url(#clip0_810_6751)">
<path d="M16.0342 12.6847C14.9002 11.7262 14.25 10.3252 14.25 8.841V6.75C14.25 4.11075 12.2895 1.926 9.74999 1.56V0.75C9.74999 0.33525 9.41399 0 8.99999 0C8.58599 0 8.24999 0.33525 8.24999 0.75V1.56C5.70974 1.926 3.74999 4.11075 3.74999 6.75V8.841C3.74999 10.3252 3.09974 11.7262 1.95898 12.6907C1.66723 12.9405 1.49998 13.3035 1.49998 13.6875C1.49998 14.4112 2.08873 15 2.81249 15H15.1875C15.9112 15 16.5 14.4112 16.5 13.6875C16.5 13.3035 16.3327 12.9405 16.0342 12.6847Z" fill="white"/>
<path d="M8.99987 18C10.3581 18 11.4944 17.0318 11.7554 15.75H6.24437C6.50537 17.0318 7.64162 18 8.99987 18Z" fill="white"/>
</g>
<defs>
<clipPath id="clip0_810_6751">
<rect width="18" height="18" fill="white"/>
</clipPath>
</defs>
</svg>
