<svg width="18" height="18" viewBox="0 0 18 18" fill="none" xmlns="http://www.w3.org/2000/svg">
<g clip-path="url(#clip0_810_6648)">
<path d="M2.75319 2.12422C2.75271 2.12422 2.75216 2.12422 2.75168 2.12422C2.58143 2.12422 2.42131 2.19059 2.3004 2.31119C2.17816 2.43313 2.11082 2.5955 2.11082 2.76835V12.4269C2.11082 12.781 2.4001 13.0699 2.75574 13.0708C4.25501 13.0744 6.7669 13.3869 8.49976 15.2003V5.09235C8.49976 4.97229 8.46909 4.8595 8.41121 4.76617C6.98896 2.47574 4.25586 2.12774 2.75319 2.12422Z" fill="white"/>
<path d="M15.8889 12.4268V2.76825C15.8889 2.5954 15.8216 2.43304 15.6994 2.3111C15.5785 2.19049 15.4182 2.12413 15.2482 2.12413C15.2476 2.12413 15.2471 2.12413 15.2466 2.12413C13.744 2.12771 11.0109 2.47571 9.58856 4.76614C9.53068 4.85947 9.50008 4.97226 9.50008 5.09232V15.2002C11.2329 13.3868 13.7448 13.0743 15.2441 13.0707C15.5997 13.0698 15.8889 12.781 15.8889 12.4268Z" fill="white"/>
<path d="M17.3559 4.35161H16.8888V12.4269C16.8888 13.3312 16.152 14.0686 15.2463 14.0708C13.9746 14.0738 11.8778 14.3225 10.3927 15.728C12.9611 15.0992 15.6686 15.508 17.2117 15.8596C17.4043 15.9035 17.6034 15.8581 17.7578 15.7351C17.9116 15.6124 17.9999 15.4289 17.9999 15.232V4.99561C17.9999 4.64052 17.7109 4.35161 17.3559 4.35161Z" fill="white"/>
<path d="M1.11102 12.4268V4.35159H0.643987C0.288955 4.35159 -1.52588e-05 4.6405 -1.52588e-05 4.9956V15.2318C-1.52588e-05 15.4288 0.0882275 15.6122 0.242046 15.7349C0.396289 15.8579 0.595199 15.9034 0.788169 15.8594C2.3312 15.5077 5.03879 15.099 7.60704 15.7278C6.12207 14.3224 4.02521 14.0738 2.75351 14.0707C1.84787 14.0685 1.11102 13.3311 1.11102 12.4268Z" fill="white"/>
</g>
<defs>
<clipPath id="clip0_810_6648">
<rect width="18" height="18" fill="white"/>
</clipPath>
</defs>
</svg>
