<svg width="18" height="18" viewBox="0 0 18 18" fill="none" xmlns="http://www.w3.org/2000/svg">
<g clip-path="url(#clip0_810_6619)">
<path d="M8.87188 8.67065C10.0631 8.67065 11.0946 8.24342 11.9373 7.4005C12.7801 6.55771 13.2074 5.52651 13.2074 4.33519C13.2074 3.14427 12.7801 2.11294 11.9372 1.26988C11.0943 0.427229 10.0629 0 8.87188 0C7.68055 0 6.64935 0.427229 5.80656 1.27001C4.96377 2.1128 4.5364 3.14414 4.5364 4.33519C4.5364 5.52651 4.96377 6.55785 5.80669 7.40064C6.64962 8.24328 7.68096 8.67065 8.87188 8.67065Z" fill="white"/>
<path d="M16.4576 13.8411C16.4333 13.4903 16.3842 13.1077 16.3118 12.7037C16.2387 12.2967 16.1447 11.9119 16.0321 11.5602C15.9157 11.1967 15.7575 10.8377 15.562 10.4937C15.359 10.1366 15.1206 9.82572 14.8531 9.56988C14.5733 9.30223 14.2309 9.08703 13.8348 8.93007C13.4401 8.77393 13.0027 8.69482 12.5348 8.69482C12.3511 8.69482 12.1734 8.77022 11.8302 8.99365C11.619 9.13139 11.3719 9.29069 11.0962 9.46689C10.8604 9.61712 10.541 9.75788 10.1464 9.88533C9.76147 10.0099 9.37064 10.0731 8.98488 10.0731C8.59912 10.0731 8.20842 10.0099 7.82307 9.88533C7.42894 9.75802 7.10951 9.61726 6.87399 9.46702C6.60085 9.29248 6.35365 9.13318 6.13928 8.99351C5.79651 8.77008 5.61867 8.69469 5.43492 8.69469C4.9669 8.69469 4.52965 8.77393 4.1351 8.93021C3.73932 9.0869 3.39668 9.30209 3.11667 9.57002C2.84929 9.826 2.61075 10.1368 2.40805 10.4937C2.21263 10.8377 2.05443 11.1965 1.93797 11.5603C1.8255 11.912 1.73143 12.2967 1.65837 12.7037C1.586 13.1072 1.53683 13.4899 1.51253 13.8415C1.48863 14.1859 1.47655 14.5434 1.47655 14.9044C1.47655 15.844 1.77524 16.6047 2.36424 17.1657C2.94597 17.7192 3.7157 18.0001 4.65173 18.0001H13.3188C14.2549 18.0001 15.0243 17.7194 15.6062 17.1657C16.1953 16.6051 16.494 15.8443 16.494 14.9043C16.4939 14.5416 16.4817 14.1838 16.4576 13.8411Z" fill="white"/>
</g>
<defs>
<clipPath id="clip0_810_6619">
<rect width="18" height="18" fill="white"/>
</clipPath>
</defs>
</svg>
