<svg width="18" height="18" viewBox="0 0 18 18" fill="none" xmlns="http://www.w3.org/2000/svg">
<g clip-path="url(#clip0_810_6693)">
<path d="M7.04332 14.0467L7.49999 12.4533C7.54981 12.2764 7.65934 12.1221 7.80999 12.0167C14.9634 4.86683 14.5667 5.2111 14.9 5.03333V1C14.8992 0.735021 14.7936 0.481116 14.6062 0.293747C14.4189 0.106378 14.165 0.000772995 13.9 0H1.89999C1.63501 0.000772995 1.3811 0.106378 1.19373 0.293747C1.00636 0.481116 0.900759 0.735021 0.899986 1V17C0.900763 17.265 1.00637 17.5189 1.19374 17.7062C1.38111 17.8936 1.63501 17.9992 1.89999 18H13.9C14.165 17.9992 14.4189 17.8936 14.6062 17.7062C14.7936 17.5189 14.8992 17.265 14.9 17V12.17L14.7833 12.2867C14.5927 12.468 14.3397 12.5692 14.0767 12.5692C13.8136 12.5692 13.5606 12.468 13.37 12.2867C13.2887 12.2054 13.2222 12.1107 13.1733 12.0067L10.4867 14.6933C10.3773 14.8481 10.2167 14.9591 10.0333 15.0067L8.45665 15.46L8.27999 15.64C8.18719 15.7332 8.07693 15.8073 7.95551 15.8579C7.83409 15.9085 7.70389 15.9348 7.57234 15.9351C7.44079 15.9354 7.31047 15.9098 7.18882 15.8597C7.06716 15.8097 6.95656 15.7361 6.86332 15.6433C6.67502 15.4559 6.56888 15.2014 6.56825 14.9357C6.56794 14.8041 6.59355 14.6738 6.6436 14.5522C6.69366 14.4305 6.76719 14.3199 6.85999 14.2267L7.04332 14.0467ZM3.13999 2.66667H11.8067C11.8945 2.66755 11.9784 2.70305 12.0402 2.76547C12.102 2.82788 12.1367 2.91217 12.1367 3C12.1367 3.08783 12.102 3.17212 12.0402 3.23453C11.9784 3.29695 11.8945 3.33246 11.8067 3.33333H3.13999C3.05216 3.33246 2.96823 3.29695 2.90643 3.23453C2.84463 3.17212 2.80997 3.08783 2.80997 3C2.80997 2.91217 2.84463 2.82788 2.90643 2.76547C2.96823 2.70305 3.05216 2.66755 3.13999 2.66667ZM3.13999 4.33333H11.8067C11.8945 4.33421 11.9784 4.36972 12.0402 4.43213C12.102 4.49455 12.1367 4.57883 12.1367 4.66667C12.1367 4.7545 12.102 4.83878 12.0402 4.9012C11.9784 4.96362 11.8945 4.99912 11.8067 5H3.13999C3.05216 4.99912 2.96823 4.96362 2.90643 4.9012C2.84463 4.83878 2.80997 4.7545 2.80997 4.66667C2.80997 4.57883 2.84463 4.49455 2.90643 4.43213C2.96823 4.36972 3.05216 4.33421 3.13999 4.33333ZM3.13999 6H11.8067C11.8945 6.00088 11.9784 6.03638 12.0402 6.0988C12.102 6.16122 12.1367 6.2455 12.1367 6.33333C12.1367 6.42117 12.102 6.50545 12.0402 6.56787C11.9784 6.63028 11.8945 6.66579 11.8067 6.66667H3.13999C3.05216 6.66579 2.96823 6.63028 2.90643 6.56787C2.84463 6.50545 2.80997 6.42117 2.80997 6.33333C2.80997 6.2455 2.84463 6.16122 2.90643 6.0988C2.96823 6.03638 3.05216 6.00088 3.13999 6ZM3.13999 8.33333C3.05216 8.33246 2.96823 8.29695 2.90643 8.23453C2.84463 8.17212 2.80997 8.08783 2.80997 8C2.80997 7.91217 2.84463 7.82788 2.90643 7.76547C2.96823 7.70305 3.05216 7.66755 3.13999 7.66667H6.80665C6.89448 7.66755 6.97841 7.70305 7.04021 7.76547C7.10201 7.82788 7.13667 7.91217 7.13667 8C7.13667 8.08783 7.10201 8.17212 7.04021 8.23453C6.97841 8.29695 6.89448 8.33246 6.80665 8.33333H3.13999Z" fill="white"/>
<path d="M8.08649 12.8233L9.67983 14.4167L8.10649 14.8667L7.80649 15.17C7.74356 15.232 7.65868 15.2666 7.57035 15.2663C7.48202 15.2659 7.39739 15.2307 7.33493 15.1682C7.27247 15.1058 7.23723 15.0211 7.2369 14.9328C7.23657 14.8445 7.27117 14.7596 7.33316 14.6967L7.63649 14.3967L8.08649 12.8233Z" fill="white"/>
<path d="M15.1264 9.11001L14.8997 9.33668L10.2197 14.0167L8.48641 12.2833L13.3931 7.37668C14.0019 7.9855 13.5627 7.54635 15.1264 9.11001Z" fill="white"/>
<path d="M17.6536 8.47669L14.3136 11.8167C14.2507 11.8784 14.166 11.9127 14.0779 11.9121C13.9898 11.9116 13.9055 11.8762 13.8434 11.8136C13.7813 11.7511 13.7465 11.6666 13.7465 11.5784C13.7466 11.4903 13.7815 11.4058 13.8436 11.3434L16.4836 8.70336L16.007 8.23002L15.597 8.64002C15.1923 8.23536 14.2516 7.29465 13.8636 6.90669L14.9536 5.81669C15.1835 5.58683 15.4952 5.4577 15.8203 5.4577C16.1454 5.4577 16.4571 5.58683 16.687 5.81669C16.9168 6.04654 17.046 6.35829 17.046 6.68335C17.046 7.00842 16.9168 7.32017 16.687 7.55002L16.4803 7.75669L16.9536 8.23336L17.1803 8.00336C17.2433 7.94162 17.3281 7.90723 17.4163 7.90767C17.5045 7.90811 17.589 7.94334 17.6513 8.00571C17.7137 8.06807 17.7489 8.15253 17.7493 8.24072C17.7498 8.32891 17.7154 8.41371 17.6536 8.47669Z" fill="white"/>
</g>
<defs>
<clipPath id="clip0_810_6693">
<rect width="18" height="18" fill="white"/>
</clipPath>
</defs>
</svg>
