<svg width="23" height="22" viewBox="0 0 23 22" fill="none" xmlns="http://www.w3.org/2000/svg">
<g clip-path="url(#clip0_403_5174)">
<path d="M18.5634 14.6443C18.4082 14.5472 18.2255 14.5345 18.0434 14.5921C17.3432 14.8782 16.5861 15.0524 15.8068 15.0793C15.0697 15.1199 14.3104 15.0132 13.5502 14.7661C11.8395 14.21 10.5032 13.0051 9.74769 11.5219C8.9922 10.0388 8.80326 8.24941 9.35931 6.53874C9.59271 5.82068 9.94597 5.16493 10.3631 4.6C10.8151 3.99969 11.3521 3.49707 11.9672 3.11324C12.2328 2.94271 12.3004 2.59107 12.1299 2.32549C12.0164 2.17184 11.8611 2.07468 11.6784 2.062C9.72541 1.96424 7.81247 2.53333 6.22633 3.60561C4.6893 4.6705 3.48594 6.21747 2.86811 8.11821C2.11984 10.4202 2.36948 12.8131 3.39581 14.828C4.42214 16.8428 6.18978 18.4448 8.51292 19.2C10.4559 19.8315 12.4707 19.7392 14.2707 19.0867C16.0986 18.4199 17.6832 17.137 18.7308 15.4226C18.9114 15.1544 18.8385 14.8038 18.5634 14.6443Z" fill="black"/>
</g>
<defs>
<clipPath id="clip0_403_5174">
<rect width="17.3666" height="17.3666" fill="white" transform="translate(5.50693) rotate(18.0066)"/>
</clipPath>
</defs>
</svg>
