<svg width="18" height="16" viewBox="0 0 18 16" fill="none" xmlns="http://www.w3.org/2000/svg">
<path d="M1.12966 10.9483V5.34964L2.18435 5.7012V10.9483C2.84019 11.1691 3.31403 11.7894 3.31403 12.5187V15.3429C3.31403 15.6342 3.07792 15.8703 2.78668 15.8703H0.527332C0.236098 15.8703 -1.14441e-05 15.6342 -1.14441e-05 15.3429V12.5187C-1.14441e-05 11.7894 0.473824 11.1691 1.12966 10.9483Z" fill="white"/>
<path d="M9.50008 7.80637L14.6109 6.10277V9.69454C14.6109 9.83443 14.5553 9.96855 14.4564 10.0674C12.9988 11.5249 11.0609 12.3276 8.99974 12.3276C6.93856 12.3276 5.00082 11.5249 3.54349 10.0674C3.44459 9.96848 3.38904 9.83436 3.38904 9.69454V6.10277L8.49971 7.80633C8.84906 7.92267 9.20073 7.90611 9.50008 7.80637Z" fill="white"/>
<path d="M8.99998 6.83282C8.94366 6.83282 8.88734 6.82378 8.83324 6.80575L0.360582 3.98154C0.14525 3.90975 -1.52588e-05 3.70824 -1.52588e-05 3.48127C-1.52588e-05 3.2543 0.145214 3.05278 0.360582 2.98099L8.83324 0.156787C8.94145 0.120752 9.05852 0.120752 9.16673 0.156787L17.6394 2.98099C17.8548 3.05275 18 3.25426 18 3.48127C18 3.70827 17.8548 3.90975 17.6394 3.98154L9.16673 6.80575C9.11263 6.82378 9.0563 6.83282 8.99998 6.83282Z" fill="white"/>
</svg>
